<svg width="20" height="21" viewBox="0 0 20 21" fill="none" xmlns="http://www.w3.org/2000/svg">
<path d="M1.66619 11.0955H16.3212L11.9104 15.5063C11.8308 15.5832 11.7673 15.6752 11.7236 15.7768C11.6799 15.8785 11.6569 15.9879 11.656 16.0985C11.655 16.2092 11.6761 16.3189 11.718 16.4213C11.7599 16.5237 11.8218 16.6168 11.9 16.695C11.9783 16.7733 12.0713 16.8351 12.1737 16.877C12.2761 16.9189 12.3859 16.94 12.4965 16.9391C12.6072 16.9381 12.7165 16.9151 12.8182 16.8714C12.9199 16.8278 13.0118 16.7643 13.0887 16.6847L18.922 10.8513C19.0783 10.6951 19.166 10.4832 19.166 10.2622C19.166 10.0412 19.0783 9.82929 18.922 9.67301L13.0887 3.83968C12.9315 3.68788 12.721 3.60389 12.5025 3.60578C12.284 3.60768 12.075 3.69532 11.9205 3.84983C11.766 4.00434 11.6784 4.21335 11.6765 4.43185C11.6746 4.65034 11.7586 4.86085 11.9104 5.01801L16.3212 9.42885H1.66619C1.44518 9.42885 1.23322 9.51664 1.07694 9.67292C0.920658 9.82921 0.832861 10.0412 0.832861 10.2622C0.832861 10.4832 0.920658 10.6952 1.07694 10.8514C1.23322 11.0077 1.44518 11.0955 1.66619 11.0955Z" fill="#9B9A84"/>
</svg>
