<svg width="118" height="123" viewBox="0 0 118 123" fill="none" xmlns="http://www.w3.org/2000/svg">
<path d="M5.7671 71.9817L25.8317 71.2352L17.5598 78.0336L16.1307 89.3407L5.7671 71.9817Z" fill="white"/>
<path d="M12.4561 73.5262C12.3542 73.634 12.3784 73.8753 12.5313 74.2139C12.6105 74.3943 12.717 74.5914 12.8511 74.8052C12.9139 74.9191 12.9905 75.0412 13.0808 75.1718L13.2094 75.3634C13.2614 75.4328 13.2997 75.4939 13.3517 75.5633C13.5597 75.8411 13.7951 76.1356 14.0579 76.4467C14.1236 76.5245 14.1893 76.6023 14.2687 76.6885C14.3345 76.7663 14.4139 76.8524 14.4933 76.9386C14.6384 77.1025 14.8055 77.261 14.9781 77.4416C15.3177 77.7807 15.6682 78.1642 16.0847 78.5312C16.293 78.7147 16.4929 78.912 16.7149 79.1039C16.8217 79.2067 16.9368 79.2958 17.0436 79.3986C17.1505 79.5015 17.2656 79.5905 17.3944 79.6878C19.255 81.2368 21.6674 82.8953 24.5333 84.3581C24.7198 84.4529 24.8843 84.5531 25.0791 84.634L25.6331 84.896C26.0144 85.0717 26.3737 85.2528 26.7769 85.4229C27.1664 85.5847 27.5697 85.7549 27.9592 85.9167C28.154 85.9976 28.3624 86.0868 28.5572 86.1677C28.7602 86.2348 28.9687 86.3241 29.1717 86.3911C29.3748 86.4582 29.5833 86.5474 29.7863 86.6145C30.0031 86.6899 30.1978 86.7708 30.4228 86.8324C30.8426 86.9748 31.2707 87.1034 31.7042 87.2543C31.8167 87.2851 31.9209 87.3297 32.0334 87.3605L32.327 87.4638C32.552 87.5254 32.7633 87.5786 32.9884 87.6402C33.2134 87.7017 33.4384 87.7633 33.6497 87.8165C33.8747 87.8781 34.108 87.9258 34.3193 87.979C34.5444 88.0406 34.8133 88.0912 35.0878 88.164C35.236 88.1977 35.3842 88.2313 35.5461 88.2733C35.708 88.3153 35.8782 88.3435 36.0484 88.3716C36.4024 88.4363 36.7839 88.5177 37.1874 88.5936C37.2862 88.616 37.385 88.6385 37.5058 88.6554C37.6129 88.664 37.7254 88.6948 37.8325 88.7034C38.0521 88.7427 38.2799 88.7683 38.5132 88.816C40.3935 89.112 42.7435 89.3731 45.4839 89.419C46.1732 89.4235 46.8762 89.4364 47.6176 89.4162C47.9828 89.431 48.3508 89.4098 48.7326 89.3969C49.1006 89.3757 49.4906 89.349 49.8806 89.3222C50.0756 89.3089 50.2706 89.2955 50.4656 89.2822C50.559 89.2824 50.6606 89.2688 50.7623 89.2552C50.8639 89.2416 50.9573 89.2418 51.0589 89.2282C51.4572 89.1877 51.8555 89.1472 52.2675 89.115C52.4625 89.1016 52.674 89.0606 52.8773 89.0334C53.0806 89.0062 53.2839 88.979 53.4872 88.9518C53.902 88.8835 54.3222 88.8375 54.7454 88.7554C55.1685 88.6733 55.597 88.6135 56.0338 88.5397C56.1354 88.5261 56.2453 88.4987 56.3553 88.4713C56.4652 88.4438 56.5668 88.4302 56.6767 88.4028C56.8965 88.3479 57.1081 88.3069 57.3416 88.2603C57.5615 88.2055 57.7867 88.1728 58.0065 88.1179C58.2264 88.063 58.4462 88.0081 58.666 87.9533C58.8858 87.8984 59.1057 87.8435 59.3338 87.7748C59.4437 87.7474 59.5536 87.7199 59.6718 87.6787L59.8476 87.6347L60.0098 87.5825C60.4577 87.4589 60.9139 87.3214 61.3701 87.184C61.4883 87.1427 61.5982 87.1153 61.7164 87.074C61.8346 87.0328 61.9445 87.0053 62.0627 86.964C62.2908 86.8953 62.5134 86.8044 62.7498 86.7219C62.9862 86.6393 63.2143 86.5706 63.4369 86.4797C63.6596 86.3888 63.896 86.3062 64.1186 86.2153C64.3413 86.1244 64.5777 86.0418 64.8086 85.9371C64.9268 85.8958 65.045 85.8545 65.1494 85.8049C65.2676 85.7636 65.3804 85.7002 65.4986 85.6589C65.9604 85.4494 66.4277 85.2621 66.8896 85.0526C67.1205 84.9478 67.3515 84.8431 67.5907 84.7245C67.8216 84.6197 68.0471 84.4928 68.278 84.3881C69.2046 83.933 70.1286 83.4198 71.0554 82.8705C71.9822 82.3212 72.8899 81.7414 73.7896 81.0811C74.6809 80.4347 75.5614 79.7439 76.4119 78.9782C76.6348 78.793 76.8303 78.5912 77.0395 78.3977C77.2487 78.2041 77.4441 78.0023 77.6616 77.7949C77.8571 77.593 78.0608 77.3773 78.2563 77.1755C78.3582 77.0676 78.4518 76.9736 78.5537 76.8657C78.6556 76.7579 78.7574 76.65 78.8456 76.5338C79.6112 75.6598 80.344 74.7468 81.0165 73.7783C81.1791 73.5375 81.3637 73.2913 81.5264 73.0505C81.6753 72.8014 81.8462 72.5468 81.9951 72.2976C82.3286 71.8023 82.6073 71.2735 82.8997 70.7531C83.0569 70.4901 83.1784 70.2243 83.3219 69.953C83.4571 69.6955 83.5869 69.4158 83.7304 69.1445C83.8519 68.8787 83.9817 68.599 84.0977 68.311L84.2883 67.8984L84.3325 67.7932L84.3767 67.688L84.4651 67.4775C84.5811 67.1895 84.6889 66.9153 84.805 66.6273L84.8934 66.4168C84.9211 66.3393 84.9404 66.2756 84.9681 66.198L85.1175 65.7604C85.2116 65.4779 85.3139 65.1815 85.408 64.899C85.4884 64.6081 85.577 64.3034 85.6574 64.0125L85.7848 63.5804C85.8181 63.4308 85.8515 63.2811 85.8848 63.1315C85.9515 62.8323 86.0182 62.533 86.0848 62.2338C86.1181 62.0842 86.1515 61.9346 86.1711 61.7766L86.2574 61.3194L86.3437 60.8622L86.3827 60.6405C86.3884 60.5685 86.4023 60.4826 86.408 60.4105C86.4472 60.0946 86.4919 59.8008 86.5312 59.4849C86.5508 59.3269 86.5841 59.1773 86.5817 59.0248L86.6186 58.5564C86.6359 58.246 86.6669 57.9439 86.6924 57.6196C86.7097 57.3091 86.7269 56.9987 86.7305 56.6799C86.7502 55.4268 86.6847 54.1598 86.5122 52.8841C86.3314 51.6223 86.0435 50.3518 85.5881 49.1114C85.1327 47.8711 84.537 46.6774 83.7545 45.5776C83.7025 45.5082 83.6505 45.4387 83.6122 45.3776L83.4562 45.1693C83.3522 45.0304 83.2536 44.9137 83.1496 44.7748C82.9333 44.5109 82.6814 44.2441 82.4074 43.9828C82.1335 43.7215 81.8019 43.4629 81.4235 43.2512C81.0533 43.0257 80.6227 42.8388 80.1424 42.735C79.6977 42.6341 79.2118 42.6023 78.7119 42.6565C78.2256 42.719 77.7612 42.8702 77.3487 43.0909C76.9362 43.3117 76.5923 43.5741 76.2895 43.8617C75.9867 44.1492 75.7333 44.448 75.5073 44.7634C75.0637 45.3805 74.7545 46.0229 74.4947 46.6764C74.2569 47.3245 74.0685 47.9838 73.9569 48.6711C73.929 48.8429 73.9011 49.0147 73.8732 49.1865L73.8564 49.3084L73.8479 49.4165L73.8226 49.6465L73.7857 50.115L73.7571 50.5695C73.7457 50.7137 73.7398 50.88 73.7285 51.0241L73.7136 51.487C73.6963 51.7975 73.701 52.1025 73.7058 52.4074C73.7164 53.6411 73.7983 54.8805 73.982 56.1063C74.1656 57.3321 74.4371 58.536 74.8269 59.6986C76.3171 64.4014 79.7339 68.4467 84.123 70.2711C86.3065 71.186 88.6702 71.4555 90.8868 71.22C92.002 71.1065 93.0709 70.8514 94.0878 70.5269C95.1047 70.2024 96.0861 69.7808 96.9852 69.3091C98.8192 68.3685 100.442 67.1861 101.863 65.9368C103.291 64.6735 104.547 63.3239 105.618 61.9378C105.753 61.7746 105.883 61.5892 106.018 61.4259C106.089 61.3374 106.139 61.2544 106.211 61.1658C106.269 61.069 106.332 60.9943 106.39 60.8974C106.511 60.7258 106.632 60.5543 106.754 60.3827C106.875 60.2111 106.996 60.0396 107.104 59.8597C107.333 59.5082 107.553 59.1705 107.774 58.8329C107.98 58.4869 108.187 58.1409 108.394 57.7949C109.191 56.4302 109.865 55.0846 110.439 53.8109C110.572 53.4952 110.713 53.1657 110.845 52.85C110.978 52.5343 111.088 52.224 111.213 51.9222C111.268 51.7671 111.337 51.6203 111.392 51.4652C111.448 51.3101 111.495 51.1689 111.55 51.0138C111.652 50.7174 111.755 50.421 111.849 50.1385C112.22 48.9862 112.533 47.9308 112.747 46.9472C112.802 46.6978 112.863 46.4707 112.911 46.2351C112.958 45.9996 112.997 45.7779 113.05 45.5646C113.089 45.3429 113.133 45.1435 113.164 44.9356C113.208 44.7361 113.239 44.5283 113.261 44.3343C113.297 44.1486 113.32 43.9546 113.348 43.7828C113.376 43.611 113.404 43.4392 113.41 43.2729C113.449 42.9569 113.48 42.6549 113.508 42.3888C113.536 42.1227 113.548 41.8843 113.556 41.682C113.565 41.4796 113.571 41.3133 113.569 41.1608C113.561 40.8919 113.551 40.7533 113.509 40.7282C113.474 40.7253 113.413 40.8583 113.335 41.1131C113.297 41.2405 113.255 41.404 113.211 41.6035C113.166 41.8029 113.127 42.0246 113.05 42.2795C112.994 42.5288 112.914 42.8197 112.839 43.1328C112.797 43.2962 112.756 43.4597 112.714 43.6232C112.672 43.7866 112.622 43.9639 112.578 44.1634C112.528 44.3407 112.484 44.5402 112.426 44.7313C112.367 44.9224 112.315 45.1358 112.248 45.3407C112.182 45.5457 112.129 45.7591 112.068 45.9862C111.993 46.205 111.932 46.4322 111.849 46.6649C111.553 47.5983 111.185 48.6204 110.754 49.7171C110.646 49.9912 110.525 50.2571 110.409 50.5451C110.348 50.678 110.293 50.8331 110.232 50.966C110.163 51.1128 110.102 51.2457 110.033 51.3924C109.895 51.6859 109.779 51.9739 109.633 52.2813C109.495 52.5748 109.335 52.8738 109.188 53.1811C108.576 54.3938 107.859 55.6561 107.04 56.932C106.827 57.2558 106.623 57.5657 106.403 57.9034C106.177 58.2188 105.943 58.5481 105.717 58.8636C105.243 59.5 104.752 60.1641 104.215 60.7809C103.16 62.0451 101.935 63.2811 100.562 64.3893C99.1944 65.5196 97.6705 66.5358 95.9989 67.3299C94.3273 68.124 92.5079 68.6959 90.621 68.8491C89.6817 68.9187 88.7289 68.8857 87.7929 68.7308C87.5513 68.697 87.3263 68.6354 87.093 68.5877C86.9722 68.5707 86.8597 68.5399 86.7472 68.5092C86.6347 68.4784 86.5222 68.4476 86.3959 68.4084C86.1572 68.3385 85.9405 68.2631 85.71 68.1793C85.4878 68.0817 85.2574 67.998 85.0352 67.9004C83.266 67.1057 81.649 65.8374 80.3651 64.2622C79.7163 63.4704 79.1445 62.6123 78.6636 61.6962C78.1826 60.7801 77.7924 59.8061 77.4846 58.7879C76.8829 56.7598 76.6166 54.5773 76.6606 52.3762C76.675 52.1018 76.6675 51.8329 76.6902 51.5446C76.7046 51.2702 76.719 50.9958 76.7472 50.7297L76.7866 50.3196L76.8261 49.9094L76.8569 49.7015L76.8654 49.5934L76.8793 49.5075C76.8961 49.3856 76.9129 49.2637 76.9434 49.1501C77.0379 48.679 77.1765 48.197 77.3616 47.7623C77.5329 47.3191 77.7592 46.9094 78.0154 46.5746C78.2716 46.2398 78.5413 46.0077 78.7586 45.8946C78.863 45.8449 78.9592 45.8092 79.0526 45.8094C79.162 45.9705 79.2691 45.9791 79.3816 46.0099C79.4804 46.0323 79.5984 46.0853 79.7218 46.1604C79.8451 46.2356 79.9931 46.3635 80.1411 46.4914C80.2808 46.6332 80.4396 46.8055 80.5901 46.9916L80.8173 47.2999L80.935 47.4471C80.9816 47.4944 81.0061 47.5471 81.0444 47.6082C82.1771 49.28 82.8419 51.3277 83.0919 53.4436C83.2238 54.5057 83.254 55.5814 83.2183 56.6736C83.2039 56.948 83.1894 57.2224 83.1833 57.483C83.1551 57.749 83.1187 58.0289 83.1043 58.3034L83.0648 58.7136C83.0535 58.8577 83.0284 58.9935 83.0116 59.1154C82.9615 59.3869 82.9334 59.653 82.8833 59.9246C82.8776 59.9966 82.8582 60.0603 82.8525 60.1324L82.7807 60.3152L82.6918 60.7142L82.6029 61.1131C82.5778 61.2489 82.5528 61.3847 82.514 61.5121C82.4502 61.7753 82.3864 62.0385 82.3225 62.3017C82.2838 62.4291 82.2587 62.5649 82.2199 62.6923L82.1036 63.0746C82.0261 63.3295 81.9486 63.5843 81.8628 63.853C81.7852 64.1078 81.6857 64.3682 81.5945 64.6147L81.4864 64.9831C81.467 65.0468 81.4477 65.1105 81.4146 65.1659L81.3427 65.3487C81.2432 65.609 81.1519 65.8555 81.047 66.0936L80.9751 66.2764L80.9392 66.3678L80.9033 66.4592L80.7375 66.8303C80.6326 67.0684 80.5057 67.312 80.4007 67.5502C80.282 67.78 80.1551 68.0236 80.0364 68.2534C79.9178 68.4832 79.7908 68.7268 79.6585 68.9482C79.3855 69.405 79.1344 69.8562 78.8422 70.2824C78.6962 70.4954 78.5638 70.7169 78.4177 70.93C78.2716 71.1431 78.1118 71.3478 77.9658 71.5609C77.3677 72.4049 76.6957 73.1849 76.0265 73.9289C75.9466 74.0313 75.8613 74.1115 75.7677 74.2055C75.6741 74.2995 75.5888 74.3797 75.5089 74.482C75.3299 74.6562 75.1647 74.8388 74.9858 75.013C74.8068 75.1871 74.6142 75.353 74.4352 75.5272C74.2563 75.7014 74.0774 75.8756 73.8793 76.0192C73.117 76.6687 72.3438 77.2738 71.546 77.8262C70.74 78.3925 69.9177 78.8921 69.0816 79.3834C68.2538 79.8609 67.4069 80.3078 66.5491 80.7103C66.3402 80.8096 66.1312 80.9088 65.9003 81.0136C65.6913 81.1129 65.4687 81.2038 65.2597 81.303C64.8364 81.4794 64.413 81.6557 63.9897 81.832C63.8852 81.8816 63.7807 81.9313 63.6708 81.9587C63.5664 82.0083 63.4564 82.0358 63.352 82.0854C63.1376 82.1625 62.9232 82.2396 62.7225 82.325C62.5081 82.4021 62.2937 82.4791 62.0931 82.5645C61.8869 82.6278 61.6725 82.7048 61.4664 82.7681C61.2603 82.8313 61.0459 82.9084 60.8398 82.9716C60.7436 83.0074 60.6337 83.0348 60.5292 83.0845C60.433 83.1203 60.3231 83.1477 60.2132 83.1751C59.7873 83.2932 59.3833 83.4058 58.9711 83.5323L58.8172 83.5707L58.6633 83.6091C58.5534 83.6366 58.4655 83.6585 58.3556 83.686C58.1577 83.7353 57.9379 83.7902 57.74 83.8396C57.5422 83.889 57.3307 83.93 57.1328 83.9794C56.9213 84.0205 56.7317 84.056 56.5201 84.097C56.3223 84.1464 56.119 84.1736 55.9212 84.223C55.8195 84.2366 55.7233 84.2724 55.6217 84.286C55.5201 84.2996 55.4239 84.3354 55.3222 84.349C54.9294 84.4117 54.5365 84.4745 54.1437 84.5372C53.7508 84.6 53.3663 84.6489 52.9817 84.6978C52.8004 84.7195 52.5971 84.7467 52.4158 84.7684C52.2345 84.7901 52.0312 84.8173 51.8582 84.8252C51.4819 84.8603 51.1139 84.8815 50.7513 84.9249C50.6579 84.9247 50.57 84.9466 50.4766 84.9464C50.3833 84.9461 50.2954 84.9681 50.202 84.9678C50.029 84.9757 49.834 84.9891 49.6609 84.9969C49.3149 85.0127 48.9469 85.0339 48.6008 85.0497C48.263 85.0516 47.917 85.0673 47.5792 85.0692C46.9091 85.0952 46.2584 85.0574 45.6268 85.0503C43.1116 84.9717 40.9704 84.7056 39.2465 84.4294C39.027 84.3901 38.8211 84.359 38.6152 84.328C38.5164 84.3056 38.4093 84.297 38.3105 84.2745C38.2117 84.2521 38.1129 84.2297 38.0278 84.2156C37.6463 84.1342 37.306 84.0779 36.9739 84.0077C36.812 83.9657 36.6555 83.9459 36.5073 83.9123C36.3591 83.8786 36.2246 83.8533 36.0984 83.8142C35.8377 83.7497 35.5907 83.6937 35.393 83.6488C35.1817 83.5956 34.9841 83.5507 34.7728 83.4975C34.5615 83.4442 34.3722 83.3856 34.1609 83.3323C33.9495 83.2791 33.7602 83.2204 33.5489 83.1672L33.2471 83.0777C33.1483 83.0553 33.044 83.0106 32.9452 82.9882C32.5446 82.8763 32.1522 82.7505 31.7599 82.6247C31.5705 82.566 31.3675 82.499 31.1782 82.4403C30.9888 82.3816 30.7858 82.3145 30.6047 82.242C30.4154 82.1833 30.2261 82.1245 30.045 82.052C29.8557 81.9933 29.6746 81.9207 29.4936 81.8482C29.1232 81.7169 28.7611 81.5718 28.3907 81.4406C28.0286 81.2955 27.6802 81.1588 27.3181 81.0137L26.7886 80.8044C26.6075 80.7318 26.4485 80.6538 26.2811 80.5896C23.549 79.4348 21.1685 78.1922 19.2107 77.0561C19.0873 76.9809 18.9557 76.9196 18.846 76.8528C18.7226 76.7776 18.613 76.7108 18.4896 76.6356C18.2702 76.502 18.0372 76.36 17.8096 76.2402C17.3626 75.9868 16.9596 75.7224 16.562 75.4801C16.3701 75.3632 16.1782 75.2463 16 75.1377C15.904 75.0792 15.8217 75.0291 15.7395 74.979C15.6572 74.9289 15.575 74.8788 15.479 74.8203C15.15 74.6199 14.8347 74.4278 14.5522 74.2746C14.4837 74.2328 14.4151 74.1911 14.3383 74.1631C14.2698 74.1214 14.2149 74.088 14.1464 74.0462C14.023 73.971 13.8914 73.9097 13.7817 73.8429C13.5541 73.7231 13.3456 73.6338 13.1782 73.5696C12.8078 73.4384 12.558 73.4183 12.4561 73.5262Z" fill="white"/>
<path d="M21.8851 82.8783C22.7351 83.3961 23.6153 83.8946 24.534 84.36C24.5889 84.3934 24.6657 84.4213 24.7206 84.4547C24.8302 84.5215 24.9619 84.5828 25.0798 84.6358L25.6339 84.8978C25.7381 84.9425 25.856 84.9954 25.952 85.0539C26.2153 85.1766 26.4923 85.3076 26.7557 85.4302C27.1452 85.592 27.5347 85.7538 27.9242 85.9156C28.0011 85.9436 28.0696 85.9853 28.1464 86.0132C28.2781 86.0746 28.418 86.122 28.536 86.175C28.739 86.2421 28.9475 86.3313 29.1505 86.3984C29.3179 86.4626 29.4852 86.5268 29.6526 86.591L29.7568 86.6356C29.8062 86.6468 29.8336 86.6635 29.883 86.6747C30.0504 86.7389 30.2177 86.8031 30.3933 86.8535L30.9119 87.0184C31.1644 87.0967 31.4305 87.1833 31.6829 87.2616C31.7186 87.2645 31.7598 87.2895 31.7954 87.2924C31.8586 87.3119 31.9354 87.3399 32.0122 87.3678L32.3277 87.4656C32.5391 87.5188 32.7421 87.5859 32.9671 87.6475L32.9945 87.6642C33.2196 87.7257 33.4446 87.7873 33.6559 87.8405C33.8041 87.8742 33.9523 87.9078 34.1005 87.9415C34.1773 87.9694 34.2487 87.9751 34.3338 87.9892L35.1022 88.1742C35.201 88.1966 35.2998 88.219 35.4123 88.2498L35.5605 88.2835C35.6593 88.3059 35.7801 88.3229 35.8789 88.3453C35.942 88.3649 35.9997 88.3622 36.0628 88.3818C36.2687 88.4128 36.48 88.4661 36.7133 88.5138L37.2156 88.6121C37.2513 88.615 37.287 88.6178 37.3281 88.6429C37.3912 88.6625 37.4626 88.6682 37.534 88.6739C37.641 88.6825 37.7536 88.7133 37.8606 88.7219C38.0802 88.7613 38.3081 88.7868 38.5414 88.8345C39.6201 89.0009 40.6441 89.1338 41.7066 89.2336C42.9695 89.3422 44.249 89.4231 45.5038 89.4513C45.6329 89.4544 45.7619 89.4576 45.8993 89.4468C46.4595 89.4483 47.0334 89.4581 47.6238 89.4402L47.9973 89.4412C48.2417 89.439 48.4944 89.423 48.7388 89.4209C49.0491 89.4023 49.3595 89.3837 49.6698 89.3651L49.8868 89.3462C49.9802 89.3465 50.0818 89.3329 50.1752 89.3331C50.2685 89.3334 50.3702 89.3198 50.4636 89.32C50.5569 89.3202 50.6586 89.3066 50.7602 89.293C50.8618 89.2794 50.9552 89.2797 51.0568 89.2661L51.4277 89.2088C51.7024 89.1874 51.9853 89.1521 52.26 89.1306C52.4193 89.1144 52.5786 89.0981 52.7462 89.0681C52.7901 89.0571 52.8258 89.06 52.8698 89.049C52.9494 89.0409 53.0511 89.0273 53.1307 89.0192C53.2544 89.0001 53.378 88.981 53.5016 88.9619C53.6032 88.9483 53.7049 88.9347 53.8148 88.9073C54.1197 88.8665 54.4466 88.8202 54.7598 88.7656C55.007 88.7274 55.2626 88.6754 55.5098 88.6372L56.0482 88.5499C56.1499 88.5363 56.2515 88.5227 56.3697 88.4814C56.4796 88.454 56.5813 88.4404 56.6912 88.413C56.7791 88.391 56.8808 88.3774 56.9687 88.3554C57.1006 88.3225 57.2242 88.3034 57.3561 88.2705L58.021 88.1281C58.1749 88.0897 58.337 88.0374 58.5046 88.0073L58.6805 87.9634L59.3482 87.785C59.4581 87.7575 59.568 87.7301 59.6862 87.6888L59.8621 87.6449L60.0242 87.5927L60.2523 87.5239C60.6206 87.4085 61.0026 87.3013 61.3928 87.1803C61.4368 87.1694 61.4808 87.1584 61.511 87.1391C61.577 87.1226 61.6649 87.1007 61.7391 87.0703L61.827 87.0484C61.915 87.0265 61.9892 86.9961 62.0854 86.9604L62.253 86.9303C62.4234 86.8642 62.5993 86.8203 62.7697 86.7542C63.0061 86.6717 63.2341 86.6029 63.4568 86.512L63.553 86.4762C63.7454 86.4046 63.9461 86.3192 64.1522 86.256L64.4408 86.1486C64.581 86.1019 64.7157 86.0329 64.8559 85.9861L65.1967 85.854C65.271 85.8237 65.3452 85.7933 65.4194 85.763C65.4634 85.7521 65.4936 85.7327 65.5459 85.7079C65.7905 85.6115 66.0297 85.493 66.2744 85.3966C66.497 85.3056 66.728 85.2009 66.9369 85.1016L67.638 84.7735C67.7727 84.7046 67.8992 84.6495 68.0339 84.5805C68.1384 84.5309 68.2209 84.4867 68.3254 84.4371C69.2822 83.9627 70.2199 83.4578 71.0945 82.9334C72.0241 82.3481 72.9483 81.7406 73.8012 81.1273C74.7228 80.4616 75.5978 79.7486 76.4235 79.0244C76.6079 78.8724 76.7868 78.6982 76.9658 78.524C77.0043 78.4909 77.0208 78.4632 77.0594 78.43C77.2685 78.2365 77.4557 78.0485 77.6649 77.855L77.6815 77.8273C77.8054 77.7139 77.9458 77.5729 78.0642 77.4374C78.1275 77.3627 78.2046 77.2963 78.2679 77.2216L78.4083 77.0806C78.4634 77.0198 78.5185 76.9589 78.5653 76.9119C78.5956 76.8926 78.6204 76.8511 78.6506 76.8318C78.714 76.7571 78.7993 76.6769 78.8627 76.6022C79.7798 75.5372 80.4492 74.699 81.0336 73.8466C81.0832 73.7636 81.1465 73.6889 81.1962 73.6059C81.3092 73.4482 81.4304 73.2766 81.5297 73.1105L82.0204 72.3522C82.2575 71.9868 82.4755 71.591 82.6906 71.2312C82.7733 71.0928 82.8423 70.946 82.9168 70.8215C83.0243 70.6415 83.1265 70.4394 83.2203 70.2511C83.2534 70.1958 83.2811 70.1182 83.3224 70.049C83.572 70.1633 83.8353 70.286 84.0849 70.4003C85.1493 70.8411 86.2881 71.1573 87.4548 71.3017C88.5776 71.4571 89.7117 71.4683 90.8488 71.3493C91.3844 71.298 91.9312 71.1968 92.4862 71.0818C92.9972 70.9778 93.5193 70.8239 94.0497 70.6562C95.0226 70.3426 95.9958 69.9349 96.9472 69.4383C97.8161 68.9859 98.6907 68.4614 99.5352 67.862C100.303 67.329 101.084 66.71 101.833 66.0521C103.206 64.8498 104.462 63.5001 105.589 62.0532C105.693 61.9093 105.803 61.7876 105.908 61.6437C105.933 61.6022 105.972 61.569 105.996 61.5275L106.038 61.4583C106.093 61.3974 106.134 61.3283 106.189 61.2674C106.247 61.1705 106.31 61.0958 106.368 60.999C106.473 60.8551 106.586 60.6973 106.677 60.5451L106.718 60.4759C106.743 60.4344 106.768 60.3929 106.807 60.3597C106.903 60.2296 106.986 60.0912 107.082 59.9612C107.148 59.8505 107.237 59.7343 107.303 59.6236C107.457 59.3966 107.598 59.1613 107.752 58.9344L108.373 57.8964C109.112 56.6286 109.799 55.2914 110.418 53.9124C110.55 53.5967 110.691 53.2672 110.824 52.9515C110.912 52.7411 110.992 52.5444 111.059 52.3394C111.103 52.2342 111.147 52.129 111.191 52.0238L111.371 51.5668L111.387 51.5391C111.435 51.3979 111.482 51.2566 111.542 51.1237L111.634 50.8772C111.708 50.6584 111.775 50.4534 111.855 50.2568C112.273 48.9632 112.561 47.9493 112.753 47.0654C112.778 46.9297 112.816 46.8022 112.842 46.6665L112.916 46.3534C112.95 46.2038 112.978 46.032 113.003 45.8962C113.022 45.8325 113.028 45.7604 113.042 45.6745L113.156 45.0455C113.181 44.9097 113.206 44.7739 113.231 44.6382C113.237 44.5661 113.248 44.5162 113.254 44.4442C113.279 44.3084 113.295 44.1865 113.312 44.0645L113.34 43.8927C113.368 43.7209 113.396 43.5491 113.402 43.3828C113.441 43.0669 113.472 42.7647 113.5 42.4987C113.534 42.2548 113.537 42.0303 113.538 41.8418L113.549 41.7919C113.557 41.5895 113.563 41.4232 113.561 41.2707C113.567 41.0102 113.543 40.8632 113.515 40.8465C113.48 40.8436 113.419 40.9765 113.341 41.2313C113.303 41.3588 113.261 41.5222 113.217 41.7217C113.197 41.7854 113.191 41.8575 113.164 41.9351C113.139 42.0708 113.097 42.2343 113.056 42.3977C113 42.6471 112.92 42.938 112.845 43.2511C112.811 43.4007 112.77 43.5641 112.72 43.7414C112.678 43.9049 112.628 44.0822 112.584 44.2817C112.565 44.3454 112.545 44.4091 112.531 44.495C112.501 44.6086 112.462 44.736 112.445 44.8579L112.384 45.0851C112.345 45.2125 112.307 45.3399 112.268 45.4674C112.24 45.5449 112.226 45.6308 112.199 45.7084C112.16 45.8358 112.135 45.9716 112.088 46.1129L111.869 46.7915C111.617 47.6197 111.277 48.5642 110.774 49.8437C110.666 50.1179 110.545 50.3837 110.429 50.6717C110.368 50.8046 110.315 50.9237 110.268 51.0649L110.243 51.1065L110.045 51.5329C110.028 51.6548 109.97 51.7517 109.926 51.8569C109.84 52.0313 109.76 52.228 109.666 52.4162C109.528 52.7097 109.368 53.0087 109.222 53.3161C108.551 54.6256 107.834 55.8879 107.073 57.0669L106.436 58.0384C106.298 58.2376 106.161 58.4368 106.009 58.6277C105.921 58.7439 105.825 58.874 105.75 58.9986C105.284 59.6211 104.794 60.2852 104.249 60.9158C103.139 62.2409 101.908 63.4547 100.587 64.5381C99.8799 65.1267 99.1481 65.6626 98.422 66.1265C97.6271 66.6429 96.8295 67.101 96.024 67.4787C94.1957 68.3472 92.3957 68.8555 90.6461 68.9979C89.6848 69.073 88.7403 69.0262 87.818 68.8797C87.6615 68.8598 87.4996 68.8179 87.3294 68.7897C87.2663 68.7701 87.1812 68.756 87.1098 68.7503C87.011 68.7279 86.9122 68.7054 86.8217 68.6692C86.808 68.6608 86.786 68.6663 86.7585 68.6496L86.6103 68.616C86.5472 68.5964 86.4841 68.5768 86.4127 68.5711C86.2728 68.5236 86.1329 68.4761 86.0067 68.437C85.9161 68.4007 85.8173 68.3783 85.7268 68.342L85.65 68.3141C85.4552 68.2332 85.2605 68.1523 85.052 68.063C84.8298 67.9654 84.6022 67.8456 84.3746 67.7258L84.4464 67.543L84.5183 67.3603C84.6067 67.1498 84.6897 66.9171 84.7781 66.7067L84.8665 66.4962C84.8776 66.4463 84.9024 66.4048 84.9135 66.3549C84.9301 66.3273 84.9246 66.3051 84.9412 66.2774L85.0906 65.8398C85.1265 65.7484 85.157 65.6348 85.1929 65.5434C85.2511 65.3523 85.3229 65.1695 85.3811 64.9784L85.6305 64.0919L85.7662 63.6459C85.7884 63.5461 85.8106 63.4464 85.8328 63.3466C85.844 63.2968 85.8551 63.2469 85.8662 63.197L85.9522 62.8341C86.0021 62.6568 86.03 62.485 86.0799 62.3077C86.1104 62.1941 86.1272 62.0722 86.1494 61.9724C86.1522 61.9364 86.155 61.9004 86.1662 61.8505L86.2524 61.3933L86.3778 60.7144C86.3889 60.6645 86.4 60.6147 86.3974 60.5565C86.3919 60.5343 86.4085 60.5066 86.4113 60.4705C86.4506 60.1546 86.4952 59.8609 86.5345 59.5449C86.5456 59.495 86.543 59.4368 86.5541 59.3869C86.5763 59.2872 86.5766 59.1929 86.5851 59.0848L86.622 58.6164C86.6307 58.4141 86.6615 58.2062 86.6785 57.9901L86.6957 57.6796C86.696 57.5853 86.6962 57.4911 86.7102 57.4052C86.7272 57.189 86.7305 56.9644 86.7338 56.7399C86.7409 56.1023 86.7343 55.4564 86.7029 54.8519C86.6743 54.2115 86.6101 53.5681 86.5155 52.9441C86.4239 52.2841 86.3019 51.6434 86.1551 51.0442C85.9975 50.4006 85.8179 49.7625 85.5915 49.1714C85.1114 47.8783 84.4938 46.6902 83.7578 45.6376C83.7058 45.5682 83.6538 45.4988 83.6155 45.4377L83.4595 45.2293C83.4267 45.1904 83.3938 45.1515 83.3747 45.121C83.3035 45.021 83.2241 44.9349 83.153 44.8349C82.8764 44.5154 82.6519 44.2653 82.4108 44.0429C82.1094 43.7649 81.7969 43.5367 81.4953 43.353C81.4816 43.3446 81.4542 43.3279 81.4405 43.3196C81.0429 43.0774 80.604 42.9044 80.1594 42.8034C79.6791 42.6996 79.1931 42.6678 78.7289 42.7249C78.2647 42.7819 77.7865 42.9248 77.3658 43.1593C76.9918 43.3469 76.6259 43.6149 76.2929 43.9217C76.0203 44.1899 75.7532 44.4803 75.5107 44.8235C75.1138 45.3935 74.7772 46.0192 74.498 46.7364C74.252 47.3984 74.0718 48.0439 73.9602 48.7311C73.9295 48.9389 73.9099 49.0969 73.8765 49.2465L73.8597 49.3685L73.8259 49.7066L73.7754 50.1666L73.7467 50.6212C73.7493 50.6795 73.7382 50.7293 73.7408 50.7875C73.7406 50.8818 73.7321 50.9899 73.7236 51.098L73.7087 51.5609C73.6916 51.7771 73.6966 51.9878 73.7015 52.1985C73.7013 52.2928 73.7011 52.387 73.7008 52.4813C73.7032 53.7288 73.7989 54.9766 73.977 56.1802C74.1661 57.4282 74.4514 58.6404 74.822 59.7725C75.0562 60.5382 75.3563 61.2875 75.7087 62.012C75.37 61.2958 75.0782 60.5327 74.822 59.7725C74.4514 58.6404 74.1661 57.4282 73.977 56.1802C73.7989 54.9766 73.7032 53.7288 73.7008 52.4813C73.7011 52.387 73.7013 52.2928 73.7015 52.1985C73.6966 51.9878 73.6999 51.7633 73.7087 51.5609L73.7236 51.098C73.7238 51.0037 73.7323 50.8956 73.7408 50.7875C73.7382 50.7293 73.7493 50.6795 73.7467 50.6212L73.7754 50.1666L73.8597 49.3685L73.8765 49.2465C73.8879 49.1024 73.9158 48.9306 73.9602 48.7311C74.0855 48.0522 74.252 47.3984 74.498 46.7364C74.7772 46.0192 75.0864 45.3768 75.497 44.8151C75.7395 44.472 75.9929 44.1732 76.2791 43.9134C76.6122 43.6065 76.9698 43.3524 77.3383 43.1426C77.7728 42.9164 78.2373 42.7652 78.7015 42.7081C79.1657 42.6511 79.638 42.6745 80.132 42.7867C80.5766 42.8876 81.0155 43.0607 81.4131 43.3029C81.7421 43.5033 82.082 43.7482 82.4108 44.0429C82.6519 44.2653 82.8901 44.5237 83.153 44.8349C83.2241 44.9349 83.3035 45.021 83.3747 45.121C83.3938 45.1515 83.4267 45.1904 83.4595 45.2293L83.6155 45.4377C83.6675 45.5071 83.7058 45.5682 83.7441 45.6293C84.5021 46.6764 85.1251 47.8867 85.5915 49.1714C85.8179 49.7625 85.9975 50.4006 86.1551 51.0442C86.3019 51.6434 86.4239 52.2841 86.5155 52.9441C86.5964 53.5598 86.6606 54.2031 86.7029 54.8519C86.7343 55.4564 86.7409 56.1023 86.7338 56.7399C86.7305 56.9644 86.7135 57.1807 86.7102 57.4052C86.6962 57.4911 86.696 57.5853 86.6957 57.6796L86.6785 57.9901C86.6697 58.1924 86.6253 58.3919 86.6165 58.5943L86.5797 59.0627C86.5711 59.1708 86.5572 59.2567 86.5487 59.3648C86.5376 59.4146 86.5402 59.4729 86.5291 59.5227C86.4981 59.8248 86.4451 60.1324 86.4059 60.4483C86.4113 60.4705 86.3948 60.4982 86.3919 60.5342C86.3808 60.5841 86.3834 60.6423 86.3723 60.6922L86.3333 60.9139L86.247 61.3711L86.1662 61.8505C86.155 61.9004 86.1522 61.9364 86.1494 61.9724C86.1189 62.086 86.1104 62.1941 86.0799 62.3077C86.03 62.485 86.0021 62.6568 85.9522 62.8341L85.8662 63.197C85.8551 63.2469 85.844 63.2968 85.8328 63.3466C85.8106 63.4464 85.7884 63.5461 85.7662 63.6459L85.6388 64.078L85.3894 64.9645C85.3312 65.1556 85.2648 65.3606 85.1929 65.5434C85.157 65.6348 85.1265 65.7484 85.0906 65.8398L84.9412 66.2774C84.9246 66.3051 84.9301 66.3273 84.9135 66.3549C84.9024 66.4048 84.8859 66.4325 84.8748 66.4824L84.7863 66.6928C84.6979 66.9033 84.6067 67.1498 84.5183 67.3603L84.4464 67.543L84.3746 67.7258C83.2776 67.1519 82.2416 66.3508 81.3158 65.428L81.3434 65.3505L81.4153 65.1677C81.4401 65.1262 81.443 65.0901 81.4541 65.0403C81.4623 65.0264 81.4652 64.9904 81.4734 64.9766L81.6035 64.6026C81.6394 64.5112 81.6753 64.4199 81.6975 64.3201C81.7529 64.165 81.8164 63.9961 81.8718 63.841L81.8746 63.8049C81.9521 63.5501 82.0214 63.3091 82.0907 63.0681L82.207 62.6858C82.2346 62.6082 82.2486 62.5223 82.2625 62.4364C82.2736 62.3866 82.2847 62.3367 82.2959 62.2868L82.3486 62.0735C82.393 61.874 82.4512 61.6829 82.4873 61.4972C82.5096 61.3975 82.5318 61.2977 82.554 61.198C82.5568 61.1619 82.5734 61.1343 82.5762 61.0982L82.6651 60.6993L82.7847 60.0924C82.7958 60.0426 82.7987 60.0066 82.8098 59.9567C82.8043 59.9345 82.8209 59.9068 82.8155 59.8846L82.9438 59.0754C82.9549 59.0256 82.9661 58.9757 82.9689 58.9397C82.9828 58.8538 82.9968 58.7679 83.0107 58.682L83.0502 58.2718C83.0784 58.0057 83.1148 57.7258 83.1292 57.4514C83.1294 57.3571 83.1434 57.2712 83.1519 57.1631C83.1578 56.9968 83.172 56.8166 83.1862 56.6365C83.2165 55.5221 83.1945 54.4326 83.0598 53.4065C82.9308 52.3083 82.7027 51.282 82.3756 50.3275C82.0239 49.3203 81.5732 48.3848 81.026 47.5795C81.0014 47.5267 80.9549 47.4795 80.9166 47.4184L80.7989 47.2712L80.5718 46.9628C80.402 46.7462 80.2569 46.5822 80.1227 46.4627C79.9693 46.3126 79.8267 46.2069 79.7034 46.1317C79.6896 46.1234 79.6759 46.115 79.6759 46.115C79.58 46.0565 79.4757 46.0119 79.3632 45.9811C79.2507 45.9503 79.1436 45.9417 79.042 45.9553C78.9404 45.9689 78.8524 45.9909 78.748 46.0405C78.517 46.1453 78.239 46.3913 78.0048 46.7206C77.7568 47.0415 77.5306 47.4512 77.351 47.9082C77.1713 48.3651 77.0191 48.8388 76.9328 49.296C76.9106 49.3958 76.8855 49.5315 76.8687 49.6535L76.8548 49.7394L76.8238 50.0415L76.8035 50.4822L76.764 50.8924C76.7441 51.1446 76.716 51.4107 76.7181 51.6574L76.7207 51.7156C76.7065 51.8958 76.706 52.0843 76.7056 52.2728C76.7053 52.3671 76.7051 52.4613 76.6994 52.5334C76.6774 53.6339 76.7267 54.7402 76.8669 55.7885C77.0042 56.8728 77.2294 57.9351 77.5317 58.9312C77.8366 59.9854 78.2405 60.9678 78.7106 61.8395C79.1916 62.7556 79.7634 63.6137 80.4122 64.4055C80.7079 64.7556 81.0255 65.1002 81.3378 65.4225L81.0477 66.0955L80.9399 66.3696L80.7246 66.8237L80.3877 67.5436C80.3187 67.6904 80.2443 67.8149 80.1752 67.9617C80.1173 68.0586 80.0814 68.15 80.0235 68.2468C79.9821 68.316 79.9544 68.3936 79.9131 68.4628C79.8358 68.6234 79.7365 68.7895 79.6455 68.9417C79.5628 69.0801 79.4883 69.2047 79.4138 69.3292C79.2236 69.6475 79.047 69.9742 78.8293 70.2758L78.4047 70.9234C78.3083 71.0535 78.2119 71.1835 78.1154 71.3136C78.0521 71.3883 78.0024 71.4713 77.9391 71.546C77.286 72.4508 76.5589 73.2917 75.9998 73.914C75.9365 73.9887 75.8814 74.0496 75.8126 74.1021C75.7824 74.1214 75.7658 74.1491 75.7273 74.1822C75.642 74.2624 75.5703 74.3509 75.485 74.4311L75.4685 74.4588C75.4051 74.5335 75.3363 74.586 75.273 74.6607C75.1628 74.7824 75.0472 74.8819 74.9371 75.0036C74.7582 75.1778 74.5655 75.3436 74.3866 75.5178C74.348 75.551 74.3178 75.5703 74.293 75.6118C74.1526 75.7528 73.9985 75.8855 73.8443 76.0181C73.1123 76.6483 72.3171 77.2589 71.5111 77.8252C70.7353 78.3721 69.9047 78.8856 69.0467 79.3824C68.2491 79.8405 67.4022 80.2874 66.5142 80.7093L65.8653 81.0126C65.6564 81.1118 65.4557 81.1972 65.2467 81.2965L65.2248 81.302C64.9196 81.437 64.6227 81.5582 64.3258 81.6795L63.9547 81.831C63.9108 81.8419 63.8805 81.8613 63.8503 81.8806C63.7761 81.9109 63.7238 81.9357 63.6496 81.966L63.5314 82.0073C63.4655 82.0238 63.3912 82.0541 63.339 82.0789L62.7095 82.3184C62.5831 82.3736 62.4429 82.4203 62.3164 82.4754L62.0801 82.558C61.9179 82.6102 61.7558 82.6625 61.5936 82.7148L61.4315 82.767C61.2254 82.8302 61.011 82.9073 60.8049 82.9705C60.7169 82.9925 60.6427 83.0228 60.5548 83.0448L60.4888 83.0612C60.4229 83.0777 60.3569 83.0941 60.2827 83.1244C60.2387 83.1354 60.2085 83.1547 60.1728 83.1519C59.7469 83.27 59.3346 83.3964 58.9307 83.5091L58.7768 83.5475L58.6229 83.5859C58.513 83.6133 58.4251 83.6353 58.3152 83.6627C58.1613 83.7011 58.0074 83.7395 57.8398 83.7696L57.4881 83.8574C57.3562 83.8903 57.2243 83.9233 57.0787 83.9478L56.8232 83.9998C56.6996 84.0189 56.5897 84.0464 56.4661 84.0654C56.2682 84.1148 56.0649 84.142 55.8671 84.1914L55.5676 84.2544C55.4577 84.2819 55.3561 84.2955 55.2764 84.3036C55.0511 84.3363 54.8176 84.3828 54.5923 84.4155L54.0979 84.4918C53.8066 84.541 53.5237 84.5763 53.2408 84.6116C53.1391 84.6252 53.0375 84.6388 52.9359 84.6524C52.7985 84.6631 52.6749 84.6822 52.5293 84.7068L52.37 84.723C52.326 84.734 52.2903 84.7311 52.2464 84.7421C52.1008 84.7666 51.9497 84.769 51.8041 84.7936L51.7025 84.8072C51.3619 84.8451 51.0295 84.8692 50.6972 84.8933C50.6395 84.8959 50.5956 84.9069 50.5379 84.9095L50.4225 84.9148C50.3209 84.9284 50.2413 84.9365 50.1479 84.9362C49.9749 84.9441 49.7799 84.9575 49.6068 84.9653L49.5492 84.968C49.2031 84.9837 48.8708 85.0078 48.5467 85.0181L48.1733 85.0171C47.9508 85.0137 47.7421 85.0187 47.5197 85.0154C46.9869 85.0307 46.4707 85.0182 45.9765 85.0003C45.8474 84.9972 45.7046 84.9858 45.5673 84.9965C43.4393 84.9272 41.35 84.7305 39.187 84.3757L38.5557 84.2742C38.4569 84.2518 38.3498 84.2432 38.2647 84.2291C38.1933 84.2234 38.1439 84.2121 38.0808 84.1926C38.0451 84.1897 38.0177 84.173 37.982 84.1702C37.6005 84.0888 37.2602 84.0324 36.9281 83.9623C36.865 83.9427 36.8073 83.9453 36.7579 83.9341C36.6591 83.9117 36.5603 83.8892 36.4752 83.8752C36.3764 83.8527 36.2913 83.8387 36.2145 83.8107L36.0663 83.7771L35.833 83.7294C35.6573 83.679 35.5009 83.6592 35.3609 83.6117C35.2758 83.5976 35.2127 83.578 35.1276 83.564C34.9932 83.5387 34.8669 83.4995 34.7324 83.4742C34.6336 83.4518 34.5348 83.4294 34.4306 83.3847C34.3318 83.3623 34.2193 83.3315 34.1205 83.3091C33.9229 83.2642 33.7198 83.1972 33.5222 83.1523L33.2204 83.0628C33.1573 83.0432 33.0942 83.0237 33.0311 83.0041C32.9954 83.0012 32.9542 82.9762 32.9186 82.9733L32.7567 82.9313C32.4191 82.8389 32.0762 82.7244 31.7386 82.632C31.5904 82.5984 31.4368 82.5425 31.2969 82.4951C31.2475 82.4838 31.2063 82.4588 31.1569 82.4476C30.9676 82.3889 30.7645 82.3218 30.5752 82.2631C30.4627 82.2323 30.3585 82.1877 30.246 82.1569L29.9935 82.0786C29.8673 82.0395 29.7631 81.9949 29.6368 81.9557C29.5737 81.9362 29.4969 81.9082 29.4338 81.8887L28.9235 81.7099C28.7205 81.6428 28.5257 81.562 28.3226 81.4949C28.1142 81.4057 27.8974 81.3302 27.7027 81.2493C27.549 81.1935 27.4037 81.1238 27.25 81.068L26.7206 80.8587C26.6163 80.8141 26.4984 80.7611 26.3941 80.7165C26.3393 80.6831 26.2762 80.6635 26.1994 80.6356C24.9348 80.0917 23.6457 79.4951 22.3814 78.857C21.2898 78.3053 20.2011 77.7175 19.129 77.1021C19.0879 77.077 19.033 77.0436 18.9919 77.0185C18.9233 76.9768 18.8548 76.935 18.7863 76.8932C18.6766 76.8264 18.5395 76.7429 18.4298 76.6761C18.2242 76.5508 18.0323 76.4339 17.8183 76.3224L17.7498 76.2807C17.4673 76.1275 17.2151 75.9549 16.9684 75.8046C16.8039 75.7044 16.6668 75.6208 16.516 75.529C16.3241 75.412 16.1321 75.2951 15.9539 75.1865C15.8717 75.1364 15.7894 75.0863 15.7071 75.0362L15.6797 75.0195C15.5975 74.9694 15.5152 74.9193 15.4192 74.8608C15.0902 74.6603 14.7749 74.4683 14.4925 74.315L14.2785 74.2036L14.0866 74.0867C13.9632 74.0115 13.8316 73.9502 13.7219 73.8833C13.4943 73.7635 13.2858 73.6743 13.1185 73.6101C12.7701 73.4734 12.5339 73.4617 12.4238 73.5834C12.3219 73.6912 12.346 73.9325 12.4989 74.2711C12.5781 74.4515 12.6847 74.6486 12.8187 74.8624C12.8816 74.9762 12.9582 75.0984 13.0485 75.2289L13.177 75.4205C13.2153 75.4816 13.2756 75.5372 13.3139 75.5983L13.3276 75.6067C13.5356 75.8844 13.7793 76.1651 14.0338 76.4901L14.0858 76.5595C14.1461 76.6151 14.1844 76.6762 14.2364 76.7456C14.3021 76.8234 14.3815 76.9096 14.4609 76.9957C14.6198 77.168 14.7869 77.3265 14.9457 77.4988C15.006 77.5544 15.0717 77.6322 15.132 77.6878C15.4251 77.9796 15.7099 78.2853 16.0387 78.58C16.2469 78.7635 16.4469 78.9608 16.6688 79.1527L16.7839 79.2417C16.8579 79.3057 16.9319 79.3696 17.0058 79.4336C17.0798 79.4976 17.1538 79.5615 17.2278 79.6254C17.2689 79.6505 17.3018 79.6894 17.3429 79.7145C18.3129 80.532 19.3929 81.3221 20.5251 82.0874C20.994 82.3354 21.4327 82.6026 21.8851 82.8783ZM83.3224 70.049C83.2811 70.1182 83.2534 70.1958 83.2203 70.2511C83.1265 70.4394 83.0326 70.6277 82.9168 70.8215C82.834 70.9598 82.7513 71.0982 82.6906 71.2312C82.4809 71.6132 82.2712 71.9952 82.0204 72.3522L81.5517 73.105C81.4387 73.2627 81.3174 73.4343 81.2182 73.6004C81.1685 73.6834 81.1052 73.7581 81.0555 73.8412C80.4712 74.6935 79.8018 75.5318 78.8846 76.5967C78.813 76.6852 78.7497 76.7599 78.6726 76.8263C78.6424 76.8456 78.6175 76.8871 78.5873 76.9065C78.5322 76.9673 78.4854 77.0143 78.4303 77.0752L78.2899 77.2162C78.2266 77.2909 78.1495 77.3572 78.0862 77.4319C77.9677 77.5674 77.8136 77.7001 77.6815 77.8273L77.6649 77.855C77.4557 78.0485 77.2823 78.2448 77.0731 78.4384C77.0345 78.4715 77.0043 78.4909 76.9658 78.524C76.7951 78.6844 76.6299 78.8669 76.4455 79.0189C75.6116 79.757 74.7365 80.4699 73.8232 81.1218C72.962 81.7489 72.0461 82.3426 71.089 82.9112C70.2144 83.4357 69.2905 83.9489 68.3254 84.4371C68.2209 84.4867 68.1384 84.5309 68.0339 84.5805C67.8992 84.6495 67.7645 84.7184 67.638 84.7735L66.9232 85.0933C66.7005 85.1842 66.4833 85.2973 66.2744 85.3966C66.0297 85.493 65.7905 85.6115 65.5459 85.7079C65.4936 85.7327 65.4634 85.7521 65.4194 85.763C65.3452 85.7933 65.2572 85.8153 65.183 85.8456L64.8559 85.9861C64.7157 86.0329 64.5893 86.088 64.4408 86.1486L64.1385 86.2476C63.9378 86.3331 63.7591 86.413 63.553 86.4762L63.4568 86.512C63.2204 86.5946 62.9923 86.6633 62.7697 86.7542C62.5993 86.8203 62.4234 86.8642 62.253 86.9303L62.0688 86.988C61.9809 87.01 61.9067 87.0403 61.8105 87.0761L61.7226 87.098C61.6483 87.1283 61.5824 87.1448 61.4945 87.1668C61.4505 87.1777 61.4065 87.1887 61.3763 87.208C60.9943 87.3152 60.6343 87.4168 60.2523 87.5239L60.0242 87.5927L59.8538 87.6588L59.6862 87.6888C59.5763 87.7163 59.4581 87.7575 59.3482 87.785L58.6805 87.9634L58.5046 88.0073C58.3507 88.0458 58.1749 88.0897 58.021 88.1281L57.3561 88.2705C57.2242 88.3034 57.1006 88.3225 56.9687 88.3554C56.8808 88.3774 56.7791 88.391 56.6912 88.413C56.5813 88.4404 56.4796 88.454 56.3697 88.4814C56.2461 88.5005 56.1362 88.528 56.0482 88.5499L55.5098 88.6372C55.2626 88.6754 55.007 88.7274 54.7598 88.7656C54.4466 88.8202 54.1197 88.8665 53.8148 88.9073C53.7132 88.9209 53.6115 88.9345 53.5099 88.9481C53.3863 88.9672 53.2709 88.9724 53.1473 88.9915C53.0676 88.9996 52.966 89.0132 52.8863 89.0213C52.8424 89.0323 52.8067 89.0294 52.7627 89.0404C52.6034 89.0566 52.4358 89.0867 52.2765 89.1029C52.0018 89.1244 51.7189 89.1597 51.4443 89.1812L51.068 89.2162C50.9663 89.2298 50.8729 89.2296 50.7713 89.2432C50.6697 89.2568 50.568 89.2704 50.4747 89.2702C50.3813 89.2699 50.2797 89.2835 50.178 89.2971C50.0846 89.2969 49.983 89.3105 49.8896 89.3102L49.6727 89.3291C49.3623 89.3477 49.052 89.3663 48.7416 89.3849C48.4972 89.387 48.2445 89.403 48.0001 89.4051L47.6184 89.418C47.0279 89.4359 46.454 89.4261 45.8938 89.4246C45.7648 89.4215 45.6357 89.4184 45.5067 89.4153C44.2435 89.401 42.964 89.32 41.7094 89.1976C40.6606 89.1062 39.623 88.9649 38.5442 88.7985C38.3026 88.7646 38.083 88.7252 37.8635 88.6859C37.7564 88.6773 37.6439 88.6465 37.5368 88.6379C37.4654 88.6322 37.4023 88.6126 37.3309 88.6069C37.2952 88.604 37.2595 88.6011 37.2184 88.5761L36.7161 88.4777C36.4828 88.43 36.277 88.399 36.0657 88.3458C36.0025 88.3262 35.9449 88.3288 35.8818 88.3092C35.761 88.2923 35.6622 88.2699 35.5634 88.2474L35.4152 88.2138C35.3027 88.183 35.2039 88.1606 35.1051 88.1381L34.3366 87.9532C34.2598 87.9252 34.1747 87.9112 34.1033 87.9055C33.9551 87.8718 33.8069 87.8381 33.667 87.7907C33.442 87.7291 33.217 87.6675 33.0056 87.6143L32.9782 87.5976C32.7669 87.5444 32.5639 87.4773 32.3389 87.4157L32.0013 87.3234C31.9382 87.3038 31.8614 87.2759 31.7846 87.248C31.7572 87.2313 31.7078 87.2201 31.6721 87.2172C31.4196 87.1389 31.1535 87.0523 30.901 86.974L30.3824 86.8091C30.2068 86.7588 30.0395 86.6946 29.8721 86.6304C29.831 86.6053 29.7953 86.6024 29.7459 86.5912L29.6417 86.5466C29.4743 86.4824 29.307 86.4182 29.1314 86.3679C28.9283 86.3008 28.7198 86.2115 28.5168 86.1445C28.3769 86.097 28.2452 86.0357 28.1273 85.9827C28.0642 85.9631 27.9956 85.9214 27.9188 85.8934C27.5293 85.7316 27.126 85.5615 26.7365 85.3997C26.4595 85.2687 26.1962 85.146 25.9329 85.0234C25.8286 84.9787 25.7107 84.9257 25.6147 84.8673L25.0607 84.6053C24.9399 84.5883 24.8165 84.5132 24.6986 84.4602C24.6437 84.4268 24.5752 84.385 24.5121 84.3654C23.1381 83.6605 21.8192 82.8947 20.5636 82.0542C19.4231 81.3028 18.3515 80.4988 17.3732 79.6951C17.332 79.6701 17.2992 79.6312 17.2581 79.6061C17.1841 79.5422 17.1101 79.4782 17.0361 79.4143C16.9621 79.3503 16.8881 79.2863 16.8142 79.2224L16.6991 79.1334C16.4908 78.9499 16.2909 78.7525 16.0689 78.5607C15.7401 78.266 15.4333 77.9658 15.1622 77.6684C15.0882 77.6045 15.0362 77.5351 14.976 77.4795C14.8171 77.3072 14.65 77.1487 14.4912 76.9764C14.4118 76.8903 14.3324 76.8041 14.2667 76.7263C14.2147 76.6569 14.1681 76.6096 14.1161 76.5402L14.0641 76.4708C13.8013 76.1596 13.5521 75.8568 13.3578 75.5874L13.3524 75.5651C13.3004 75.4957 13.2539 75.4485 13.2156 75.3874L13.087 75.1958C12.9967 75.0652 12.9201 74.9431 12.8572 74.8292C12.7178 74.5932 12.6112 74.3961 12.5374 74.2379C12.3845 73.8993 12.3604 73.658 12.4623 73.5502C12.5642 73.4423 12.8003 73.454 13.157 73.5769C13.3243 73.6411 13.5328 73.7304 13.7604 73.8502C13.8784 73.9031 13.9881 73.97 14.1251 74.0535L14.3171 74.1704L14.5173 74.2735C14.7366 74.4072 14.9917 74.5437 15.2521 74.7024C15.3207 74.7441 15.3892 74.7859 15.4578 74.8276C15.54 74.8778 15.6223 74.9279 15.7182 74.9863L15.7457 75.003C15.8279 75.0531 15.9102 75.1033 15.9924 75.1534C16.1706 75.262 16.3626 75.3789 16.5545 75.4958C16.7053 75.5877 16.8561 75.6796 17.0069 75.7714C17.2537 75.9218 17.5141 76.0805 17.7883 76.2475L17.8569 76.2893C18.0625 76.4146 18.2544 76.5315 18.4683 76.6429C18.578 76.7097 18.7014 76.7849 18.8111 76.8517C18.8796 76.8935 18.9619 76.9436 19.0304 76.9854C19.0716 77.0104 19.1264 77.0438 19.1675 77.0689C20.2397 77.6843 21.3284 78.2721 22.4199 78.8238C23.6842 79.4619 24.9733 80.0585 26.2379 80.6024C26.301 80.622 26.3559 80.6554 26.4327 80.6833C26.5369 80.7279 26.6549 80.7809 26.7591 80.8255L27.2886 81.0348C27.4422 81.0906 27.5876 81.1603 27.7412 81.2162C27.936 81.2971 28.1527 81.3725 28.3612 81.4617C28.5642 81.5288 28.759 81.6097 28.962 81.6768L29.4723 81.8555C29.5354 81.8751 29.6123 81.903 29.6754 81.9226C29.7933 81.9755 29.9058 82.0063 30.0321 82.0455L30.2845 82.1237C30.397 82.1545 30.5012 82.1992 30.6137 82.2299C30.8031 82.2886 31.0061 82.3557 31.1872 82.4282C31.2366 82.4395 31.2777 82.4645 31.3271 82.4757C31.467 82.5232 31.6207 82.5791 31.7689 82.6127C32.1064 82.7051 32.4494 82.8196 32.7869 82.912L32.9488 82.954C32.9845 82.9568 33.0256 82.9819 33.0613 82.9848C33.1244 83.0043 33.1875 83.0239 33.2507 83.0435L33.5608 83.1191C33.7584 83.164 33.9477 83.2227 34.1453 83.2676C34.2441 83.29 34.3703 83.3291 34.4691 83.3516C34.5679 83.374 34.6585 83.4103 34.771 83.4411C34.8972 83.4802 35.0317 83.5055 35.1662 83.5308C35.243 83.5587 35.3144 83.5644 35.3912 83.5924C35.5394 83.626 35.7013 83.668 35.8715 83.6962L36.0965 83.7578L36.2447 83.7914C36.3298 83.8055 36.4203 83.8418 36.5054 83.8559C36.6042 83.8783 36.6893 83.8924 36.7881 83.9148C36.8375 83.926 36.9006 83.9456 36.9583 83.943C37.2767 84.0048 37.6225 84.0833 38.0123 84.1508C38.048 84.1537 38.0754 84.1704 38.1111 84.1733C38.1742 84.1928 38.2318 84.1902 38.295 84.2098C38.3938 84.2322 38.4871 84.2324 38.5859 84.2549L39.2144 84.3924C41.3911 84.7556 43.4804 84.9523 45.5947 85.0132C45.7238 85.0163 45.8665 85.0277 45.9956 85.0309C46.4981 85.0349 47.0061 85.0612 47.5389 85.0459C47.7476 85.0409 47.97 85.0443 48.1924 85.0476L48.5659 85.0486C48.8899 85.0383 49.2223 85.0143 49.5683 84.9985L49.626 84.9959C49.799 84.988 49.994 84.9747 50.167 84.9668C50.2467 84.9587 50.3401 84.9589 50.4417 84.9453L50.557 84.9401C50.6147 84.9375 50.6587 84.9265 50.7164 84.9239C51.0487 84.8998 51.3893 84.8618 51.7216 84.8377L51.8233 84.8241C51.9743 84.8218 52.1199 84.7972 52.2655 84.7726C52.3012 84.7755 52.3452 84.7645 52.3891 84.7535L52.5485 84.7373C52.6858 84.7266 52.8094 84.7075 52.955 84.6829C53.0567 84.6693 53.1583 84.6557 53.2599 84.6421C53.5429 84.6068 53.8258 84.5715 54.117 84.5223L54.6115 84.446C54.8368 84.4133 55.062 84.3806 55.2955 84.3341C55.3752 84.326 55.4768 84.3124 55.595 84.2711L55.8945 84.2081C56.0841 84.1726 56.2956 84.1315 56.4935 84.0822C56.6034 84.0547 56.727 84.0356 56.8506 84.0165L57.0842 83.97C57.2161 83.9371 57.3479 83.9042 57.4935 83.8796L57.837 83.8056C57.9909 83.7672 58.1447 83.7288 58.3123 83.6988C58.4222 83.6713 58.5102 83.6494 58.6201 83.6219L58.7822 83.5697L58.9361 83.5312C59.3401 83.4186 59.766 83.3005 60.1782 83.1741C60.2222 83.1631 60.2525 83.1438 60.2882 83.1466C60.3541 83.1302 60.42 83.1137 60.4943 83.0834L60.5602 83.0669C60.6481 83.045 60.7224 83.0147 60.8103 82.9927C61.0164 82.9295 61.2308 82.8524 61.4369 82.7892L61.5991 82.7369C61.7612 82.6847 61.9234 82.6325 62.0855 82.5802L62.3219 82.4976C62.4483 82.4425 62.5885 82.3957 62.715 82.3406L63.3444 82.1011C63.4104 82.0846 63.4846 82.0543 63.5368 82.0295L63.6496 81.966C63.7238 81.9357 63.8035 81.9276 63.864 81.8889C63.8942 81.8696 63.9382 81.8587 63.9822 81.8477L64.3533 81.6962C64.6501 81.5749 64.9553 81.4399 65.2522 81.3187L65.2742 81.3132C65.4748 81.2278 65.6838 81.1285 65.8927 81.0293L66.5333 80.7398C67.4077 80.3096 68.2683 79.871 69.0658 79.4129C69.9238 78.9161 70.7545 78.4026 71.5302 77.8557C72.3363 77.2895 73.1314 76.6789 73.8635 76.0487C74.0176 75.916 74.1717 75.7834 74.3121 75.6423C74.3507 75.6092 74.3809 75.5898 74.4057 75.5483C74.5847 75.3741 74.7773 75.2083 74.9562 75.0341C75.0801 74.9208 75.182 74.8129 75.2921 74.6912C75.3555 74.6165 75.4243 74.564 75.4876 74.4894L75.5042 74.4617C75.5895 74.3815 75.6611 74.293 75.7464 74.2128C75.763 74.1851 75.7933 74.1658 75.8235 74.1464C75.8786 74.0856 75.9556 74.0193 76.019 73.9446C76.578 73.3223 77.3051 72.4814 77.9582 71.5765C78.0216 71.5018 78.0712 71.4188 78.1346 71.3441C78.231 71.2141 78.3274 71.084 78.4239 70.954L78.8484 70.3064C79.0524 69.9964 79.2427 69.6781 79.433 69.3598C79.5074 69.2352 79.5902 69.0968 79.6646 68.9723C79.7556 68.82 79.8549 68.6539 79.9322 68.4933C79.9736 68.4241 80.0012 68.3466 80.0426 68.2774C80.1005 68.1805 80.1365 68.0891 80.1944 67.9922C80.4711 68.2175 80.7479 68.4428 81.033 68.6542C81.7319 69.1744 82.5133 69.6505 83.3224 70.049ZM83.3224 70.049C82.9137 69.8567 82.5162 69.6145 82.1323 69.3806C81.4469 68.963 80.7945 68.49 80.1752 67.9617C80.2443 67.8149 80.3187 67.6904 80.3877 67.5436L80.7246 66.8237L80.9399 66.3696L81.0477 66.0955L81.3158 65.428C82.0745 66.1924 82.8994 66.846 83.7631 67.3722C83.9687 67.4974 84.1744 67.6227 84.3883 67.7342L84.3358 67.8532L84.2916 67.9585L84.1011 68.371C84.0044 68.5953 83.9077 68.8197 83.8056 69.0218L83.7283 69.1824L83.3472 70.0075C83.339 70.0213 83.3224 70.049 83.3224 70.049ZM113.515 40.8465C113.543 40.8632 113.581 41.0185 113.575 41.2791C113.572 41.4094 113.571 41.5979 113.571 41.7864L113.559 41.8363C113.559 42.0248 113.542 42.241 113.522 42.4932C113.494 42.7593 113.471 43.0475 113.424 43.3773C113.41 43.5574 113.382 43.7293 113.362 43.8872L113.334 44.0591C113.317 44.181 113.292 44.3168 113.276 44.4387C113.256 44.5024 113.259 44.5606 113.253 44.6327C113.236 44.7546 113.211 44.8904 113.186 45.0262L113.042 45.6745C113.022 45.7382 113.017 45.8103 113.003 45.8962C112.978 46.032 112.95 46.2038 112.916 46.3534L112.842 46.6665C112.816 46.8022 112.778 46.9297 112.753 47.0654C112.547 47.9409 112.259 48.9549 111.855 50.2568C111.788 50.4617 111.7 50.6722 111.634 50.8772L111.542 51.1237C111.495 51.2649 111.448 51.4062 111.387 51.5391L111.371 51.5668L111.191 52.0238C111.147 52.129 111.103 52.2342 111.059 52.3394C110.979 52.5361 110.904 52.7549 110.824 52.9515C110.691 53.2672 110.558 53.5829 110.418 53.9124C109.799 55.2914 109.112 56.6286 108.373 57.8964L107.752 58.9344C107.612 59.1697 107.457 59.3966 107.303 59.6236C107.237 59.7343 107.148 59.8505 107.082 59.9612C107 60.0996 106.903 60.2296 106.807 60.3597C106.782 60.4012 106.757 60.4427 106.718 60.4759L106.677 60.5451C106.572 60.689 106.459 60.8467 106.368 60.999C106.31 61.0958 106.247 61.1705 106.189 61.2674C106.134 61.3283 106.093 61.3974 106.038 61.4583L105.996 61.5275C105.972 61.569 105.933 61.6022 105.908 61.6437C105.812 61.7737 105.707 61.9176 105.589 62.0532C104.462 63.5001 103.206 64.8498 101.833 66.0521C101.084 66.71 100.311 67.3151 99.5352 67.862C98.699 68.4476 97.8161 68.9859 96.9472 69.4383C95.9958 69.9349 95.0007 70.3481 94.0497 70.6562C93.5193 70.8239 92.9972 70.9778 92.4862 71.0818C91.9312 71.1968 91.3844 71.298 90.8488 71.3493C88.5085 71.6038 86.1642 71.2706 84.0849 70.4003C83.8271 70.2998 83.5637 70.1772 83.3224 70.049C83.3307 70.0352 83.339 70.0213 83.3472 70.0075L83.7474 69.2129L83.8247 69.0523C83.9214 68.828 84.0181 68.6037 84.1202 68.4016L84.3549 67.8838L84.4074 67.7647C84.635 67.8845 84.8489 67.996 85.0848 68.1019C85.2796 68.1828 85.4744 68.2637 85.6828 68.353L85.7597 68.3809C85.8502 68.4172 85.949 68.4396 86.0395 68.4759C86.1794 68.5234 86.3057 68.5625 86.4456 68.61C86.5087 68.6295 86.5718 68.6491 86.6432 68.6548L86.7723 68.658C86.786 68.6663 86.7942 68.6525 86.8217 68.6692C86.9205 68.6916 87.0247 68.7362 87.1318 68.7448C87.2031 68.7506 87.28 68.7785 87.3514 68.7842C87.4996 68.8178 87.6697 68.846 87.8399 68.8742C88.7622 69.0207 89.7068 69.0675 90.6681 68.9924C92.4094 68.8638 94.2176 68.3418 96.046 67.4732C96.8515 67.0955 97.649 66.6374 98.444 66.121C99.1784 65.6433 99.9102 65.1074 100.617 64.5187C101.938 63.4354 103.169 62.2216 104.271 60.9104C104.802 60.2713 105.306 59.6156 105.772 58.9931C105.86 58.8769 105.943 58.7385 106.031 58.6223C106.169 58.423 106.307 58.2238 106.458 58.0329L107.095 57.0614C107.856 55.8824 108.573 54.6201 109.244 53.3106C109.39 53.0033 109.55 52.7043 109.688 52.4108C109.782 52.2225 109.862 52.0259 109.948 51.8514C109.992 51.7462 110.044 51.6271 110.102 51.5303L110.301 51.1038L110.326 51.0623C110.387 50.9294 110.439 50.8103 110.486 50.6691C110.602 50.3811 110.724 50.1152 110.832 49.8411C111.326 48.5754 111.653 47.6226 111.927 46.7888L112.145 46.1102C112.192 45.969 112.231 45.8415 112.256 45.7058C112.284 45.6282 112.298 45.5423 112.326 45.4648C112.364 45.3373 112.403 45.2099 112.442 45.0825L112.503 44.8553C112.542 44.7279 112.572 44.6143 112.589 44.4924C112.608 44.4286 112.622 44.3427 112.642 44.279C112.691 44.1017 112.728 43.9161 112.778 43.7388C112.827 43.5615 112.869 43.398 112.902 43.2484C112.977 42.9353 113.036 42.65 113.113 42.3951C113.155 42.2317 113.196 42.0682 113.221 41.9324C113.235 41.8465 113.255 41.7828 113.274 41.7191C113.319 41.5196 113.36 41.3562 113.399 41.2287C113.433 40.9849 113.466 40.8352 113.515 40.8465ZM79.7034 46.1317C79.7171 46.1401 79.7225 46.1622 79.7225 46.1622C79.8459 46.2374 79.9801 46.357 80.1418 46.4932C80.2761 46.6128 80.4212 46.7767 80.5909 46.9934L80.818 47.3017L80.9357 47.4489C80.9823 47.4962 81.0069 47.5489 81.0452 47.61C81.5923 48.4154 82.0514 49.337 82.3948 50.358C82.7219 51.3125 82.9554 52.3611 83.079 53.437C83.1999 54.4547 83.2356 55.5527 83.2053 56.667C83.1911 56.8472 83.1852 57.0135 83.171 57.1937C83.1708 57.2879 83.1568 57.3738 83.1566 57.4681C83.1285 57.7342 83.0921 58.0141 83.0776 58.2885L83.0381 58.6987C83.0242 58.7846 83.0103 58.8705 82.9963 58.9564C82.9852 59.0062 82.9741 59.0561 82.9713 59.0921L82.8429 59.9013C82.8483 59.9235 82.8318 59.9512 82.8372 59.9734C82.8344 60.0094 82.8233 60.0593 82.8204 60.0953L82.7814 60.317L82.6925 60.716L82.6174 61.1233C82.6145 61.1593 82.598 61.187 82.5951 61.223C82.5729 61.3228 82.5507 61.4225 82.5285 61.5223C82.484 61.7218 82.4259 61.9129 82.3897 62.0985L82.3453 62.298C82.3341 62.3479 82.323 62.3978 82.3119 62.4476C82.298 62.5335 82.2703 62.6111 82.2564 62.697L82.1401 63.0793C82.0708 63.3203 81.9933 63.5751 81.924 63.8161L81.9212 63.8522C81.8658 64.0073 81.8023 64.1762 81.747 64.3313C81.711 64.4227 81.6751 64.5141 81.6529 64.6139L81.4872 64.9849C81.4706 65.0126 81.4623 65.0264 81.4541 65.0403C81.443 65.0901 81.4401 65.1262 81.429 65.176L81.3212 65.4502C81.009 65.1278 80.6913 64.7833 80.3956 64.4332C79.7468 63.6414 79.1751 62.7833 78.6941 61.8672C78.2322 60.9817 77.8283 59.9992 77.5152 58.9588C77.2129 57.9628 76.9876 56.9005 76.8503 55.8161C76.7185 54.754 76.6608 53.6616 76.6828 52.5611C76.6831 52.4668 76.6833 52.3726 76.689 52.3005C76.6895 52.112 76.7037 51.9318 76.7042 51.7433L76.7016 51.6851C76.7214 51.4329 76.7276 51.1723 76.7474 50.9201L76.7869 50.5099L76.8656 49.7838L76.8796 49.6978C76.8964 49.5759 76.9132 49.454 76.9437 49.3404C77.0382 48.8693 77.1685 48.4012 77.3618 47.9526C77.5415 47.4956 77.7677 47.0859 78.0157 46.765C78.2416 46.4495 78.5279 46.1897 78.7588 46.0849C78.8633 46.0353 78.9512 46.0133 79.0529 45.9997C79.1628 45.9723 79.2699 45.9809 79.3824 46.0117C79.4949 46.0425 79.5937 46.0649 79.7034 46.1317Z" fill="white"/>
</svg>
