<svg width="41" height="41" viewBox="0 0 41 41" fill="none" xmlns="http://www.w3.org/2000/svg">
<path d="M33.0951 10.5876C34.7617 12.4209 35.7617 14.4209 35.7617 17.7542C35.7617 23.5876 31.5951 28.7542 25.7617 31.4209L24.2617 29.2542C29.7617 26.2542 30.9284 22.4209 31.2617 19.9209C30.4284 20.4209 29.2617 20.5876 28.0951 20.4209C25.0951 20.0876 22.7617 17.7542 22.7617 14.5876C22.7617 13.0876 23.4284 11.5876 24.4284 10.4209C25.5951 9.25423 26.9284 8.75423 28.5951 8.75423C30.4284 8.75423 32.0951 9.58756 33.0951 10.5876ZM16.4284 10.5876C18.0951 12.4209 19.0951 14.4209 19.0951 17.7542C19.0951 23.5876 14.9284 28.7542 9.09505 31.4209L7.59505 29.2542C13.0951 26.2542 14.2617 22.4209 14.595 19.9209C13.7617 20.4209 12.5951 20.5876 11.4284 20.4209C8.42838 20.0876 6.09505 17.7542 6.09505 14.5876C6.09505 13.0876 6.76172 11.5876 7.76172 10.4209C8.76172 9.25423 10.2617 8.75423 11.9284 8.75423C13.7617 8.75423 15.4284 9.58756 16.4284 10.5876Z" fill="#9B9A84"/>
</svg>
