<svg width="168" height="41" viewBox="0 0 168 41" fill="none" xmlns="http://www.w3.org/2000/svg">
<path d="M49.5615 28.1053H61.5135V24.5053H53.8095V10.9453H49.5615V28.1053Z" fill="#9B9A84"/>
<path d="M68.595 25.7064C66.891 25.7064 66.003 24.2184 66.003 21.9864C66.003 19.7544 66.891 18.2424 68.595 18.2424C70.299 18.2424 71.211 19.7544 71.211 21.9864C71.211 24.2184 70.299 25.7064 68.595 25.7064ZM68.619 28.4904C72.579 28.4904 75.171 25.6824 75.171 21.9864C75.171 18.2904 72.579 15.4824 68.619 15.4824C64.683 15.4824 62.043 18.2904 62.043 21.9864C62.043 25.6824 64.683 28.4904 68.619 28.4904Z" fill="#9B9A84"/>
<path d="M82.0257 32.353C83.8497 32.353 85.4577 31.945 86.5377 30.985C87.5217 30.097 88.1697 28.753 88.1697 26.905V15.817H84.4257V17.137H84.3777C83.6577 16.105 82.5537 15.457 80.9217 15.457C77.8737 15.457 75.7617 18.001 75.7617 21.601C75.7617 25.369 78.3297 27.433 81.0897 27.433C82.5777 27.433 83.5137 26.833 84.2337 26.017H84.3297V27.241C84.3297 28.729 83.6337 29.593 81.9777 29.593C80.6817 29.593 80.0337 29.041 79.8177 28.393H76.0257C76.4097 30.961 78.6417 32.353 82.0257 32.353ZM82.0017 24.529C80.5377 24.529 79.5777 23.329 79.5777 21.481C79.5777 19.609 80.5377 18.409 82.0017 18.409C83.6337 18.409 84.4977 19.801 84.4977 21.457C84.4977 23.185 83.7057 24.529 82.0017 24.529Z" fill="#9B9A84"/>
<path d="M95.8674 25.7064C94.1634 25.7064 93.2754 24.2184 93.2754 21.9864C93.2754 19.7544 94.1634 18.2424 95.8674 18.2424C97.5714 18.2424 98.4834 19.7544 98.4834 21.9864C98.4834 24.2184 97.5714 25.7064 95.8674 25.7064ZM95.8914 28.4904C99.8514 28.4904 102.443 25.6824 102.443 21.9864C102.443 18.2904 99.8514 15.4824 95.8914 15.4824C91.9554 15.4824 89.3154 18.2904 89.3154 21.9864C89.3154 25.6824 91.9554 28.4904 95.8914 28.4904Z" fill="#9B9A84"/>
<path d="M103.586 28.1053H107.498V15.8173H103.586V28.1053ZM103.586 14.1133H107.498V10.9453H103.586V14.1133Z" fill="#9B9A84"/>
<path d="M109.195 32.161H113.107V26.833H113.155C113.923 27.865 115.051 28.489 116.635 28.489C119.851 28.489 121.987 25.945 121.987 21.961C121.987 18.265 119.995 15.457 116.731 15.457C115.051 15.457 113.851 16.201 113.011 17.305H112.939V15.817H109.195V32.161ZM115.627 25.465C113.947 25.465 112.987 24.097 112.987 22.105C112.987 20.113 113.851 18.601 115.555 18.601C117.235 18.601 118.027 19.993 118.027 22.105C118.027 24.193 117.115 25.465 115.627 25.465Z" fill="#9B9A84"/>
<path d="M128.356 28.489C131.572 28.489 133.948 27.097 133.948 24.409C133.948 21.265 131.404 20.713 129.244 20.353C127.684 20.065 126.292 19.945 126.292 19.081C126.292 18.313 127.036 17.953 127.996 17.953C129.076 17.953 129.82 18.289 129.964 19.393H133.564C133.372 16.969 131.5 15.457 128.02 15.457C125.116 15.457 122.716 16.801 122.716 19.393C122.716 22.273 124.996 22.849 127.132 23.209C128.764 23.497 130.252 23.617 130.252 24.721C130.252 25.513 129.508 25.945 128.332 25.945C127.036 25.945 126.22 25.345 126.076 24.121H122.38C122.5 26.833 124.756 28.489 128.356 28.489Z" fill="#9B9A84"/>
<path d="M139.262 28.4664C140.966 28.4664 142.046 27.7944 142.934 26.5944H143.006V28.1064H146.75V15.8184H142.838V22.6824C142.838 24.1464 142.022 25.1544 140.678 25.1544C139.43 25.1544 138.83 24.4104 138.83 23.0664V15.8184H134.942V23.8824C134.942 26.6184 136.43 28.4664 139.262 28.4664Z" fill="#9B9A84"/>
<path d="M148.452 28.105H152.364V21.217C152.364 19.753 153.084 18.721 154.308 18.721C155.484 18.721 156.036 19.489 156.036 20.809V28.105H159.948V21.217C159.948 19.753 160.644 18.721 161.892 18.721C163.068 18.721 163.62 19.489 163.62 20.809V28.105H167.532V20.113C167.532 17.353 166.14 15.457 163.356 15.457C161.772 15.457 160.452 16.129 159.492 17.617H159.444C158.82 16.297 157.596 15.457 155.988 15.457C154.212 15.457 153.036 16.297 152.268 17.569H152.196V15.817H148.452V28.105Z" fill="#9B9A84"/>
<path d="M25.6941 1.13003L21.7611 0.0761719L18.4467 12.4457L15.4544 1.27841L11.5213 2.33227L14.7543 14.3977L6.70164 6.34515L3.82245 9.22434L12.6552 18.0571L1.65542 15.1097L0.601562 19.0427L12.6202 22.2631C12.4826 21.6696 12.4098 21.0512 12.4098 20.4158C12.4098 15.9182 16.0558 12.2722 20.5534 12.2722C25.051 12.2722 28.697 15.9182 28.697 20.4158C28.697 21.0471 28.6251 21.6617 28.4892 22.2517L39.4119 25.1784L40.4657 21.2454L28.3993 18.0122L39.3998 15.0646L38.3459 11.1316L26.28 14.3646L34.3326 6.31209L31.4534 3.4329L22.7432 12.1431L25.6941 1.13003Z" fill="#9B9A84"/>
<path d="M28.478 22.2979C28.1408 23.7235 27.4289 25.0042 26.4521 26.0303L34.3652 33.9434L37.2444 31.0642L28.478 22.2979Z" fill="#9B9A84"/>
<path d="M26.3723 26.1133C25.3837 27.123 24.1344 27.8765 22.7334 28.2648L25.6128 39.0108L29.5458 37.9569L26.3723 26.1133Z" fill="#9B9A84"/>
<path d="M22.5865 28.3036C21.9365 28.4707 21.2552 28.5595 20.5531 28.5595C19.8009 28.5595 19.0725 28.4575 18.381 28.2666L15.499 39.0224L19.432 40.0762L22.5865 28.3036Z" fill="#9B9A84"/>
<path d="M18.242 28.2272C16.8624 27.8196 15.6353 27.0565 14.6669 26.0439L6.73438 33.9764L9.61356 36.8556L18.242 28.2272Z" fill="#9B9A84"/>
<path d="M14.6014 25.9733C13.6496 24.9543 12.9563 23.6907 12.6263 22.2871L1.66797 25.2234L2.72182 29.1564L14.6014 25.9733Z" fill="#9B9A84"/>
</svg>
