<svg width="171" height="41" viewBox="0 0 171 41" fill="none" xmlns="http://www.w3.org/2000/svg">
<path d="M52.1318 28.076H64.0838V24.476H56.3798V10.916H52.1318V28.076Z" fill="#9B9A84"/>
<path d="M71.1643 25.6761C69.4603 25.6761 68.5723 24.1881 68.5723 21.9561C68.5723 19.7241 69.4603 18.2121 71.1643 18.2121C72.8683 18.2121 73.7803 19.7241 73.7803 21.9561C73.7803 24.1881 72.8683 25.6761 71.1643 25.6761ZM71.1883 28.4601C75.1483 28.4601 77.7403 25.6521 77.7403 21.9561C77.7403 18.2601 75.1483 15.4521 71.1883 15.4521C67.2523 15.4521 64.6123 18.2601 64.6123 21.9561C64.6123 25.6521 67.2523 28.4601 71.1883 28.4601Z" fill="#9B9A84"/>
<path d="M84.5951 32.3237C86.4191 32.3237 88.0271 31.9157 89.1071 30.9557C90.0911 30.0677 90.7391 28.7237 90.7391 26.8757V15.7877H86.9951V17.1077H86.9471C86.2271 16.0757 85.1231 15.4277 83.4911 15.4277C80.4431 15.4277 78.3311 17.9717 78.3311 21.5717C78.3311 25.3397 80.8991 27.4037 83.6591 27.4037C85.1471 27.4037 86.0831 26.8037 86.8031 25.9877H86.8991V27.2117C86.8991 28.6997 86.2031 29.5637 84.5471 29.5637C83.2511 29.5637 82.6031 29.0117 82.3871 28.3637H78.5951C78.9791 30.9317 81.2111 32.3237 84.5951 32.3237ZM84.5711 24.4997C83.1071 24.4997 82.1471 23.2997 82.1471 21.4517C82.1471 19.5797 83.1071 18.3797 84.5711 18.3797C86.2031 18.3797 87.0671 19.7717 87.0671 21.4277C87.0671 23.1557 86.2751 24.4997 84.5711 24.4997Z" fill="#9B9A84"/>
<path d="M98.4377 25.6761C96.7337 25.6761 95.8457 24.1881 95.8457 21.9561C95.8457 19.7241 96.7337 18.2121 98.4377 18.2121C100.142 18.2121 101.054 19.7241 101.054 21.9561C101.054 24.1881 100.142 25.6761 98.4377 25.6761ZM98.4617 28.4601C102.422 28.4601 105.014 25.6521 105.014 21.9561C105.014 18.2601 102.422 15.4521 98.4617 15.4521C94.5257 15.4521 91.8857 18.2601 91.8857 21.9561C91.8857 25.6521 94.5257 28.4601 98.4617 28.4601Z" fill="#9B9A84"/>
<path d="M106.155 28.076H110.067V15.788H106.155V28.076ZM106.155 14.084H110.067V10.916H106.155V14.084Z" fill="#9B9A84"/>
<path d="M111.766 32.1317H115.678V26.8037H115.726C116.494 27.8357 117.622 28.4597 119.206 28.4597C122.422 28.4597 124.558 25.9157 124.558 21.9317C124.558 18.2357 122.566 15.4277 119.302 15.4277C117.622 15.4277 116.422 16.1717 115.582 17.2757H115.51V15.7877H111.766V32.1317ZM118.198 25.4357C116.518 25.4357 115.558 24.0677 115.558 22.0757C115.558 20.0837 116.422 18.5717 118.126 18.5717C119.806 18.5717 120.598 19.9637 120.598 22.0757C120.598 24.1637 119.686 25.4357 118.198 25.4357Z" fill="#9B9A84"/>
<path d="M130.926 28.4597C134.142 28.4597 136.518 27.0677 136.518 24.3797C136.518 21.2357 133.974 20.6837 131.814 20.3237C130.254 20.0357 128.862 19.9157 128.862 19.0517C128.862 18.2837 129.606 17.9237 130.566 17.9237C131.646 17.9237 132.39 18.2597 132.534 19.3637H136.134C135.942 16.9397 134.07 15.4277 130.59 15.4277C127.686 15.4277 125.286 16.7717 125.286 19.3637C125.286 22.2437 127.566 22.8197 129.702 23.1797C131.334 23.4677 132.822 23.5877 132.822 24.6917C132.822 25.4837 132.078 25.9157 130.902 25.9157C129.606 25.9157 128.79 25.3157 128.646 24.0917H124.95C125.07 26.8037 127.326 28.4597 130.926 28.4597Z" fill="#9B9A84"/>
<path d="M141.833 28.4361C143.537 28.4361 144.617 27.7641 145.505 26.5641H145.577V28.0761H149.321V15.7881H145.409V22.6521C145.409 24.1161 144.593 25.1241 143.249 25.1241C142.001 25.1241 141.401 24.3801 141.401 23.0361V15.7881H137.513V23.8521C137.513 26.5881 139.001 28.4361 141.833 28.4361Z" fill="#9B9A84"/>
<path d="M151.021 28.0757H154.933V21.1877C154.933 19.7237 155.653 18.6917 156.877 18.6917C158.053 18.6917 158.605 19.4597 158.605 20.7797V28.0757H162.517V21.1877C162.517 19.7237 163.213 18.6917 164.461 18.6917C165.637 18.6917 166.189 19.4597 166.189 20.7797V28.0757H170.101V20.0837C170.101 17.3237 168.709 15.4277 165.925 15.4277C164.341 15.4277 163.021 16.0997 162.061 17.5877H162.013C161.389 16.2677 160.165 15.4277 158.557 15.4277C156.781 15.4277 155.605 16.2677 154.837 17.5397H154.765V15.7877H151.021V28.0757Z" fill="#9B9A84"/>
<path fill-rule="evenodd" clip-rule="evenodd" d="M20.9551 40.0761C32.0008 40.0761 40.9551 31.1218 40.9551 20.0761C40.9551 9.03048 32.0008 0.0761719 20.9551 0.0761719C9.90937 0.0761719 0.955078 9.03048 0.955078 20.0761C0.955078 31.1218 9.90937 40.0761 20.9551 40.0761ZM27.1944 9.39301C27.4981 8.31422 26.4512 7.6763 25.4951 8.35747L12.1482 17.8657C11.1113 18.6044 11.2744 20.0761 12.3932 20.0761H15.9078V20.0489H22.7576L17.1763 22.0182L14.7158 30.7593C14.4121 31.8381 15.4589 32.476 16.4151 31.7948L29.762 22.2866C30.7989 21.5479 30.6357 20.0761 29.517 20.0761H24.1872L27.1944 9.39301Z" fill="#9B9A84"/>
</svg>
