<svg width="167" height="41" viewBox="0 0 167 41" fill="none" xmlns="http://www.w3.org/2000/svg">
<path d="M48.6309 28.576H60.5829V24.976H52.8789V11.416H48.6309V28.576Z" fill="#9B9A84"/>
<path d="M67.6643 26.1761C65.9603 26.1761 65.0723 24.6881 65.0723 22.4561C65.0723 20.2241 65.9603 18.7121 67.6643 18.7121C69.3683 18.7121 70.2803 20.2241 70.2803 22.4561C70.2803 24.6881 69.3683 26.1761 67.6643 26.1761ZM67.6883 28.9601C71.6483 28.9601 74.2403 26.1521 74.2403 22.4561C74.2403 18.7601 71.6483 15.9521 67.6883 15.9521C63.7523 15.9521 61.1123 18.7601 61.1123 22.4561C61.1123 26.1521 63.7523 28.9601 67.6883 28.9601Z" fill="#9B9A84"/>
<path d="M81.0941 32.8237C82.9181 32.8237 84.5261 32.4157 85.6061 31.4557C86.5901 30.5677 87.2381 29.2237 87.2381 27.3757V16.2877H83.4941V17.6077H83.4461C82.7261 16.5757 81.6221 15.9277 79.9901 15.9277C76.9421 15.9277 74.8301 18.4717 74.8301 22.0717C74.8301 25.8397 77.3981 27.9037 80.1581 27.9037C81.6461 27.9037 82.5821 27.3037 83.3021 26.4877H83.3981V27.7117C83.3981 29.1997 82.7021 30.0637 81.0461 30.0637C79.7501 30.0637 79.1021 29.5117 78.8861 28.8637H75.0941C75.4781 31.4317 77.7101 32.8237 81.0941 32.8237ZM81.0701 24.9997C79.6061 24.9997 78.6461 23.7997 78.6461 21.9517C78.6461 20.0797 79.6061 18.8797 81.0701 18.8797C82.7021 18.8797 83.5661 20.2717 83.5661 21.9277C83.5661 23.6557 82.7741 24.9997 81.0701 24.9997Z" fill="#9B9A84"/>
<path d="M94.9368 26.1761C93.2328 26.1761 92.3448 24.6881 92.3448 22.4561C92.3448 20.2241 93.2328 18.7121 94.9368 18.7121C96.6408 18.7121 97.5528 20.2241 97.5528 22.4561C97.5528 24.6881 96.6408 26.1761 94.9368 26.1761ZM94.9608 28.9601C98.9208 28.9601 101.513 26.1521 101.513 22.4561C101.513 18.7601 98.9208 15.9521 94.9608 15.9521C91.0248 15.9521 88.3848 18.7601 88.3848 22.4561C88.3848 26.1521 91.0248 28.9601 94.9608 28.9601Z" fill="#9B9A84"/>
<path d="M102.655 28.576H106.567V16.288H102.655V28.576ZM102.655 14.584H106.567V11.416H102.655V14.584Z" fill="#9B9A84"/>
<path d="M108.264 32.6317H112.176V27.3037H112.224C112.992 28.3357 114.12 28.9597 115.704 28.9597C118.92 28.9597 121.056 26.4157 121.056 22.4317C121.056 18.7357 119.064 15.9277 115.8 15.9277C114.12 15.9277 112.92 16.6717 112.08 17.7757H112.008V16.2877H108.264V32.6317ZM114.696 25.9357C113.016 25.9357 112.056 24.5677 112.056 22.5757C112.056 20.5837 112.92 19.0717 114.624 19.0717C116.304 19.0717 117.096 20.4637 117.096 22.5757C117.096 24.6637 116.184 25.9357 114.696 25.9357Z" fill="#9B9A84"/>
<path d="M127.426 28.9597C130.642 28.9597 133.018 27.5677 133.018 24.8797C133.018 21.7357 130.474 21.1837 128.314 20.8237C126.754 20.5357 125.362 20.4157 125.362 19.5517C125.362 18.7837 126.106 18.4237 127.066 18.4237C128.146 18.4237 128.89 18.7597 129.034 19.8637H132.634C132.442 17.4397 130.57 15.9277 127.09 15.9277C124.186 15.9277 121.786 17.2717 121.786 19.8637C121.786 22.7437 124.066 23.3197 126.202 23.6797C127.834 23.9677 129.322 24.0877 129.322 25.1917C129.322 25.9837 128.578 26.4157 127.402 26.4157C126.106 26.4157 125.29 25.8157 125.146 24.5917H121.45C121.57 27.3037 123.826 28.9597 127.426 28.9597Z" fill="#9B9A84"/>
<path d="M138.331 28.9361C140.035 28.9361 141.115 28.2641 142.003 27.0641H142.075V28.5761H145.819V16.2881H141.907V23.1521C141.907 24.6161 141.091 25.6241 139.747 25.6241C138.499 25.6241 137.899 24.8801 137.899 23.5361V16.2881H134.011V24.3521C134.011 27.0881 135.499 28.9361 138.331 28.9361Z" fill="#9B9A84"/>
<path d="M147.521 28.5757H151.433V21.6877C151.433 20.2237 152.153 19.1917 153.377 19.1917C154.553 19.1917 155.105 19.9597 155.105 21.2797V28.5757H159.017V21.6877C159.017 20.2237 159.713 19.1917 160.961 19.1917C162.137 19.1917 162.689 19.9597 162.689 21.2797V28.5757H166.601V20.5837C166.601 17.8237 165.209 15.9277 162.425 15.9277C160.841 15.9277 159.521 16.5997 158.561 18.0877H158.513C157.889 16.7677 156.665 15.9277 155.057 15.9277C153.281 15.9277 152.105 16.7677 151.337 18.0397H151.265V16.2877H147.521V28.5757Z" fill="#9B9A84"/>
<path fill-rule="evenodd" clip-rule="evenodd" d="M8.65429 3.67404C7.22363 4.6744 5.92993 5.85715 4.80688 7.18857C9.39618 6.7625 15.2267 7.45822 21.9959 10.8428C29.2245 14.457 35.0453 14.5792 39.0963 13.7978C38.7287 12.6849 38.2659 11.6153 37.7178 10.5985C33.0805 11.0876 27.1355 10.4402 20.2071 6.97615C15.8075 4.77635 11.9293 3.87018 8.65429 3.67404ZM35.0089 6.74282C31.3468 2.65117 26.0249 0.0761719 20.1015 0.0761719C18.362 0.0761719 16.6742 0.298279 15.0652 0.715652C17.2444 1.31026 19.5594 2.18016 21.9959 3.39844C27.0685 5.9347 31.4479 6.75133 35.0089 6.74282ZM39.9624 17.7042C35.0684 18.6706 28.3103 18.4721 20.2071 14.4205C12.6315 10.6327 6.60199 10.6804 2.53546 11.5841C2.32556 11.6307 2.1206 11.6797 1.92059 11.7307C1.38818 12.8886 0.963196 14.1062 0.658264 15.3706C0.983948 15.2836 1.32049 15.2009 1.66772 15.1237C6.60113 14.0274 13.5716 14.075 21.9959 18.2872C29.5716 22.075 35.6011 22.0273 39.6677 21.1236C39.807 21.0927 39.9443 21.0607 40.0793 21.0277C40.0941 20.7124 40.1015 20.3951 40.1015 20.0761C40.1015 19.2736 40.0543 18.4821 39.9624 17.7042ZM39.4263 25.2484C34.5798 26.0957 28.0185 25.7705 20.2071 21.8649C12.6315 18.0771 6.60199 18.1248 2.53546 19.0285C1.63281 19.229 0.820801 19.4733 0.104493 19.7312C0.10254 19.8459 0.101562 19.9609 0.101562 20.0761C0.101562 31.1218 9.05585 40.0761 20.1015 40.0761C29.3586 40.0761 37.1468 33.787 39.4263 25.2484Z" fill="#9B9A84"/>
</svg>
