<svg width="203" height="41" viewBox="0 0 203 41" fill="none" xmlns="http://www.w3.org/2000/svg">
<path fill-rule="evenodd" clip-rule="evenodd" d="M26.0235 11.7615C24.379 10.6627 22.4456 10.0762 20.4678 10.0762V0.0761719C24.4234 0.0761719 28.2902 1.24915 31.5792 3.44678C34.8682 5.6444 37.4316 8.76798 38.9454 12.4225C40.4591 16.077 40.8552 20.0984 40.0835 23.978C39.3118 27.8576 37.407 31.4213 34.6099 34.2183C31.8129 37.0154 28.2492 38.9202 24.3696 39.6919C20.49 40.4636 16.4686 40.0675 12.8141 38.5538C9.15957 37.04 6.036 34.4766 3.83838 31.1876C1.64075 27.8986 0.467773 24.0318 0.467773 20.0762H10.4678C10.4678 22.054 11.0543 23.9874 12.1531 25.6319C13.2519 27.2764 14.8137 28.5581 16.641 29.315C18.4682 30.0719 20.4789 30.2699 22.4187 29.884C24.3585 29.4982 26.1403 28.5458 27.5389 27.1473C28.9374 25.7487 29.8898 23.9669 30.2756 22.0271C30.6615 20.0873 30.4635 18.0766 29.7066 16.2494C28.9497 14.4221 27.668 12.8603 26.0235 11.7615Z" fill="#9B9A84"/>
<path fill-rule="evenodd" clip-rule="evenodd" d="M10.4678 0.0761772C10.4678 1.3894 10.2091 2.68976 9.70657 3.90302C9.20402 5.11627 8.46743 6.21866 7.53884 7.14725C6.61026 8.07584 5.50787 8.81243 4.29461 9.31498C3.08135 9.81752 1.78099 10.0762 0.467774 10.0762L0.467773 20.0762C3.09421 20.0762 5.69493 19.5589 8.12145 18.5538C10.548 17.5487 12.7528 16.0755 14.6099 14.2183C16.4671 12.3612 17.9403 10.1564 18.9454 7.72985C19.9505 5.30333 20.4678 2.70261 20.4678 0.0761719L10.4678 0.0761772Z" fill="#9B9A84"/>
<path d="M126.086 14.5293H121.234V29.9416H126.086V14.5293Z" fill="#9B9A84"/>
<path d="M121.775 11.6428C122.282 12.1502 122.916 12.4039 123.677 12.4039C124.438 12.4039 125.062 12.1502 125.548 11.6428C126.035 11.1143 126.278 10.48 126.278 9.74002C126.278 8.97894 126.035 8.34466 125.548 7.83728C125.062 7.32986 124.438 7.07617 123.677 7.07617C122.916 7.07617 122.282 7.32986 121.775 7.83728C121.288 8.34466 121.045 8.97894 121.045 9.74002C121.045 10.48 121.288 11.1143 121.775 11.6428Z" fill="#9B9A84"/>
<path d="M51.624 29.9409V7.55176H56.6029V25.5646H66.529V29.9409H51.624Z" fill="#9B9A84"/>
<path fill-rule="evenodd" clip-rule="evenodd" d="M75.4951 30.2897C73.9095 30.2897 72.4719 29.9409 71.1822 29.2432C69.9137 28.5244 68.9095 27.5519 68.1695 26.3256C67.4296 25.0994 67.0596 23.7252 67.0596 22.203C67.0596 20.6808 67.4296 19.3172 68.1695 18.1121C68.9095 16.907 69.9137 15.9556 71.1822 15.258C72.4507 14.5391 73.8884 14.1797 75.4951 14.1797C77.1019 14.1797 78.5395 14.5286 79.808 15.2262C81.0765 15.9239 82.0808 16.8859 82.8207 18.1121C83.5607 19.3172 83.9307 20.6808 83.9307 22.203C83.9307 23.7252 83.5607 25.0994 82.8207 26.3256C82.0808 27.5519 81.0765 28.5244 79.808 29.2432C78.5395 29.9409 77.1019 30.2897 75.4951 30.2897ZM75.4951 25.8817C76.1928 25.8817 76.8059 25.7337 77.3345 25.4377C77.863 25.1206 78.2647 24.6872 78.5395 24.1375C78.8355 23.5667 78.9835 22.9218 78.9835 22.203C78.9835 21.4842 78.8355 20.8605 78.5395 20.332C78.2435 19.7823 77.8313 19.3595 77.3027 19.0635C76.7953 18.7463 76.1928 18.5878 75.4951 18.5878C74.8186 18.5878 74.2161 18.7463 73.6875 19.0635C73.159 19.3595 72.7467 19.7823 72.4507 20.332C72.1547 20.8817 72.0068 21.5159 72.0068 22.2347C72.0068 22.9324 72.1547 23.5667 72.4507 24.1375C72.7467 24.6872 73.159 25.1206 73.6875 25.4377C74.2161 25.7337 74.8186 25.8817 75.4951 25.8817Z" fill="#9B9A84"/>
<path fill-rule="evenodd" clip-rule="evenodd" d="M87.7734 35.9658C89.063 36.5577 90.5535 36.8537 92.2449 36.8537C93.8939 36.8537 95.3633 36.526 96.6529 35.8706C97.9426 35.2152 98.9573 34.3062 99.6973 33.1434C100.437 31.9806 100.808 30.6064 100.808 29.0207V14.5281H96.0503V15.5636C95.6965 15.2658 95.2947 15.0158 94.8453 14.8135C94.0207 14.4118 93.0799 14.2109 92.0229 14.2109C90.6064 14.2109 89.3484 14.5492 88.2491 15.2257C87.1496 15.8811 86.2829 16.7902 85.6486 17.953C85.0143 19.0947 84.6973 20.3843 84.6973 21.822C84.6973 23.2385 85.0143 24.5281 85.6486 25.6909C86.2829 26.8537 87.1496 27.7734 88.2491 28.4499C89.3484 29.1264 90.6064 29.4647 92.0229 29.4647C93.0588 29.4647 93.9996 29.2639 94.8453 28.8622C95.2549 28.6676 95.6249 28.4383 95.9552 28.1742V29.1476C95.9552 30.2258 95.6064 31.0609 94.9087 31.6529C94.2322 32.2449 93.2914 32.5408 92.0863 32.5408C91.1138 32.5408 90.2787 32.3717 89.581 32.0334C88.9045 31.6952 88.2913 31.1983 87.7416 30.5429L84.7607 33.5239C85.5006 34.581 86.5049 35.395 87.7734 35.9658ZM94.6867 24.7078C94.2004 25.0038 93.6191 25.1518 92.9425 25.1518C92.266 25.1518 91.674 25.0038 91.1666 24.7078C90.6803 24.4118 90.2998 24.0101 90.025 23.5027C89.7501 22.9742 89.6127 22.4139 89.6127 21.822C89.6127 21.1877 89.7501 20.6169 90.025 20.1095C90.2998 19.6021 90.6909 19.2004 91.1983 18.9044C91.7057 18.6084 92.2871 18.4604 92.9425 18.4604C93.6191 18.4604 94.2004 18.6084 94.6867 18.9044C95.1941 19.2004 95.5746 19.6021 95.8284 20.1095C96.1032 20.6169 96.2406 21.1877 96.2406 21.822C96.2406 22.4562 96.1032 23.027 95.8284 23.5344C95.5746 24.0207 95.1941 24.4118 94.6867 24.7078Z" fill="#9B9A84"/>
<path fill-rule="evenodd" clip-rule="evenodd" d="M111.019 30.2897C109.433 30.2897 107.995 29.9409 106.706 29.2432C105.437 28.5244 104.433 27.5519 103.693 26.3256C102.953 25.0994 102.583 23.7252 102.583 22.203C102.583 20.6808 102.953 19.3172 103.693 18.1121C104.433 16.907 105.437 15.9556 106.706 15.258C107.974 14.5391 109.412 14.1797 111.019 14.1797C112.625 14.1797 114.063 14.5286 115.331 15.2262C116.6 15.9239 117.604 16.8859 118.344 18.1121C119.084 19.3172 119.454 20.6808 119.454 22.203C119.454 23.7252 119.084 25.0994 118.344 26.3256C117.604 27.5519 116.6 28.5244 115.331 29.2432C114.063 29.9409 112.625 30.2897 111.019 30.2897ZM111.019 25.8817C111.716 25.8817 112.329 25.7337 112.858 25.4377C113.386 25.1206 113.788 24.6872 114.063 24.1375C114.359 23.5667 114.507 22.9218 114.507 22.203C114.507 21.4842 114.359 20.8605 114.063 20.332C113.767 19.7823 113.355 19.3595 112.826 19.0635C112.319 18.7463 111.716 18.5878 111.019 18.5878C110.342 18.5878 109.739 18.7463 109.211 19.0635C108.682 19.3595 108.27 19.7823 107.974 20.332C107.678 20.8817 107.53 21.5159 107.53 22.2347C107.53 22.9324 107.678 23.5667 107.974 24.1375C108.27 24.6872 108.682 25.1206 109.211 25.4377C109.739 25.7337 110.342 25.8817 111.019 25.8817Z" fill="#9B9A84"/>
<path fill-rule="evenodd" clip-rule="evenodd" d="M137.749 30.2575C136.714 30.2575 135.762 30.0567 134.895 29.655C134.439 29.4436 134.027 29.1912 133.659 28.8978V36.4415H128.87V14.5281H133.722V15.5918C134.074 15.3039 134.465 15.055 134.895 14.8452C135.762 14.4223 136.714 14.2109 137.749 14.2109C139.208 14.2109 140.498 14.5598 141.618 15.2575C142.76 15.9551 143.648 16.9065 144.282 18.1116C144.938 19.3167 145.265 20.6909 145.265 22.2342C145.265 23.7776 144.938 25.1518 144.282 26.3569C143.648 27.562 142.76 28.5133 141.618 29.211C140.498 29.9087 139.208 30.2575 137.749 30.2575ZM136.862 25.8812C137.559 25.8812 138.162 25.7226 138.669 25.4055C139.198 25.0884 139.61 24.6549 139.906 24.1053C140.202 23.5556 140.35 22.9319 140.35 22.2342C140.35 21.5154 140.202 20.8812 139.906 20.3315C139.61 19.7818 139.198 19.359 138.669 19.063C138.162 18.7458 137.57 18.5873 136.893 18.5873C136.217 18.5873 135.614 18.7458 135.086 19.063C134.578 19.359 134.177 19.7818 133.881 20.3315C133.585 20.8812 133.437 21.5154 133.437 22.2342C133.437 22.9319 133.574 23.5556 133.849 24.1053C134.145 24.6549 134.557 25.0884 135.086 25.4055C135.614 25.7226 136.206 25.8812 136.862 25.8812Z" fill="#9B9A84"/>
<path d="M150.014 29.972C150.902 30.2046 151.8 30.3208 152.709 30.3208C154.633 30.3208 156.155 29.8769 157.276 28.9889C158.417 28.101 158.988 26.9065 158.988 25.4054C158.988 24.4329 158.809 23.6506 158.449 23.0587C158.09 22.4456 157.625 21.9593 157.054 21.5999C156.483 21.2405 155.88 20.955 155.246 20.7436C154.612 20.5322 154.009 20.3525 153.439 20.2045C152.868 20.0565 152.403 19.8874 152.043 19.6971C151.684 19.5068 151.504 19.2531 151.504 18.936C151.504 18.64 151.642 18.418 151.916 18.27C152.191 18.1009 152.603 18.0164 153.153 18.0164C153.724 18.0164 154.305 18.1326 154.897 18.3652C155.51 18.5977 156.06 18.9995 156.546 19.5703L159.305 16.7796C158.608 15.8916 157.699 15.2256 156.578 14.7817C155.479 14.3166 154.274 14.084 152.963 14.084C151.716 14.084 150.627 14.2954 149.697 14.7182C148.766 15.1411 148.047 15.7225 147.54 16.4624C147.033 17.1812 146.779 18.0375 146.779 19.0312C146.779 19.9614 146.959 20.7331 147.318 21.3462C147.677 21.9381 148.143 22.4033 148.713 22.7415C149.284 23.0798 149.887 23.3441 150.521 23.5343C151.155 23.7246 151.758 23.9043 152.329 24.0735C152.899 24.2215 153.365 24.4012 153.724 24.6126C154.105 24.8029 154.295 25.0883 154.295 25.4688C154.295 25.7648 154.136 25.9973 153.819 26.1665C153.523 26.3356 153.09 26.4202 152.519 26.4202C151.694 26.4202 150.933 26.2722 150.236 25.9762C149.538 25.6591 148.935 25.2257 148.428 24.676L145.669 27.4667C146.198 28.0375 146.832 28.545 147.572 28.9889C148.333 29.4117 149.147 29.7394 150.014 29.972Z" fill="#9B9A84"/>
<path d="M167.835 30.2904C166.419 30.2904 165.161 30.005 164.062 29.4342C162.983 28.8422 162.138 28.0388 161.525 27.024C160.911 25.9881 160.605 24.8042 160.605 23.4722V14.5293H165.457V23.4088C165.457 23.9373 165.541 24.3919 165.711 24.7724C165.901 25.153 166.176 25.449 166.535 25.6604C166.895 25.8718 167.328 25.9775 167.835 25.9775C168.554 25.9775 169.125 25.7555 169.548 25.3115C169.971 24.8464 170.182 24.2122 170.182 23.4088V14.5293H175.034V23.4405C175.034 24.7936 174.728 25.9881 174.114 27.024C173.501 28.0388 172.656 28.8422 171.577 29.4342C170.499 30.005 169.252 30.2904 167.835 30.2904Z" fill="#9B9A84"/>
<path d="M182.298 14.5281H177.446V29.9404H182.298V20.934C182.298 20.4055 182.404 19.9615 182.615 19.6021C182.848 19.2427 183.155 18.9678 183.535 18.7776C183.916 18.5661 184.349 18.4604 184.835 18.4604C185.533 18.4604 186.114 18.6824 186.579 19.1264C187.066 19.5492 187.309 20.1518 187.309 20.934V29.9404H192.161V20.934C192.161 20.4055 192.267 19.9615 192.478 19.6021C192.711 19.2427 193.017 18.9678 193.398 18.7776C193.778 18.5661 194.212 18.4604 194.698 18.4604C195.396 18.4604 195.977 18.6824 196.442 19.1264C196.928 19.5492 197.171 20.1518 197.171 20.934V29.9404H202.024V20.3949C202.024 19.1053 201.749 18.0059 201.199 17.0968C200.67 16.1665 199.941 15.4583 199.011 14.9721C198.102 14.4646 197.055 14.2109 195.871 14.2109C194.666 14.2109 193.577 14.4752 192.605 15.0038C191.973 15.3405 191.421 15.7751 190.948 16.3075C190.507 15.7506 189.971 15.2949 189.338 14.9403C188.493 14.4541 187.531 14.2109 186.453 14.2109C185.311 14.2109 184.286 14.4541 183.377 14.9403C182.981 15.1426 182.622 15.3849 182.298 15.6672V14.5281Z" fill="#9B9A84"/>
</svg>
