<svg width="167" height="41" viewBox="0 0 167 41" fill="none" xmlns="http://www.w3.org/2000/svg">
<path d="M48.9844 28.1053H60.9364V24.5053H53.2324V10.9453H48.9844V28.1053Z" fill="#9B9A84"/>
<path d="M68.0178 25.7064C66.3138 25.7064 65.4258 24.2184 65.4258 21.9864C65.4258 19.7544 66.3138 18.2424 68.0178 18.2424C69.7218 18.2424 70.6338 19.7544 70.6338 21.9864C70.6338 24.2184 69.7218 25.7064 68.0178 25.7064ZM68.0418 28.4904C72.0018 28.4904 74.5938 25.6824 74.5938 21.9864C74.5938 18.2904 72.0018 15.4824 68.0418 15.4824C64.1058 15.4824 61.4658 18.2904 61.4658 21.9864C61.4658 25.6824 64.1058 28.4904 68.0418 28.4904Z" fill="#9B9A84"/>
<path d="M81.4486 32.353C83.2726 32.353 84.8806 31.945 85.9606 30.985C86.9446 30.097 87.5926 28.753 87.5926 26.905V15.817H83.8486V17.137H83.8006C83.0806 16.105 81.9766 15.457 80.3446 15.457C77.2966 15.457 75.1846 18.001 75.1846 21.601C75.1846 25.369 77.7526 27.433 80.5126 27.433C82.0006 27.433 82.9366 26.833 83.6566 26.017H83.7526V27.241C83.7526 28.729 83.0566 29.593 81.4006 29.593C80.1046 29.593 79.4566 29.041 79.2406 28.393H75.4486C75.8326 30.961 78.0646 32.353 81.4486 32.353ZM81.4246 24.529C79.9606 24.529 79.0006 23.329 79.0006 21.481C79.0006 19.609 79.9606 18.409 81.4246 18.409C83.0566 18.409 83.9206 19.801 83.9206 21.457C83.9206 23.185 83.1286 24.529 81.4246 24.529Z" fill="#9B9A84"/>
<path d="M95.2903 25.7064C93.5863 25.7064 92.6983 24.2184 92.6983 21.9864C92.6983 19.7544 93.5863 18.2424 95.2903 18.2424C96.9943 18.2424 97.9063 19.7544 97.9063 21.9864C97.9063 24.2184 96.9943 25.7064 95.2903 25.7064ZM95.3143 28.4904C99.2743 28.4904 101.866 25.6824 101.866 21.9864C101.866 18.2904 99.2743 15.4824 95.3143 15.4824C91.3783 15.4824 88.7383 18.2904 88.7383 21.9864C88.7383 25.6824 91.3783 28.4904 95.3143 28.4904Z" fill="#9B9A84"/>
<path d="M103.009 28.1053H106.921V15.8173H103.009V28.1053ZM103.009 14.1133H106.921V10.9453H103.009V14.1133Z" fill="#9B9A84"/>
<path d="M108.618 32.161H112.53V26.833H112.578C113.346 27.865 114.474 28.489 116.058 28.489C119.274 28.489 121.41 25.945 121.41 21.961C121.41 18.265 119.418 15.457 116.154 15.457C114.474 15.457 113.274 16.201 112.434 17.305H112.362V15.817H108.618V32.161ZM115.05 25.465C113.37 25.465 112.41 24.097 112.41 22.105C112.41 20.113 113.274 18.601 114.978 18.601C116.658 18.601 117.45 19.993 117.45 22.105C117.45 24.193 116.538 25.465 115.05 25.465Z" fill="#9B9A84"/>
<path d="M127.779 28.489C130.995 28.489 133.371 27.097 133.371 24.409C133.371 21.265 130.827 20.713 128.667 20.353C127.107 20.065 125.715 19.945 125.715 19.081C125.715 18.313 126.459 17.953 127.419 17.953C128.499 17.953 129.243 18.289 129.387 19.393H132.987C132.795 16.969 130.923 15.457 127.443 15.457C124.539 15.457 122.139 16.801 122.139 19.393C122.139 22.273 124.419 22.849 126.555 23.209C128.187 23.497 129.675 23.617 129.675 24.721C129.675 25.513 128.931 25.945 127.755 25.945C126.459 25.945 125.643 25.345 125.499 24.121H121.803C121.923 26.833 124.179 28.489 127.779 28.489Z" fill="#9B9A84"/>
<path d="M138.685 28.4664C140.389 28.4664 141.469 27.7944 142.357 26.5944H142.429V28.1064H146.173V15.8184H142.261V22.6824C142.261 24.1464 141.445 25.1544 140.101 25.1544C138.853 25.1544 138.253 24.4104 138.253 23.0664V15.8184H134.365V23.8824C134.365 26.6184 135.853 28.4664 138.685 28.4664Z" fill="#9B9A84"/>
<path d="M147.875 28.105H151.787V21.217C151.787 19.753 152.507 18.721 153.731 18.721C154.907 18.721 155.459 19.489 155.459 20.809V28.105H159.371V21.217C159.371 19.753 160.067 18.721 161.315 18.721C162.491 18.721 163.043 19.489 163.043 20.809V28.105H166.955V20.113C166.955 17.353 165.563 15.457 162.779 15.457C161.195 15.457 159.875 16.129 158.915 17.617H158.867C158.243 16.297 157.019 15.457 155.411 15.457C153.635 15.457 152.459 16.297 151.691 17.569H151.619V15.817H147.875V28.105Z" fill="#9B9A84"/>
<path d="M25.1169 1.13003L21.1839 0.0761719L17.8695 12.4457L14.8772 1.27841L10.9441 2.33227L14.1771 14.3977L6.12449 6.34515L3.2453 9.22434L12.078 18.0571L1.07827 15.1097L0.0244141 19.0427L12.043 22.2631C11.9054 21.6696 11.8326 21.0512 11.8326 20.4158C11.8326 15.9182 15.4786 12.2722 19.9762 12.2722C24.4738 12.2722 28.1198 15.9182 28.1198 20.4158C28.1198 21.0471 28.0479 21.6617 27.912 22.2517L38.8347 25.1784L39.8885 21.2454L27.8221 18.0122L38.8226 15.0646L37.7687 11.1316L25.7028 14.3646L33.7554 6.31209L30.8762 3.4329L22.166 12.1431L25.1169 1.13003Z" fill="#9B9A84"/>
<path d="M27.9009 22.2979C27.5637 23.7235 26.8518 25.0042 25.875 26.0303L33.788 33.9434L36.6672 31.0642L27.9009 22.2979Z" fill="#9B9A84"/>
<path d="M25.7952 26.1133C24.8066 27.123 23.5573 27.8765 22.1562 28.2648L25.0357 39.0108L28.9687 37.9569L25.7952 26.1133Z" fill="#9B9A84"/>
<path d="M22.0094 28.3036C21.3594 28.4707 20.6781 28.5595 19.976 28.5595C19.2238 28.5595 18.4954 28.4575 17.8039 28.2666L14.9219 39.0224L18.8549 40.0762L22.0094 28.3036Z" fill="#9B9A84"/>
<path d="M17.6648 28.2272C16.2852 27.8196 15.0581 27.0565 14.0897 26.0439L6.15723 33.9764L9.03642 36.8556L17.6648 28.2272Z" fill="#9B9A84"/>
<path d="M14.0243 25.9733C13.0725 24.9543 12.3792 23.6907 12.0492 22.2871L1.09082 25.2234L2.14467 29.1564L14.0243 25.9733Z" fill="#9B9A84"/>
</svg>
