<svg width="131" height="131" viewBox="0 0 131 131" fill="none" xmlns="http://www.w3.org/2000/svg">
<circle cx="65.4941" cy="65.1416" r="65" fill="white"/>
<path d="M70.3746 19.5319C69.6383 19.4635 69.0181 19.2747 68.5141 18.9653C68.0102 18.656 67.6102 18.2775 67.3141 17.8299C67.0255 17.3829 66.8258 16.9068 66.7152 16.4013C66.6046 15.8959 66.5703 15.4163 66.6124 14.9626L66.6352 14.7171C66.6822 14.2113 66.8065 13.7202 67.0083 13.2438C67.2175 12.7681 67.5081 12.3449 67.8801 11.9743C68.2521 11.6037 68.7058 11.3232 69.2411 11.1328C69.7846 10.9357 70.4096 10.8699 71.1163 10.9355C71.8527 11.0038 72.4799 11.1971 72.9981 11.5153C73.5243 11.8267 73.9287 12.2393 74.2111 12.7532C74.4942 13.2596 74.6395 13.8358 74.6471 14.4817L73.0516 14.3336C73.0266 13.9562 72.9217 13.6314 72.7369 13.3591C72.5602 13.0801 72.3216 12.8629 72.0209 12.7075C71.7209 12.5446 71.3738 12.4449 70.9796 12.4083C70.5779 12.371 70.2143 12.4085 69.8888 12.5208C69.5639 12.6257 69.2856 12.795 69.0539 13.0285C68.8222 13.2621 68.6346 13.5448 68.4913 13.8766C68.3554 14.2091 68.2681 14.5836 68.2295 15.0002C68.1922 15.4018 68.2097 15.7786 68.2821 16.1304C68.3619 16.4829 68.4976 16.7994 68.6891 17.0797C68.8814 17.3526 69.1271 17.5743 69.4264 17.7446C69.7332 17.9156 70.0948 18.0204 70.5113 18.0591C71.1213 18.1157 71.6483 18.0146 72.0925 17.7557C72.5448 17.4901 72.8408 17.0899 72.9804 16.5552L74.5759 16.7033C74.4477 17.2766 74.2012 17.7901 73.8365 18.2439C73.4718 18.6977 72.997 19.0438 72.4122 19.2821C71.8274 19.5204 71.1482 19.6037 70.3746 19.5319Z" fill="#262626"/>
<path d="M77.8024 20.9496C77.2828 20.8106 76.8468 20.605 76.4943 20.3328C76.1419 20.0606 75.8662 19.7471 75.6672 19.3923C75.4703 19.0303 75.3479 18.6495 75.3001 18.2501C75.2596 17.8526 75.2914 17.459 75.3957 17.0693L75.4565 16.842C75.5647 16.4379 75.7392 16.0747 75.9801 15.7525C76.2301 15.425 76.5299 15.1573 76.8794 14.9492C77.2381 14.7359 77.6371 14.6029 78.0765 14.5504C78.5178 14.4906 78.9875 14.5274 79.4854 14.6606C79.9833 14.7939 80.4085 14.9966 80.761 15.2688C81.1154 15.5337 81.3911 15.8472 81.5881 16.2093C81.7942 16.566 81.9202 16.9477 81.966 17.3544C82.0138 17.7538 81.9836 18.1556 81.8755 18.5597L81.8147 18.787C81.7104 19.1767 81.5378 19.5326 81.2969 19.8548C81.0632 20.179 80.7707 20.4487 80.4192 20.6639C80.0697 20.872 79.6743 21.0059 79.2329 21.0657C78.7916 21.1254 78.3148 21.0868 77.8024 20.9496ZM78.1471 19.6615C78.5152 19.76 78.8467 19.7637 79.1418 19.6725C79.4387 19.5741 79.6889 19.4052 79.8922 19.1657C80.0974 18.9191 80.2473 18.6189 80.3419 18.2653C80.4385 17.9045 80.4549 17.5686 80.3911 17.2577C80.3366 16.9415 80.2006 16.6693 79.9833 16.441C79.7752 16.2074 79.4943 16.0433 79.1407 15.9487C78.7871 15.8541 78.4582 15.855 78.154 15.9515C77.8589 16.0426 77.6052 16.2106 77.3928 16.4553C77.1823 16.6929 77.0287 16.992 76.9322 17.3529C76.8376 17.7065 76.8175 18.0414 76.8721 18.3576C76.9358 18.6685 77.0718 18.9407 77.2799 19.1743C77.49 19.4006 77.7791 19.563 78.1471 19.6615Z" fill="#262626"/>
<path d="M81.7508 21.9508L84.195 16.3788L85.3237 16.8739L84.2749 19.2649L84.1723 19.2199C84.4214 18.6521 84.7037 18.213 85.0193 17.9028C85.3378 17.5857 85.6862 17.3959 86.0644 17.3334C86.4494 17.2739 86.8642 17.3417 87.3089 17.5367L87.3705 17.5637C88.0341 17.8548 88.4423 18.2909 88.5953 18.8719C88.7513 19.4461 88.6433 20.1573 88.2712 21.0056L86.8713 24.1969L85.445 23.5713L86.8989 20.2568C87.0489 19.9147 87.0712 19.5942 86.9659 19.2951C86.8673 18.999 86.6471 18.7759 86.305 18.6259C85.9561 18.4728 85.6242 18.4577 85.3093 18.5806C85.0042 18.6997 84.7721 18.9405 84.613 19.3031L83.1771 22.5765L81.7508 21.9508Z" fill="#262626"/>
<path d="M90.1852 26.2975C89.7021 26.0137 89.3387 25.7179 89.095 25.4101C88.8615 25.0997 88.7545 24.7509 88.774 24.3638C88.7972 23.9702 88.9583 23.519 89.2572 23.0102L92.0593 18.2623L93.3153 19.0002L90.4622 23.835C90.3108 24.0926 90.2611 24.332 90.3132 24.5532C90.3754 24.7717 90.5354 24.9566 90.793 25.108L91.6142 25.5904L90.9388 26.7402L90.1852 26.2975ZM89.7715 20.2323L90.3504 19.2468L94.0605 21.4262L93.4815 22.4117L89.7715 20.2323Z" fill="#262626"/>
<path d="M94.2661 29.1327L95.3496 27.6903L95.1436 27.5355L96.3483 25.9318C96.5591 25.6511 96.6475 25.3905 96.6133 25.1499C96.5791 24.9093 96.4187 24.6814 96.132 24.466C95.9827 24.3538 95.8013 24.2222 95.5877 24.0711C95.3742 23.9201 95.1554 23.7698 94.9315 23.6202C94.7179 23.4691 94.523 23.3367 94.3468 23.2231L95.141 22.1659C95.2873 22.2571 95.4516 22.3618 95.6338 22.48C95.816 22.5982 95.9967 22.7246 96.1758 22.8592C96.3655 22.9923 96.5409 23.1194 96.7022 23.2406C97.2039 23.6175 97.5697 23.995 97.7995 24.3732C98.0352 24.7558 98.1313 25.1503 98.0876 25.5567C98.05 25.9675 97.8606 26.3999 97.5196 26.8538L95.2516 29.873L94.2661 29.1327ZM92.604 28.0804C92.2516 27.8156 91.9881 27.5196 91.8136 27.1923C91.645 26.8694 91.5736 26.5355 91.5992 26.1904C91.6309 25.8497 91.7701 25.5152 92.0168 25.1867C92.286 24.8283 92.5925 24.6007 92.9362 24.5039C93.2859 24.4115 93.6616 24.4275 94.0634 24.5518C94.4712 24.6806 94.8901 24.9065 95.3202 25.2296L96.449 26.0776L95.8904 26.8212L94.7436 25.9597C94.4569 25.7444 94.1821 25.65 93.9191 25.6767C93.6666 25.7019 93.4574 25.825 93.2913 26.046C93.1253 26.267 93.0654 26.5023 93.1115 26.7518C93.1636 27.0058 93.333 27.2405 93.6197 27.4559C93.7929 27.586 93.9736 27.675 94.1618 27.723C94.3605 27.7695 94.5637 27.7539 94.7714 27.6764C94.9896 27.5974 95.2034 27.431 95.4128 27.1771L95.4549 27.7554C95.1693 28.0734 94.8703 28.2973 94.558 28.427C94.2516 28.5612 93.9318 28.6013 93.5987 28.5473C93.276 28.4918 92.9445 28.3361 92.604 28.0804Z" fill="#262626"/>
<path d="M98.2413 33.0427C97.867 32.6669 97.6063 32.2782 97.4591 31.8764C97.3173 31.48 97.2599 31.0837 97.2871 30.6876C97.3195 30.2967 97.4233 29.9245 97.5983 29.571C97.7733 29.2174 97.9984 28.9035 98.2736 28.6294L98.4244 28.4791C98.7155 28.1892 99.0381 27.9574 99.3924 27.7837C99.7572 27.6101 100.135 27.5131 100.526 27.4927C100.922 27.4671 101.316 27.5286 101.706 27.6772C102.107 27.8259 102.487 28.0802 102.846 28.4401C103.22 28.8158 103.481 29.2257 103.628 29.6697C103.78 30.1084 103.814 30.5443 103.728 30.9773C103.648 31.4156 103.447 31.8166 103.124 32.1805L102.056 31.1088C102.252 30.8609 102.342 30.5811 102.327 30.2694C102.317 29.963 102.173 29.6696 101.893 29.3891C101.651 29.1456 101.389 28.9998 101.11 28.9518C100.835 28.909 100.555 28.9507 100.269 29.0769C99.9892 29.1979 99.7168 29.3902 99.4522 29.6538C99.1981 29.9068 99.0048 30.1732 98.8722 30.4529C98.7449 30.7379 98.7021 31.0178 98.7438 31.2926C98.7908 31.5726 98.9409 31.8396 99.1939 32.0937C99.3837 32.2842 99.5816 32.414 99.7874 32.4831C99.9933 32.5521 100.197 32.5657 100.397 32.5239C100.604 32.4873 100.794 32.4031 100.968 32.2714L102.036 33.3431C101.666 33.6699 101.256 33.8725 100.807 33.9509C100.368 34.0293 99.9245 33.9914 99.4758 33.8374C99.0324 33.6886 98.6209 33.4237 98.2413 33.0427Z" fill="#262626"/>
<path d="M102.602 37.9219C102.254 37.4828 102.022 37.0757 101.906 36.7006C101.8 36.3268 101.826 35.9629 101.984 35.609C102.148 35.2504 102.461 34.8879 102.924 34.5214L107.252 31.1064L108.157 32.2481L103.75 35.7257C103.515 35.9113 103.383 36.1166 103.351 36.3416C103.33 36.5679 103.413 36.7981 103.598 37.0323L104.19 37.7788L103.145 38.6069L102.602 37.9219ZM104.407 32.1168L105.303 31.407L107.975 34.7795L107.079 35.4893L104.407 32.1168Z" fill="#262626"/>
<path d="M105.987 43.5642C105.661 42.9422 105.613 42.3516 105.843 41.7926C106.077 41.2403 106.597 40.7527 107.404 40.3299L110.531 38.6924L111.254 40.0722L108.008 41.7721C107.677 41.9453 107.461 42.1766 107.359 42.4659C107.264 42.7517 107.3 43.0534 107.466 43.371C107.633 43.6887 107.871 43.8931 108.18 43.9842C108.492 44.0819 108.824 44.0389 109.175 43.8552L112.361 42.1865L113.084 43.5663L107.684 46.3943L107.112 45.3023L109.405 44.1015L109.462 44.2107C108.919 44.4949 108.43 44.6628 107.993 44.7144C107.556 44.7661 107.172 44.7014 106.841 44.5205C106.511 44.3396 106.236 44.0407 106.018 43.6238L105.987 43.5642Z" fill="#262626"/>
<path d="M108.796 49.9688C108.517 49.1799 108.463 48.5016 108.635 47.9338C108.816 47.3706 109.199 46.9739 109.783 46.7437L110.25 48.0644C110.06 48.1552 109.919 48.3278 109.827 48.5823C109.735 48.8367 109.763 49.1753 109.912 49.5979C110.037 49.9501 110.199 50.2059 110.398 50.3653C110.599 50.5318 110.809 50.5765 111.027 50.4993C111.217 50.4321 111.34 50.2976 111.396 50.0958C111.454 49.901 111.433 49.6072 111.334 49.2144L111.207 48.6886C111.051 48.0228 111.06 47.465 111.234 47.0154C111.408 46.5657 111.741 46.2538 112.234 46.0795C112.629 45.9401 112.995 45.9218 113.332 46.0244C113.669 46.127 113.966 46.3273 114.222 46.6251C114.487 46.9275 114.699 47.3041 114.859 47.7548C115.108 48.4592 115.154 49.0844 114.999 49.6307C114.843 50.1769 114.47 50.5663 113.878 50.799L113.412 49.4784C113.604 49.3946 113.738 49.2363 113.814 49.0034C113.89 48.7704 113.868 48.4814 113.746 48.1363C113.636 47.8264 113.492 47.6081 113.312 47.4813C113.133 47.3546 112.948 47.3249 112.758 47.3921C112.575 47.4568 112.457 47.5735 112.406 47.7421C112.357 47.9179 112.37 48.1669 112.444 48.4892L112.571 49.015C112.739 49.7161 112.739 50.3103 112.571 50.7977C112.405 51.2921 112.065 51.6302 111.55 51.8119C111.17 51.9463 110.802 51.9576 110.445 51.8459C110.098 51.7387 109.782 51.5258 109.495 51.2073C109.208 50.8887 108.975 50.4759 108.796 49.9688Z" fill="#262626"/>
<path d="M115.533 60.7049L116.522 58.8496L117.721 58.6846L119.174 60.2039L118.181 60.9626L117.413 59.6545L117.08 59.7003L116.694 61.1673L115.533 60.7049ZM119.915 58.4393L117.81 58.5139L117.067 57.5529L117.661 55.5371L118.812 56.0121L118.067 57.3362L118.273 57.602L119.733 57.1975L119.915 58.4393ZM115.729 55.8028L116.845 57.5835L116.389 58.7094L114.343 59.2059L114.195 57.9707L115.698 57.9563L115.824 57.6448L114.76 56.5696L115.729 55.8028Z" fill="#262626"/>
<path d="M111.095 69.926C111.162 69.1894 111.349 68.5689 111.658 68.0643C111.966 67.5597 112.344 67.1589 112.791 66.8619C113.237 66.5723 113.713 66.3717 114.218 66.26C114.723 66.1484 115.203 66.1131 115.656 66.1543L115.902 66.1765C116.408 66.2224 116.899 66.3458 117.376 66.5466C117.852 66.7548 118.276 67.0445 118.647 67.4158C119.019 67.787 119.3 68.2401 119.492 68.775C119.69 69.3181 119.757 69.943 119.693 70.6498C119.626 71.3863 119.434 72.014 119.117 72.5328C118.807 73.0597 118.395 73.4649 117.882 73.7483C117.376 74.0325 116.8 74.179 116.154 74.1879L116.299 72.5921C116.676 72.5663 117.001 72.4608 117.273 72.2754C117.551 72.0982 117.768 71.859 117.923 71.558C118.085 71.2577 118.184 70.9104 118.22 70.5161C118.256 70.1144 118.218 69.7508 118.105 69.4256C117.999 69.1009 117.83 68.823 117.596 68.5917C117.362 68.3605 117.078 68.1735 116.746 68.0309C116.414 67.8957 116.039 67.8092 115.622 67.7714C115.22 67.7349 114.844 67.7533 114.492 67.8264C114.14 67.9069 113.824 68.0432 113.544 68.2354C113.271 68.4282 113.05 68.6744 112.88 68.974C112.71 69.2811 112.606 69.643 112.568 70.0596C112.513 70.6697 112.615 71.1965 112.875 71.6401C113.141 72.0919 113.542 72.387 114.077 72.5255L113.932 74.1214C113.359 73.9943 112.845 73.7489 112.39 73.3851C111.936 73.0213 111.588 72.5473 111.349 71.963C111.109 71.3787 111.025 70.6997 111.095 69.926Z" fill="#262626"/>
<path d="M109.693 77.3577C109.831 76.8379 110.035 76.4014 110.307 76.0484C110.578 75.6953 110.891 75.419 111.246 75.2193C111.607 75.0216 111.988 74.8984 112.387 74.8498C112.784 74.8084 113.178 74.8394 113.568 74.9429L113.795 75.0032C114.2 75.1105 114.563 75.2843 114.886 75.5245C115.214 75.7738 115.482 76.073 115.691 76.4221C115.905 76.7804 116.039 77.1791 116.093 77.6184C116.153 78.0596 116.118 78.5293 115.985 79.0275C115.853 79.5257 115.651 79.9513 115.38 80.3044C115.116 80.6593 114.803 80.9357 114.441 81.1334C114.085 81.3403 113.703 81.4671 113.297 81.5138C112.897 81.5624 112.496 81.5331 112.091 81.4258L111.864 81.3654C111.474 81.262 111.118 81.0901 110.795 80.8499C110.47 80.6169 110.2 80.3249 109.984 79.9739C109.775 79.6248 109.64 79.2297 109.58 78.7885C109.519 78.3473 109.557 77.8704 109.693 77.3577ZM110.982 77.6997C110.884 78.068 110.881 78.3995 110.973 78.6944C111.072 78.9912 111.241 79.241 111.481 79.4437C111.728 79.6484 112.029 79.7977 112.382 79.8916C112.743 79.9874 113.079 80.0031 113.39 79.9387C113.706 79.8834 113.978 79.7469 114.206 79.5292C114.439 79.3205 114.603 79.0393 114.696 78.6855C114.79 78.3317 114.789 78.0028 114.692 77.6988C114.6 77.4039 114.431 77.1505 114.186 76.9386C113.948 76.7286 113.649 76.5757 113.288 76.4799C112.934 76.3861 112.599 76.3667 112.283 76.422C111.972 76.4864 111.7 76.6229 111.467 76.8315C111.241 77.0421 111.079 77.3315 110.982 77.6997Z" fill="#262626"/>
<path d="M108.699 81.3071L114.277 83.7395L113.784 84.8693L111.391 83.8256L111.435 83.7229C112.004 83.9707 112.443 84.2521 112.754 84.567C113.072 84.8849 113.263 85.2329 113.326 85.6109C113.386 85.9958 113.319 86.4108 113.125 86.8559L113.098 86.9175C112.809 87.5817 112.373 87.9909 111.793 88.1451C111.219 88.3023 110.507 88.1958 109.658 87.8255L106.464 86.4323L107.087 85.0046L110.404 86.4516C110.747 86.6009 111.067 86.6225 111.366 86.5166C111.662 86.4174 111.885 86.1967 112.034 85.8543C112.186 85.5051 112.201 85.1731 112.077 84.8584C111.957 84.5536 111.716 84.322 111.353 84.1638L108.077 82.7347L108.699 81.3071Z" fill="#262626"/>
<path d="M104.37 89.7518C104.653 89.2681 104.948 88.9041 105.255 88.6597C105.565 88.4256 105.914 88.3179 106.301 88.3365C106.695 88.359 107.146 88.5191 107.656 88.817L112.409 91.6092L111.674 92.8667L106.833 90.0236C106.575 89.8728 106.336 89.8236 106.115 89.8761C105.896 89.9388 105.712 90.0991 105.561 90.3571L105.08 91.1793L103.929 90.5063L104.37 89.7518ZM110.435 89.3254L111.421 89.9023L109.25 93.6169L108.263 93.04L110.435 89.3254Z" fill="#262626"/>
<path d="M101.544 93.8381L102.988 94.9187L103.143 94.7123L104.749 95.9137C105.03 96.124 105.291 96.2118 105.531 96.1771C105.772 96.1424 105.999 95.9815 106.214 95.6944C106.326 95.5448 106.457 95.3632 106.608 95.1493C106.758 94.9355 106.908 94.7164 107.057 94.4921C107.208 94.2782 107.34 94.0831 107.453 93.9066L108.512 94.6986C108.421 94.8452 108.317 95.0096 108.199 95.1921C108.081 95.3745 107.955 95.5554 107.821 95.7349C107.688 95.9248 107.562 96.1005 107.441 96.262C107.065 96.7645 106.688 97.1311 106.31 97.3616C105.928 97.5982 105.534 97.6951 105.127 97.6523C104.717 97.6155 104.284 97.427 103.829 97.087L100.805 94.8252L101.544 93.8381ZM102.592 92.1739C102.856 91.8209 103.152 91.5569 103.479 91.3816C103.801 91.2124 104.135 91.1402 104.48 91.1652C104.821 91.1961 105.156 91.3346 105.485 91.5807C105.844 91.8492 106.072 92.1552 106.17 92.4987C106.263 92.8482 106.247 93.2239 106.124 93.626C105.996 94.034 105.771 94.4534 105.449 94.8841L104.603 96.0147L103.858 95.4577L104.718 94.3091C104.932 94.022 105.026 93.7469 104.999 93.484C104.973 93.2316 104.85 93.0226 104.628 92.857C104.407 92.6915 104.171 92.632 103.922 92.6786C103.668 92.7313 103.434 92.9011 103.219 93.1883C103.089 93.3618 103.001 93.5427 102.953 93.731C102.907 93.9297 102.923 94.1329 103.001 94.3405C103.08 94.5585 103.247 94.7719 103.501 94.9808L102.923 95.0241C102.605 94.7392 102.38 94.4406 102.25 94.1286C102.115 93.8224 102.074 93.5028 102.128 93.1695C102.182 92.8467 102.337 92.5149 102.592 92.1739Z" fill="#262626"/>
<path d="M97.6418 97.8213C98.0168 97.4462 98.405 97.1846 98.8064 97.0367C99.2026 96.894 99.5987 96.8358 99.9949 96.8622C100.386 96.8938 100.758 96.9968 101.112 97.171C101.466 97.3453 101.78 97.5698 102.055 97.8444L102.206 97.9949C102.496 98.2854 102.729 98.6076 102.903 98.9615C103.077 99.3259 103.175 99.7036 103.196 100.094C103.223 100.491 103.162 100.884 103.014 101.275C102.867 101.677 102.613 102.057 102.254 102.416C101.879 102.791 101.47 103.053 101.026 103.201C100.587 103.354 100.152 103.388 99.7185 103.304C99.2801 103.225 98.8786 103.024 98.5141 102.702L99.5836 101.632C99.8319 101.828 100.112 101.917 100.424 101.901C100.73 101.891 101.023 101.746 101.303 101.466C101.546 101.222 101.691 100.961 101.739 100.681C101.781 100.406 101.739 100.126 101.612 99.8412C101.49 99.5612 101.297 99.2892 101.033 99.0251C100.78 98.7716 100.513 98.5789 100.233 98.4468C99.9476 98.3201 99.6676 98.2779 99.3929 98.3202C99.113 98.3678 98.8463 98.5184 98.5927 98.7719C98.4026 98.9621 98.2732 99.1602 98.2046 99.3662C98.1359 99.5723 98.1228 99.7756 98.1651 99.9764C98.2021 100.182 98.2866 100.373 98.4187 100.547L97.3492 101.617C97.0216 101.247 96.8182 100.838 96.7389 100.389C96.6596 99.9502 96.6965 99.5064 96.8496 99.0574C96.9975 98.6137 97.2615 98.2016 97.6418 97.8213Z" fill="#262626"/>
<path d="M92.7714 102.192C93.2098 101.843 93.6164 101.61 93.9912 101.493C94.3648 101.387 94.7288 101.412 95.083 101.569C95.4419 101.733 95.8051 102.045 96.1726 102.507L99.5965 106.828L98.4567 107.735L94.9699 103.335C94.7839 103.101 94.5783 102.969 94.3532 102.938C94.1269 102.917 93.8969 103 93.6631 103.186L92.9178 103.779L92.0875 102.736L92.7714 102.192ZM98.5802 103.985L99.2919 104.879L95.9249 107.558L95.2132 106.664L98.5802 103.985Z" fill="#262626"/>
<path d="M87.1363 105.588C87.7576 105.261 88.3481 105.212 88.9075 105.441C89.4604 105.674 89.9491 106.193 90.3736 107L92.0176 110.123L90.6393 110.849L88.9326 107.606C88.7587 107.276 88.5269 107.06 88.2375 106.959C87.9515 106.865 87.6498 106.901 87.3325 107.068C87.0152 107.235 86.8113 107.473 86.7209 107.783C86.6238 108.095 86.6675 108.427 86.8519 108.777L88.5272 111.96L87.149 112.686L84.3098 107.291L85.4005 106.717L86.6061 109.008L86.497 109.065C86.2117 108.523 86.0428 108.034 85.9902 107.597C85.9377 107.161 86.0015 106.777 86.1817 106.445C86.362 106.114 86.6603 105.839 87.0768 105.62L87.1363 105.588Z" fill="#262626"/>
<path d="M80.7379 108.411C81.5262 108.13 82.2044 108.076 82.7725 108.246C83.3361 108.426 83.7336 108.808 83.9651 109.392L82.6454 109.861C82.5542 109.672 82.3812 109.531 82.1266 109.439C81.8719 109.347 81.5335 109.377 81.1112 109.527C80.7593 109.652 80.5038 109.814 80.3447 110.014C80.1787 110.215 80.1344 110.425 80.212 110.644C80.2797 110.834 80.4144 110.956 80.6164 111.011C80.8113 111.069 81.105 111.047 81.4976 110.947L82.0231 110.82C82.6886 110.663 83.2464 110.67 83.6964 110.843C84.1464 111.016 84.4591 111.349 84.6344 111.842C84.7746 112.236 84.7937 112.602 84.6918 112.939C84.5899 113.277 84.3903 113.574 84.093 113.83C83.7911 114.096 83.415 114.309 82.9645 114.469C82.2607 114.72 81.6355 114.768 81.089 114.613C80.5425 114.459 80.1522 114.086 79.9183 113.495L81.238 113.026C81.3222 113.218 81.4808 113.352 81.7138 113.428C81.9469 113.503 82.2359 113.48 82.5808 113.357C82.8904 113.247 83.1084 113.102 83.2348 112.922C83.3612 112.742 83.3905 112.558 83.3229 112.368C83.2578 112.185 83.1409 112.068 82.9721 112.017C82.7963 111.968 82.5473 111.981 82.2251 112.056L81.6996 112.184C80.9989 112.354 80.4046 112.355 79.9169 112.188C79.4222 112.023 79.0834 111.683 78.9006 111.17C78.7654 110.79 78.7533 110.421 78.8643 110.065C78.9708 109.717 79.183 109.4 79.5009 109.113C79.8188 108.825 80.2312 108.591 80.7379 108.411Z" fill="#262626"/>
<path d="M70.015 115.171L71.8724 116.156L72.0398 117.354L70.5235 118.811L69.7627 117.819L71.0693 117.048L71.0228 116.716L69.555 116.332L70.015 115.171ZM72.2897 119.548L72.2106 117.443L73.1701 116.698L75.1872 117.288L74.7145 118.44L73.3889 117.697L73.1236 117.904L73.5311 119.363L72.2897 119.548ZM74.9174 115.357L73.1391 116.477L72.0122 116.023L71.5115 113.977L72.7464 113.827L72.7639 115.33L73.0757 115.456L74.1487 114.389L74.9174 115.357Z" fill="#262626"/>
<path d="M60.7855 110.751C61.5221 110.817 62.1431 111.003 62.6483 111.31C63.1535 111.617 63.5551 111.994 63.853 112.441C64.1435 112.886 64.3451 113.362 64.4578 113.867C64.5706 114.372 64.6068 114.851 64.5666 115.305L64.5448 115.551C64.5 116.057 64.3776 116.548 64.1778 117.025C63.9706 117.502 63.6818 117.926 63.3113 118.299C62.9408 118.671 62.4883 118.953 61.9538 119.146C61.4111 119.345 60.7864 119.413 60.0795 119.351C59.3428 119.285 58.7147 119.095 58.1953 118.779C57.6677 118.47 57.2617 118.059 56.9771 117.546C56.6919 117.041 56.5442 116.465 56.534 115.819L58.1301 115.961C58.1566 116.338 58.2629 116.662 58.4488 116.934C58.6266 117.212 58.8662 117.428 59.1675 117.583C59.4682 117.744 59.8157 117.842 60.2101 117.877C60.6119 117.913 60.9753 117.874 61.3004 117.76C61.6248 117.654 61.9024 117.484 62.1331 117.249C62.3639 117.015 62.5503 116.731 62.6922 116.399C62.8267 116.066 62.9125 115.691 62.9494 115.274C62.985 114.872 62.9659 114.496 62.8921 114.144C62.8108 113.792 62.6738 113.476 62.4811 113.197C62.2877 112.924 62.0411 112.704 61.7411 112.535C61.4336 112.365 61.0716 112.262 60.6549 112.225C60.0447 112.171 59.5181 112.274 59.075 112.535C58.6238 112.802 58.3295 113.204 58.192 113.739L56.5959 113.597C56.7218 113.024 56.9661 112.509 57.329 112.054C57.6918 111.598 58.1651 111.25 58.7489 111.01C59.3327 110.769 60.0116 110.683 60.7855 110.751Z" fill="#262626"/>
<path d="M53.3521 109.365C53.8722 109.502 54.3091 109.706 54.6627 109.976C55.0164 110.247 55.2934 110.559 55.4938 110.913C55.6923 111.275 55.8163 111.655 55.8657 112.054C55.9079 112.451 55.8777 112.845 55.7751 113.235L55.7152 113.463C55.6088 113.867 55.4358 114.231 55.1963 114.554C54.9476 114.883 54.649 115.152 54.3003 115.361C53.9425 115.576 53.5441 115.711 53.1049 115.765C52.6638 115.827 52.1941 115.792 51.6956 115.661C51.1971 115.53 50.7711 115.329 50.4174 115.058C50.0619 114.795 49.7849 114.482 49.5864 114.121C49.3788 113.765 49.2512 113.384 49.2036 112.978C49.1542 112.578 49.1827 112.177 49.2891 111.772L49.349 111.544C49.4516 111.154 49.6227 110.798 49.8622 110.474C50.0945 110.149 50.386 109.878 50.7365 109.662C51.0852 109.452 51.48 109.317 51.9211 109.255C52.3621 109.193 52.8391 109.23 53.3521 109.365ZM53.0128 110.655C52.6443 110.558 52.3128 110.555 52.0181 110.648C51.7215 110.747 51.4721 110.917 51.2699 111.158C51.0657 111.405 50.917 111.706 50.8239 112.06C50.7289 112.421 50.7139 112.757 50.7789 113.068C50.8348 113.384 50.9719 113.655 51.1902 113.883C51.3993 114.115 51.6809 114.278 52.0349 114.371C52.3889 114.465 52.7178 114.462 53.0216 114.365C53.3162 114.272 53.5693 114.103 53.7806 113.858C53.9901 113.619 54.1424 113.319 54.2374 112.958C54.3306 112.604 54.3492 112.269 54.2933 111.953C54.2282 111.642 54.0912 111.371 53.882 111.138C53.671 110.913 53.3812 110.751 53.0128 110.655Z" fill="#262626"/>
<path d="M49.3998 108.38L46.9791 113.962L45.8483 113.472L46.887 111.077L46.9898 111.121C46.7431 111.69 46.4627 112.13 46.1484 112.442C45.8312 112.76 45.4836 112.952 45.1057 113.016C44.7209 113.077 44.3058 113.011 43.8603 112.818L43.7986 112.791C43.1338 112.503 42.7237 112.068 42.5683 111.488C42.4099 110.914 42.5149 110.203 42.8835 109.353L44.2699 106.156L45.6989 106.775L44.2589 110.096C44.1103 110.439 44.0893 110.759 44.196 111.058C44.2957 111.354 44.517 111.576 44.8596 111.724C45.2092 111.876 45.5411 111.89 45.8556 111.765C46.1602 111.645 46.3912 111.403 46.5487 111.04L47.9708 107.761L49.3998 108.38Z" fill="#262626"/>
<path d="M40.9454 104.068C41.4296 104.35 41.7942 104.644 42.0392 104.951C42.274 105.261 42.3825 105.609 42.3646 105.996C42.343 106.39 42.1838 106.842 41.887 107.352L39.1047 112.111L37.8456 111.379L40.6787 106.532C40.8289 106.274 40.8776 106.034 40.8247 105.813C40.7615 105.595 40.6008 105.411 40.3425 105.26L39.5193 104.781L40.1899 103.629L40.9454 104.068ZM41.3843 110.132L40.8095 111.12L37.0904 108.956L37.6652 107.968L41.3843 110.132Z" fill="#262626"/>
<path d="M36.8535 101.251L35.7759 102.697L35.9826 102.851L34.7846 104.46C34.5748 104.742 34.4876 105.003 34.5228 105.243C34.5579 105.484 34.7193 105.711 35.0069 105.925C35.1567 106.037 35.3386 106.167 35.5528 106.318C35.767 106.468 35.9863 106.617 36.2109 106.766C36.4251 106.916 36.6205 107.048 36.7972 107.161L36.0074 108.221C35.8607 108.13 35.696 108.026 35.5133 107.909C35.3307 107.791 35.1495 107.666 34.9697 107.532C34.7795 107.4 34.6036 107.273 34.4418 107.153C33.9385 106.778 33.5712 106.402 33.3399 106.025C33.1025 105.643 33.0048 105.249 33.0468 104.842C33.0827 104.431 33.2703 103.998 33.6094 103.543L35.8649 100.514L36.8535 101.251ZM38.5199 102.296C38.8734 102.559 39.1381 102.854 39.314 103.181C39.4839 103.503 39.5567 103.837 39.5325 104.182C39.5023 104.523 39.3645 104.858 39.119 105.187C38.8513 105.547 38.5458 105.776 38.2025 105.874C37.8532 105.968 37.4774 105.953 37.0751 105.831C36.6668 105.703 36.2469 105.479 35.8156 105.158L34.6832 104.315L35.2387 103.569L36.3891 104.426C36.6766 104.64 36.9519 104.733 37.2147 104.705C37.4671 104.679 37.6759 104.555 37.841 104.333C38.0061 104.112 38.065 103.876 38.0179 103.627C37.9647 103.373 37.7944 103.139 37.5068 102.925C37.333 102.795 37.152 102.707 36.9636 102.66C36.7647 102.614 36.5616 102.631 36.3541 102.709C36.1363 102.789 35.9232 102.956 35.7149 103.211L35.6703 102.633C35.9546 102.314 36.2527 102.089 36.5645 101.957C36.8703 101.822 37.1899 101.781 37.5233 101.833C37.8462 101.887 38.1784 102.042 38.5199 102.296Z" fill="#262626"/>
<path d="M32.8624 97.3571C33.2383 97.7313 33.5006 98.1189 33.6494 98.5201C33.7929 98.9159 33.8519 99.312 33.8264 99.7082C33.7955 100.099 33.6934 100.472 33.5198 100.826C33.3463 101.18 33.1225 101.495 32.8484 101.77L32.6982 101.921C32.4083 102.212 32.0866 102.446 31.7331 102.621C31.369 102.796 30.9915 102.894 30.6007 102.916C30.2046 102.944 29.8109 102.884 29.4197 102.737C29.0179 102.59 28.6371 102.337 28.2771 101.979C27.9012 101.604 27.6388 101.196 27.4899 100.752C27.3358 100.314 27.3005 99.8784 27.384 99.4451C27.4623 99.0065 27.6622 98.6046 27.9836 98.2394L29.0556 99.3067C28.8607 99.5554 28.7715 99.8356 28.788 100.147C28.7993 100.454 28.9452 100.746 29.2258 101.026C29.4693 101.268 29.7311 101.413 30.0112 101.46C30.2859 101.501 30.5658 101.459 30.8507 101.331C31.1304 101.209 31.4021 101.016 31.6656 100.751C31.9186 100.497 32.1108 100.23 32.2422 99.9494C32.3684 99.6639 32.41 99.3838 32.3671 99.1092C32.319 98.8294 32.1678 98.563 31.9137 98.31C31.7232 98.1202 31.5248 97.9912 31.3186 97.923C31.1125 97.8548 30.9091 97.8421 30.7084 97.8848C30.5025 97.9222 30.3125 98.0071 30.1385 98.1396L29.0665 97.0723C29.4355 96.744 29.8445 96.5397 30.2933 96.4595C30.7315 96.3793 31.1753 96.4153 31.6246 96.5674C32.0687 96.7144 32.4813 96.9776 32.8624 97.3571Z" fill="#262626"/>
<path d="M28.4821 92.4958C28.8318 92.9334 29.0655 93.3396 29.1832 93.7141C29.2903 94.0875 29.2656 94.4515 29.1091 94.8061C28.9467 95.1653 28.635 95.5292 28.174 95.8976L23.8602 99.3305L22.9508 98.1925L27.3434 94.6966C27.5768 94.5101 27.7088 94.3042 27.7392 94.0791C27.7592 93.8528 27.6759 93.6229 27.4893 93.3895L26.8947 92.6454L27.9364 91.813L28.4821 92.4958ZM26.7009 98.3083L25.8081 99.0218L23.1219 95.6603L24.0148 94.9468L26.7009 98.3083Z" fill="#262626"/>
<path d="M25.0732 86.8675C25.4015 87.4882 25.4519 88.0786 25.2241 88.6385C24.9929 89.1918 24.4744 89.6816 23.6688 90.1078L20.5488 91.7583L19.8205 90.3815L23.0594 88.6681C23.3895 88.4935 23.6048 88.2613 23.705 87.9716C23.7987 87.6854 23.7617 87.3838 23.5941 87.0669C23.4264 86.7499 23.1878 86.5465 22.8783 86.4567C22.5653 86.3603 22.2338 86.4047 21.8839 86.5898L18.7044 88.2718L17.9761 86.895L23.3643 84.0446L23.9407 85.1341L21.6527 86.3445L21.595 86.2356C22.1365 85.9491 22.6255 85.7792 23.062 85.7257C23.4986 85.6722 23.8826 85.7353 24.2142 85.9148C24.5458 86.0943 24.8217 86.3921 25.0417 86.8081L25.0732 86.8675Z" fill="#262626"/>
<path d="M22.2375 80.474C22.5195 81.2617 22.5759 81.9397 22.4065 82.5082C22.2276 83.0722 21.8465 83.4705 21.2633 83.7031L20.7911 82.3845C20.9805 82.2928 21.1208 82.1196 21.212 81.8648C21.3032 81.6099 21.2733 81.2715 21.1222 80.8495C20.9963 80.4979 20.8335 80.2428 20.6339 80.0841C20.4317 79.9185 20.2217 79.8747 20.0036 79.9528C19.8137 80.0208 19.6915 80.1558 19.6369 80.3578C19.5798 80.5529 19.6016 80.8465 19.7025 81.2389L19.831 81.7642C19.9899 82.4294 19.9833 82.9871 19.8113 83.4375C19.6394 83.8879 19.3072 84.2013 18.8149 84.3776C18.4211 84.5186 18.0553 84.5385 17.7175 84.4373C17.3797 84.3361 17.0823 84.1371 16.8253 83.8403C16.5587 83.539 16.3448 83.1633 16.1837 82.7132C15.9318 82.0099 15.8825 81.3849 16.0358 80.838C16.1892 80.2911 16.5609 79.9001 17.1512 79.665L17.6234 80.9836C17.4315 81.0682 17.298 81.2271 17.2228 81.4604C17.1476 81.6936 17.1717 81.9825 17.2951 82.3271C17.4059 82.6366 17.5513 82.8543 17.7313 82.9803C17.9114 83.1062 18.0963 83.1352 18.2862 83.0672C18.469 83.0017 18.5858 82.8846 18.6364 82.7157C18.6845 82.5398 18.6707 82.2908 18.5951 81.9687L18.4665 81.4435C18.295 80.7431 18.2925 80.1489 18.4589 79.6608C18.6228 79.1657 18.9615 78.8263 19.4749 78.6424C19.8547 78.5064 20.223 78.4936 20.5799 78.6038C20.9272 78.7095 21.245 78.9211 21.5332 79.2384C21.8214 79.5558 22.0561 79.9676 22.2375 80.474Z" fill="#262626"/>
<path d="M15.4555 69.7652L14.4742 71.6246L13.276 71.7945L11.8165 70.2812L12.8061 69.5184L13.5797 70.8234L13.9125 70.7762L14.2928 69.3076L15.4555 69.7652ZM11.0825 72.0489L13.1871 71.9655L13.934 72.9234L13.3488 74.9417L12.1956 74.4714L12.9355 73.1443L12.7282 72.8794L11.2698 73.2899L11.0825 72.0489ZM15.2792 74.668L14.1559 72.892L14.6072 71.7642L16.6519 71.2592L16.8044 72.4938L15.3021 72.5144L15.1765 72.8265L16.2451 73.8973L15.2792 74.668Z" fill="#262626"/>
<path d="M19.8558 60.5276C19.7921 61.2644 19.6071 61.8858 19.3009 62.3916C18.9946 62.8975 18.6186 63.2999 18.1729 63.5987C17.7278 63.8901 17.2528 64.0927 16.7481 64.2065C16.2434 64.3202 15.764 64.3575 15.31 64.3182L15.0644 64.2969C14.5583 64.2531 14.0665 64.1318 13.5888 63.933C13.1118 63.7268 12.6868 63.4388 12.3139 63.0691C11.941 62.6994 11.6577 62.2475 11.464 61.7134C11.2635 61.1711 11.1938 60.5465 11.255 59.8395C11.3188 59.1027 11.5081 58.4742 11.8231 57.9541C12.1312 57.4259 12.5414 57.019 13.0535 56.7334C13.5581 56.4472 14.1334 56.2983 14.7792 56.2867L14.641 57.8831C14.2638 57.9104 13.9396 58.0173 13.6685 58.2038C13.3906 58.3822 13.1749 58.6222 13.0213 58.9238C12.8603 59.2248 12.7627 59.5726 12.7286 59.967C12.6938 60.3689 12.7336 60.7323 12.8479 61.0571C12.9549 61.3812 13.1258 61.6585 13.3608 61.8888C13.5958 62.1191 13.8797 62.3048 14.2124 62.4461C14.5457 62.5799 14.9208 62.6649 15.3375 62.701C15.7394 62.7357 16.1161 62.7158 16.4674 62.6413C16.8194 62.5593 17.135 62.4216 17.4142 62.2283C17.6859 62.0344 17.906 61.7873 18.0745 61.4869C18.2436 61.1792 18.3462 60.8169 18.3822 60.4001C18.4351 59.7898 18.3307 59.2634 18.069 58.8209C17.8006 58.3702 17.3986 58.0768 16.863 57.9404L17.0012 56.344C17.5753 56.4687 18.0903 56.712 18.5464 57.0739C19.0025 57.4358 19.3515 57.9084 19.5934 58.4917C19.8354 59.075 19.9228 59.7536 19.8558 60.5276Z" fill="#262626"/>
<path d="M21.2264 53.0909C21.0907 53.6114 20.8878 54.0487 20.6179 54.4029C20.3479 54.7571 20.0362 55.0347 19.6826 55.2359C19.3218 55.4352 18.9419 55.5599 18.5427 55.6102C18.1455 55.6533 17.7517 55.6239 17.3614 55.5221L17.1337 55.4627C16.7289 55.3571 16.3646 55.1849 16.0409 54.9461C15.7119 54.6981 15.4422 54.4 15.232 54.0518C15.0164 53.6945 14.8809 53.2963 14.8256 52.8572C14.763 52.4163 14.7968 51.9465 14.9269 51.4477C15.057 50.949 15.257 50.5225 15.527 50.1683C15.7897 49.8122 16.1015 49.5345 16.4622 49.3353C16.8177 49.1269 17.1986 48.9985 17.6049 48.9501C18.0041 48.8998 18.406 48.9275 18.8108 49.033L19.0385 49.0924C19.4289 49.1943 19.7859 49.3646 20.1096 49.6034C20.4352 49.835 20.7067 50.1259 20.9242 50.476C21.1345 50.8242 21.2709 51.2188 21.3334 51.6597C21.396 52.1006 21.3603 52.5777 21.2264 53.0909ZM19.9362 52.7544C20.0323 52.3857 20.0339 52.0542 19.9409 51.7597C19.8406 51.4633 19.6701 51.2143 19.4294 51.0125C19.1814 50.8089 18.8803 50.6608 18.5261 50.5684C18.1647 50.4742 17.8287 50.4599 17.5182 50.5256C17.2024 50.5821 16.931 50.7198 16.7041 50.9385C16.4719 51.1482 16.3096 51.4301 16.2172 51.7843C16.1248 52.1385 16.1278 52.4674 16.2261 52.7709C16.3192 53.0654 16.4887 53.3181 16.7348 53.529C16.9737 53.738 17.2738 53.8896 17.6352 53.9839C17.9894 54.0763 18.3244 54.0942 18.6403 54.0376C18.9508 53.9719 19.2222 53.8342 19.4544 53.6246C19.6794 53.4131 19.84 53.123 19.9362 52.7544Z" fill="#262626"/>
<path d="M22.2027 49.1374L16.6154 46.7285L17.1034 45.5966L19.5009 46.6303L19.4565 46.7332C18.8871 46.4877 18.4463 46.2082 18.1341 45.8946C17.815 45.5781 17.623 45.2309 17.5581 44.8531C17.4962 44.4685 17.5614 44.0532 17.7536 43.6073L17.7802 43.5456C18.0671 42.8802 18.5006 42.4691 19.0806 42.3125C19.6538 42.1528 20.3657 42.2564 21.2163 42.6231L24.4165 44.0029L23.7998 45.4331L20.4762 44.0002C20.1332 43.8523 19.8125 43.832 19.5141 43.9392C19.2186 44.0396 18.9969 44.2613 18.8491 44.6043C18.6982 44.9542 18.6852 45.2862 18.8101 45.6003C18.9311 45.9047 19.1733 46.1352 19.5369 46.292L22.8194 47.7072L22.2027 49.1374Z" fill="#262626"/>
<path d="M26.4981 40.6735C26.2173 41.1583 25.9238 41.5235 25.6175 41.7692C25.3085 42.0046 24.9604 42.1138 24.5732 42.0967C24.1795 42.0759 23.7274 41.9177 23.2167 41.6219L18.4514 38.8495L19.1814 37.5889L24.0339 40.4119C24.2925 40.5616 24.5322 40.6098 24.753 40.5564C24.9712 40.4928 25.1551 40.3317 25.3048 40.0731L25.7821 39.2489L26.9361 39.9171L26.4981 40.6735ZM20.4356 41.125L19.4465 40.5523L21.6028 36.8287L22.5919 37.4014L20.4356 41.125Z" fill="#262626"/>
<path d="M29.3065 36.5758L27.8574 35.5013L27.7039 35.7083L26.0928 34.5136C25.8107 34.3045 25.5495 34.2177 25.3092 34.2534C25.0688 34.2891 24.8419 34.4509 24.6283 34.7389C24.5171 34.889 24.3866 35.0712 24.2368 35.2857C24.0871 35.5001 23.9382 35.7198 23.79 35.9447C23.6402 36.1592 23.5091 36.3549 23.3965 36.5318L22.3344 35.7443C22.4247 35.5973 22.5284 35.4324 22.6455 35.2495C22.7625 35.0666 22.8878 34.8851 23.0212 34.7051C23.1532 34.5147 23.2792 34.3384 23.3993 34.1764C23.7731 33.6724 24.1484 33.3043 24.5251 33.0721C24.9063 32.834 25.3002 32.7355 25.7068 32.7766C26.1179 32.8117 26.5514 32.9983 27.0074 33.3365L30.0407 35.5857L29.3065 36.5758ZM28.2645 38.2444C28.002 38.5984 27.7076 38.8637 27.3814 39.0403C27.0596 39.2109 26.7261 39.2844 26.3808 39.2609C26.04 39.2314 25.7046 39.0943 25.3746 38.8496C25.0145 38.5826 24.785 38.2776 24.686 37.9345C24.5915 37.5854 24.6052 37.2095 24.727 36.807C24.8532 36.3984 25.0765 35.9781 25.3969 35.546L26.2379 34.4119L26.9849 34.9659L26.1306 36.118C25.9171 36.406 25.8244 36.6814 25.8528 36.9443C25.8795 37.1966 26.0039 37.4051 26.2259 37.5697C26.448 37.7344 26.6836 37.7928 26.9329 37.7452C27.1866 37.6915 27.4202 37.5206 27.6338 37.2326C27.7628 37.0586 27.8507 36.8773 27.8975 36.6888C27.9427 36.4899 27.9259 36.2868 27.8471 36.0795C27.7667 35.8618 27.599 35.6491 27.3439 35.4413L27.9218 35.3956C28.2416 35.6792 28.4673 35.9768 28.599 36.2883C28.7352 36.5939 28.7772 36.9134 28.7253 37.2468C28.6717 37.5699 28.5182 37.9024 28.2645 38.2444Z" fill="#262626"/>
<path d="M33.1923 32.5759C32.8189 32.9526 32.4317 33.2157 32.0309 33.3653C31.6354 33.5096 31.2394 33.5694 30.8432 33.5447C30.4521 33.5147 30.0793 33.4133 29.7247 33.2405C29.37 33.0677 29.0547 32.8445 28.7789 32.571L28.6277 32.4211C28.336 32.1318 28.1022 31.8106 27.9263 31.4575C27.7505 31.0937 27.6511 30.7165 27.6283 30.3257C27.6002 29.9296 27.6593 29.5358 27.8055 29.1443C27.9517 28.7422 28.2036 28.3608 28.5613 28.0001C28.9347 27.6235 29.343 27.3602 29.7861 27.2105C30.2238 27.0554 30.6595 27.0192 31.093 27.1019C31.5317 27.1792 31.934 27.3782 32.2999 27.6989L31.2348 28.7731C30.9857 28.5787 30.7054 28.4901 30.3938 28.5073C30.0875 28.5192 29.7949 28.6657 29.5162 28.9468C29.2742 29.1909 29.1301 29.453 29.0837 29.7331C29.0426 30.008 29.0861 30.2878 29.2141 30.5724C29.3368 30.8519 29.5307 31.1231 29.796 31.3861C30.0506 31.6385 30.3182 31.8302 30.5987 31.9611C30.8845 32.0866 31.1646 32.1277 31.4391 32.0843C31.7189 32.0355 31.985 31.8838 32.2374 31.6292C32.4268 31.4382 32.5554 31.2396 32.6231 31.0333C32.6909 30.827 32.7033 30.6236 32.6602 30.423C32.6223 30.2172 32.537 30.0274 32.4042 29.8536L33.4693 28.7794C33.7983 29.1478 34.0034 29.5563 34.0846 30.0049C34.1657 30.443 34.1306 30.8869 33.9794 31.3365C33.8333 31.7809 33.571 32.194 33.1923 32.5759Z" fill="#262626"/>
<path d="M38.044 28.1856C37.6071 28.5363 37.2014 28.7708 36.8271 28.8892C36.4539 28.9971 36.0899 28.9732 35.735 28.8174C35.3754 28.6558 35.0109 28.3448 34.6416 27.8845L31.1998 23.5778L32.3359 22.6661L35.8408 27.0515C36.0278 27.2845 36.2339 27.416 36.4591 27.446C36.6855 27.4655 36.9152 27.3817 37.1483 27.1947L37.8911 26.5986L38.7257 27.6386L38.044 28.1856ZM32.2278 26.4165L31.5125 25.5251L34.8684 22.832L35.5837 23.7234L32.2278 26.4165Z" fill="#262626"/>
<path d="M43.6658 24.7656C43.0458 25.0953 42.4556 25.1468 41.8952 24.9202C41.3413 24.6901 40.8505 24.1727 40.4227 23.368L38.7656 20.2515L40.1409 19.5203L41.861 22.7556C42.0364 23.0854 42.269 23.3001 42.5589 23.3998C42.8453 23.4929 43.1468 23.4552 43.4634 23.2869C43.78 23.1186 43.9829 22.8796 44.072 22.5699C44.1678 22.2567 44.1227 21.9253 43.9369 21.5757L42.2483 18.3998L43.6235 17.6686L46.4852 23.0509L45.3969 23.6295L44.1817 21.344L44.2905 21.2862C44.5781 21.827 44.7491 22.3157 44.8034 22.7521C44.8578 23.1885 44.7956 23.5727 44.6167 23.9047C44.4379 24.2367 44.1407 24.5131 43.7252 24.7341L43.6658 24.7656Z" fill="#262626"/>
<path d="M50.0541 21.9158C49.267 22.1995 48.589 22.2573 48.0202 22.0891C47.4559 21.9114 47.0568 21.5311 46.8229 20.9484L48.1406 20.4735C48.2326 20.6626 48.4061 20.8026 48.6612 20.8933C48.9162 20.984 49.2546 20.9534 49.6762 20.8014C50.0276 20.6747 50.2824 20.5114 50.4406 20.3114C50.6058 20.109 50.6492 19.8988 50.5707 19.6809C50.5023 19.4912 50.367 19.3692 50.1648 19.315C49.9697 19.2583 49.676 19.2808 49.2839 19.3824L48.7589 19.5121C48.094 19.6723 47.5362 19.6669 47.0855 19.4959C46.6347 19.3249 46.3207 18.9934 46.1434 18.5014C46.0015 18.1079 45.9809 17.7421 46.0814 17.4041C46.1819 17.0662 46.3803 16.7683 46.6765 16.5107C46.9772 16.2435 47.3525 16.0288 47.8022 15.8667C48.505 15.6134 49.13 15.5628 49.6772 15.715C50.2243 15.8672 50.6161 16.2381 50.8525 16.8279L49.5348 17.3028C49.4498 17.1111 49.2907 16.9779 49.0573 16.9032C48.8239 16.8285 48.535 16.8532 48.1907 16.9774C47.8815 17.0888 47.664 17.2347 47.5384 17.415C47.4128 17.5952 47.3842 17.7802 47.4526 17.97C47.5185 18.1527 47.6359 18.2692 47.8049 18.3194C47.9809 18.3672 48.2299 18.3529 48.5518 18.2765L49.0767 18.1469C49.7767 17.974 50.3709 17.9702 50.8594 18.1356C51.3548 18.2985 51.695 18.6364 51.8799 19.1495C52.0167 19.529 52.0303 19.8973 51.9208 20.2544C51.8158 20.6019 51.6049 20.9201 51.2882 21.209C50.9715 21.4978 50.5601 21.7334 50.0541 21.9158Z" fill="#262626"/>
<path d="M60.7483 15.112L58.8869 14.1345L58.7145 12.9367L60.2248 11.4741L60.9896 12.4621L59.6862 13.2384L59.7341 13.5711L61.2035 13.9483L60.7483 15.112ZM58.4555 10.7438L58.5433 12.8481L57.5869 13.5971L55.5674 13.016L56.0353 11.8618L57.364 12.5989L57.6284 12.3911L57.2149 10.9336L58.4555 10.7438ZM55.8451 14.9458L57.6188 13.8189L58.7476 14.2678L59.2567 16.3115L58.0224 16.4665L57.9987 14.9642L57.6864 14.8394L56.6178 15.9101L55.8451 14.9458Z" fill="#262626"/>
<circle cx="65.4937" cy="65.1416" r="31.8198" fill="#9B9A84"/>
<path d="M78.0977 71.5913C78.568 71.0195 79.034 70.4447 79.4639 69.8419C80.5008 68.3878 81.2199 66.7647 81.6505 65.0332C82.4473 61.827 82.1846 58.32 80.5121 55.4278C79.7662 54.1382 78.7611 53.0107 77.5819 52.102C77.5671 52.0903 77.5535 52.0771 77.5384 52.0658C77.5248 52.0553 77.4968 52.0367 77.463 52.0145C76.9569 51.634 76.4194 51.2834 75.8469 50.9736C75.6696 51.9737 75.4776 53.001 75.0034 53.9987L74.9548 54.099C74.2953 55.4457 73.1047 56.4473 71.6562 56.8881C71.9465 58.4133 71.8727 59.8047 71.4354 61.0283C71.1497 61.8282 70.6946 62.5655 70.0828 63.2208C68.9825 64.3992 67.3963 65.2539 65.732 65.5653C64.6833 65.7623 63.6359 65.7705 62.6167 65.5913C61.5553 65.4044 60.5459 65.0025 59.6978 64.4292C57.5888 63.0031 56.307 60.5564 56.3529 58.0448L56.3568 57.8851C56.4046 56.2783 56.8562 54.8091 57.2935 53.3885C57.496 52.7301 57.7035 52.0561 57.866 51.3755C56.6848 52.1027 55.6649 52.9839 54.8265 54.0006C54.7088 54.1433 54.598 54.2886 54.4899 54.4356C54.4635 54.4717 54.4379 54.5082 54.4118 54.5448C54.3279 54.6625 54.247 54.7815 54.1693 54.9016C54.1452 54.9389 54.1203 54.9758 54.097 55.0135C54.0196 55.1367 53.9462 55.2615 53.8758 55.387C53.3733 56.2752 53.0243 57.2231 52.8548 58.1902C52.7615 58.7203 52.8221 59.341 52.9018 59.9594C52.917 60.1145 52.9364 60.2703 52.9609 60.4274C52.966 60.4604 52.9702 60.4942 52.9753 60.5273C53.0635 61.2036 53.1354 61.89 53.0476 62.5565C53.0464 62.5647 53.046 62.5729 53.0448 62.581C53.0312 62.6794 53.011 62.7765 52.99 62.8737C52.9838 62.9025 52.9799 62.932 52.9729 62.9611C52.9434 63.0828 52.908 63.2033 52.8645 63.323C52.7106 63.7463 52.0265 64.5003 49.6844 66.8296C49.408 67.1044 49.1266 67.3843 48.9043 67.6093L51.1081 69.6195C51.2076 70.5994 51.3067 71.5788 51.4062 72.5587L51.5006 73.4903C51.6588 75.0485 51.0719 76.3129 50.8764 77.8132C50.7653 78.6656 51.0894 79.4857 51.9247 79.8176C52.2659 79.9532 52.6367 79.9952 53.0029 80.0216C55.7675 80.2214 60.0216 78.3134 61.2929 81.9689C61.5619 82.7424 61.8262 83.62 61.8787 85.0822L73.6015 85.1417C73.081 81.4605 73.9144 77.5928 75.9118 74.4562C76.5597 73.4402 77.3339 72.5202 78.0977 71.5913Z" fill="white"/>
<path d="M70.8341 56.3736C70.5301 55.1792 70.0221 54.0221 69.4352 53.0107C69.3151 52.8036 69.1919 52.6026 69.0656 52.4087C69.0337 52.3593 69.0023 52.3076 68.97 52.2594C68.1359 51.0114 67.0958 49.9044 65.9162 48.9569C65.6721 48.761 65.4222 48.5721 65.1668 48.3902C63.7571 47.3862 62.1818 46.5957 60.5311 46.055C60.2843 45.9742 58.4633 45.6267 58.4167 45.4771C58.8695 46.9276 58.9787 48.5717 58.8003 50.0782C58.7941 50.1318 58.7902 50.1862 58.7832 50.2395C58.4338 52.8704 57.1267 55.2067 57.0466 57.9057C57.0451 57.9562 57.0439 58.0068 57.0431 58.0577C57.0004 60.3722 58.1711 62.564 60.0841 63.8575C60.8793 64.395 61.7923 64.7452 62.736 64.9116C63.677 65.0771 64.6479 65.0632 65.5866 64.8894C65.608 63.7848 65.6274 62.695 65.5131 61.6102C65.4785 60.9786 65.3709 60.3544 65.2935 59.729C64.5496 55.9546 63.2242 52.3294 61.3477 48.967C61.8273 49.8263 62.5129 50.594 63.012 51.4529C63.5235 52.3333 63.9786 53.2467 64.3743 54.1853C65.758 57.4669 66.5283 61.1931 66.1094 64.772C67.5529 64.4801 68.5623 63.8365 69.5779 62.7494C70.103 62.187 70.5224 61.5313 70.7847 60.7963C71.278 59.4157 71.2142 57.8676 70.8341 56.3736Z" fill="#262626"/>
<path d="M75.977 45.2912C73.5303 44.9037 70.9449 45.262 68.8107 46.4498C67.9921 46.9053 67.1374 47.5451 66.4405 48.3112C66.4098 48.345 66.3721 48.3897 66.3418 48.4243C66.8393 48.818 68.1783 49.9595 69.4162 51.7719C69.6117 51.4509 69.8076 51.1294 70.0327 50.8282C70.6005 50.0509 71.2407 49.3256 71.9663 48.6967C72.6854 48.0651 73.947 47.2046 74.8153 46.8047C74.1075 47.4409 72.9706 48.3951 72.3418 49.0804C71.7152 49.7664 71.1252 50.48 70.592 51.2321C70.3156 51.6052 70.061 51.9927 69.815 52.3868C70.4827 53.4689 71.0895 54.75 71.4793 56.2141C72.7075 55.8301 73.7577 54.9711 74.3326 53.7965C74.3481 53.7647 74.3633 53.7332 74.3784 53.7017C74.9494 52.5015 75.0815 51.2185 75.3303 49.9549C75.4317 49.4391 75.5522 48.9268 75.731 48.4243C76.094 47.4036 76.6988 46.3814 77.4629 45.6029C77.3875 45.6806 76.1547 45.3191 75.977 45.2912Z" fill="#262626"/>
<path d="M65.916 48.9561C66.108 49.1105 66.2899 49.2756 66.4741 49.4381C66.2316 49.215 66.0392 49.0533 65.9172 48.9546L65.916 48.9561Z" fill="#262626"/>
</svg>
