<svg width="156" height="47" viewBox="0 0 156 47" fill="none" xmlns="http://www.w3.org/2000/svg">
<path d="M32.6146 29.1736C33.1246 28.5536 33.6299 27.9302 34.0961 27.2764C35.2207 25.6996 36.0004 23.9394 36.4674 22.0617C37.3315 18.5848 37.0466 14.7816 35.2329 11.6453C34.424 10.2468 33.334 9.024 32.0552 8.03854C32.0392 8.0259 32.0245 8.01157 32.008 7.99934C31.9933 7.98796 31.9629 7.96773 31.9262 7.94371C31.3775 7.53106 30.7945 7.15087 30.1737 6.81494C29.9815 7.89945 29.7732 9.01346 29.259 10.0954L29.2063 10.2042C28.4911 11.6647 27.2 12.7509 25.6291 13.2288C25.944 14.8828 25.8639 16.3917 25.3897 17.7186C25.0799 18.586 24.5863 19.3856 23.9229 20.0963C22.7297 21.3742 21.0095 22.3011 19.2047 22.6387C18.0675 22.8524 16.9316 22.8613 15.8264 22.667C14.6753 22.4642 13.5807 22.0284 12.661 21.4067C10.3739 19.8602 8.98385 17.2069 9.03359 14.4832L9.0378 14.31C9.08965 12.5675 9.57942 10.9743 10.0536 9.43369C10.2732 8.71968 10.4983 7.98881 10.6745 7.25077C9.39354 8.03939 8.28754 8.99492 7.37838 10.0975C7.25066 10.2522 7.13054 10.4099 7.01336 10.5692C6.9847 10.6084 6.95688 10.648 6.92864 10.6876C6.8376 10.8154 6.74993 10.9443 6.66563 11.0746C6.63949 11.115 6.61252 11.1551 6.58723 11.196C6.50335 11.3296 6.42369 11.4649 6.3474 11.601C5.80241 12.5641 5.4239 13.5922 5.24013 14.6408C5.13897 15.2158 5.20473 15.8889 5.29113 16.5595C5.30757 16.7277 5.32865 16.8967 5.3552 17.067C5.36068 17.1028 5.36531 17.1395 5.37079 17.1753C5.46647 17.9087 5.54445 18.6531 5.44919 19.3759C5.44793 19.3848 5.44751 19.3936 5.44624 19.4025C5.43149 19.5091 5.40957 19.6145 5.38681 19.7199C5.38007 19.751 5.37585 19.7831 5.36827 19.8147C5.33623 19.9466 5.29788 20.0773 5.25067 20.2071C5.08376 20.6661 4.34193 21.4838 1.802 24.0098C1.50231 24.3078 1.19715 24.6113 0.956055 24.8554L3.34593 27.0353C3.45383 28.0979 3.56132 29.1601 3.66922 30.2227L3.77164 31.233C3.94319 32.9228 3.30673 34.2939 3.09472 35.9209C2.97417 36.8452 3.3257 37.7346 4.23149 38.0945C4.60157 38.2416 5.00367 38.2871 5.40072 38.3158C8.39881 38.5325 13.0121 36.4633 14.3908 40.4275C14.6825 41.2663 14.9691 42.218 15.026 43.8037L27.7387 43.8682C27.1743 39.8762 28.078 35.6819 30.2441 32.2804C30.9467 31.1786 31.7863 30.1809 32.6146 29.1736Z" fill="#262626"/>
<path d="M24.738 12.6706C24.4084 11.3754 23.8575 10.1206 23.221 9.02384C23.0908 8.79919 22.9571 8.58127 22.8202 8.37095C22.7856 8.31742 22.7515 8.26136 22.7165 8.20909C21.8119 6.85567 20.684 5.65526 19.4048 4.62765C19.1401 4.41522 18.8691 4.21037 18.5921 4.01311C17.0634 2.92439 15.3551 2.06707 13.565 1.48077C13.2973 1.3931 11.3226 1.01628 11.272 0.854004C11.7631 2.42702 11.8815 4.20995 11.6881 5.84366C11.6813 5.90183 11.6771 5.96084 11.6695 6.01858C11.2906 8.87168 9.8731 11.4053 9.78627 14.3322C9.78458 14.3869 9.78332 14.4417 9.78248 14.497C9.73611 17.007 11.0057 19.3838 13.0803 20.7865C13.9426 21.3694 14.9327 21.7492 15.9561 21.9296C16.9766 22.1092 18.0294 22.094 19.0474 21.9056C19.0705 20.7077 19.0916 19.5258 18.9677 18.3494C18.9302 17.6645 18.8134 16.9876 18.7296 16.3094C17.9228 12.2162 16.4855 8.28496 14.4505 4.63861C14.9707 5.57054 15.7142 6.40299 16.2554 7.33449C16.8101 8.28918 17.3036 9.27969 17.7327 10.2976C19.2332 13.8563 20.0686 17.8972 19.6143 21.7783C21.1797 21.4617 22.2743 20.7637 23.3757 19.5848C23.9451 18.9749 24.3999 18.2639 24.6844 17.4668C25.2193 15.9697 25.1502 14.2908 24.738 12.6706Z" fill="#9B9A84"/>
<path d="M30.3151 0.652425C27.6618 0.232195 24.858 0.620811 22.5435 1.9089C21.6559 2.40289 20.729 3.09667 19.9733 3.92744C19.94 3.96411 19.8991 4.01258 19.8662 4.0501C20.4057 4.47707 21.8578 5.715 23.2002 7.68043C23.4122 7.33228 23.6247 6.9837 23.8687 6.65704C24.4845 5.81405 25.1787 5.02754 25.9657 4.34557C26.7454 3.66064 28.1136 2.72744 29.0552 2.29373C28.2877 2.98371 27.0548 4.01849 26.3728 4.76158C25.6934 5.50552 25.0535 6.27938 24.4753 7.09498C24.1756 7.49961 23.8995 7.91984 23.6327 8.34724C24.3568 9.52068 25.0148 10.9099 25.4375 12.4977C26.7695 12.0813 27.9083 11.1498 28.5317 9.876C28.5486 9.84144 28.565 9.8073 28.5815 9.77316C29.2006 8.47158 29.3439 7.08023 29.6137 5.70994C29.7237 5.15062 29.8544 4.59509 30.0483 4.0501C30.4419 2.94325 31.0978 1.83472 31.9264 0.990462C31.8447 1.07476 30.5077 0.682773 30.3151 0.652425Z" fill="#9B9A84"/>
<path d="M19.4043 4.62718C19.6125 4.79451 19.8098 4.97364 20.0096 5.14983C19.7465 4.90789 19.5379 4.73255 19.4056 4.62549L19.4043 4.62718Z" fill="#3BBFD1"/>
<path d="M69.1035 22.7803C68.5827 22.7673 67.9316 22.7607 67.1504 22.7607C66.3691 22.7477 65.5163 22.7347 64.5918 22.7217C63.6803 22.7087 62.7233 22.7021 61.7207 22.7021C60.7311 22.6891 59.7611 22.6826 58.8105 22.6826C57.86 22.6696 56.9551 22.6696 56.0957 22.6826C55.2363 22.6956 54.4876 22.7152 53.8496 22.7412V28.542C53.8496 29.6488 53.8626 30.6188 53.8887 31.4521C53.9277 32.2725 53.9668 32.9821 54.0059 33.5811C54.0579 34.18 54.1165 34.6813 54.1816 35.085C54.2598 35.4886 54.3379 35.8271 54.416 36.1006V36.1787H49.7285V36.1006C49.8066 35.8271 49.8783 35.4886 49.9434 35.085C50.0215 34.6813 50.0866 34.18 50.1387 33.5811C50.1908 32.9821 50.2298 32.2725 50.2559 31.4521C50.2819 30.6188 50.2949 29.6488 50.2949 28.542V15.8271C50.2949 14.7204 50.2819 13.7568 50.2559 12.9365C50.2298 12.1032 50.1908 11.387 50.1387 10.7881C50.0866 10.1761 50.0215 9.66829 49.9434 9.26465C49.8783 8.861 49.8066 8.52246 49.7285 8.24902V8.1709H54.416V8.24902C54.3379 8.52246 54.2598 8.861 54.1816 9.26465C54.1165 9.66829 54.0579 10.1761 54.0059 10.7881C53.9668 11.387 53.9277 12.1032 53.8887 12.9365C53.8626 13.7568 53.8496 14.7204 53.8496 15.8271V20.8271C54.5267 20.8532 55.2949 20.8727 56.1543 20.8857C57.0137 20.8857 57.9121 20.8857 58.8496 20.8857C59.7871 20.8727 60.7376 20.8597 61.7012 20.8467C62.6777 20.8337 63.6152 20.8206 64.5137 20.8076C65.4251 20.7816 66.2715 20.7555 67.0527 20.7295C67.847 20.7035 68.5306 20.6774 69.1035 20.6514V15.8271C69.1035 14.7204 69.084 13.7568 69.0449 12.9365C69.0189 12.1032 68.9798 11.387 68.9277 10.7881C68.8887 10.1761 68.8301 9.66829 68.752 9.26465C68.6868 8.861 68.6152 8.52246 68.5371 8.24902V8.1709H73.2246V8.24902C73.1465 8.52246 73.0684 8.861 72.9902 9.26465C72.9251 9.66829 72.8665 10.1761 72.8145 10.7881C72.7624 11.387 72.7233 12.1032 72.6973 12.9365C72.6712 13.7568 72.6582 14.7204 72.6582 15.8271V28.542C72.6582 29.6488 72.6712 30.6188 72.6973 31.4521C72.7233 32.2725 72.7624 32.9821 72.8145 33.5811C72.8665 34.18 72.9251 34.6813 72.9902 35.085C73.0684 35.4886 73.1465 35.8271 73.2246 36.1006V36.1787H68.5371V36.1006C68.6152 35.8271 68.6868 35.4886 68.752 35.085C68.8301 34.6813 68.8887 34.18 68.9277 33.5811C68.9798 32.9821 69.0189 32.2725 69.0449 31.4521C69.084 30.6188 69.1035 29.6488 69.1035 28.542V22.7803ZM79.1621 23.8154C79.1621 22.7087 79.1426 21.7451 79.1035 20.9248C79.0775 20.0915 79.0384 19.3753 78.9863 18.7764C78.9473 18.1774 78.8887 17.6761 78.8105 17.2725C78.7454 16.8688 78.6738 16.5303 78.5957 16.2568V16.1787H83.1074V16.2568C83.0293 16.5303 82.9577 16.8688 82.8926 17.2725C82.8275 17.6761 82.7689 18.1774 82.7168 18.7764C82.6647 19.3753 82.6257 20.0915 82.5996 20.9248C82.5736 21.7451 82.5605 22.7087 82.5605 23.8154V28.542C82.5605 29.6488 82.5736 30.6188 82.5996 31.4521C82.6257 32.2725 82.6647 32.9821 82.7168 33.5811C82.7689 34.18 82.8275 34.6813 82.8926 35.085C82.9577 35.4886 83.0293 35.8271 83.1074 36.1006V36.1787H78.5957V36.1006C78.6738 35.8271 78.7454 35.4886 78.8105 35.085C78.8887 34.6813 78.9473 34.18 78.9863 33.5811C79.0384 32.9821 79.0775 32.2725 79.1035 31.4521C79.1426 30.6188 79.1621 29.6488 79.1621 28.542V23.8154ZM78.752 10.2607C78.752 9.97428 78.804 9.70736 78.9082 9.45996C79.0254 9.19954 79.1751 8.97819 79.3574 8.7959C79.5397 8.60059 79.7546 8.45085 80.002 8.34668C80.2624 8.22949 80.5423 8.1709 80.8418 8.1709C81.1413 8.1709 81.4147 8.22949 81.6621 8.34668C81.9225 8.45085 82.1439 8.60059 82.3262 8.7959C82.5215 8.97819 82.6712 9.19954 82.7754 9.45996C82.8926 9.70736 82.9512 9.97428 82.9512 10.2607C82.9512 10.8597 82.7493 11.361 82.3457 11.7646C81.9421 12.1683 81.4408 12.3701 80.8418 12.3701C80.5423 12.3701 80.2624 12.318 80.002 12.2139C79.7546 12.0967 79.5397 11.9469 79.3574 11.7646C79.1751 11.5693 79.0254 11.348 78.9082 11.1006C78.804 10.8402 78.752 10.5602 78.752 10.2607ZM88.6934 23.4248C88.6934 22.318 88.6738 21.3545 88.6348 20.5342C88.6087 19.7008 88.5697 18.9847 88.5176 18.3857C88.4785 17.7868 88.4199 17.2855 88.3418 16.8818C88.2767 16.4782 88.2051 16.1396 88.127 15.8662V15.7881H92.6387V15.8662C92.5736 16.0615 92.515 16.2829 92.4629 16.5303C92.4108 16.7777 92.3652 17.0576 92.3262 17.3701C93.0944 16.9274 93.9408 16.5563 94.8652 16.2568C95.8027 15.9443 96.8379 15.7881 97.9707 15.7881C99.416 15.7881 100.731 16.0355 101.916 16.5303C103.114 17.012 104.136 17.7087 104.982 18.6201C105.842 19.5316 106.506 20.6318 106.975 21.9209C107.443 23.21 107.678 24.6553 107.678 26.2568C107.678 27.598 107.443 28.887 106.975 30.124C106.519 31.361 105.842 32.4548 104.943 33.4053C104.058 34.3558 102.964 35.1175 101.662 35.6904C100.36 36.2503 98.8626 36.5303 97.1699 36.5303C96.1543 36.5303 95.2298 36.4521 94.3965 36.2959C93.5632 36.1396 92.7949 35.9378 92.0918 35.6904V38.542C92.0918 39.6488 92.1048 40.6123 92.1309 41.4326C92.1569 42.266 92.196 42.9821 92.248 43.5811C92.3001 44.18 92.3587 44.6813 92.4238 45.085C92.4889 45.4886 92.5605 45.8271 92.6387 46.1006V46.1787H88.127V46.1006C88.2051 45.8271 88.2767 45.4886 88.3418 45.085C88.4199 44.6813 88.4785 44.18 88.5176 43.5811C88.5697 42.9821 88.6087 42.266 88.6348 41.4326C88.6738 40.6123 88.6934 39.6488 88.6934 38.542V23.4248ZM97.2871 17.2529C96.8444 17.2529 96.3887 17.3115 95.9199 17.4287C95.4642 17.5329 95.0085 17.6891 94.5527 17.8975C94.11 18.0928 93.6803 18.3467 93.2637 18.6592C92.86 18.9587 92.4954 19.3037 92.1699 19.6943C92.1439 20.1891 92.1243 20.749 92.1113 21.374C92.0983 21.999 92.0918 22.6826 92.0918 23.4248V33.6592C92.3522 33.8545 92.6452 34.0368 92.9707 34.2061C93.2962 34.3753 93.6608 34.5316 94.0645 34.6748C94.4811 34.805 94.9434 34.9092 95.4512 34.9873C95.972 35.0654 96.5449 35.1045 97.1699 35.1045C98.1855 35.1045 99.1035 34.9222 99.9238 34.5576C100.744 34.193 101.434 33.6657 101.994 32.9756C102.567 32.2855 103.003 31.4456 103.303 30.4561C103.615 29.4665 103.771 28.3467 103.771 27.0967C103.771 25.6904 103.654 24.3883 103.42 23.1904C103.186 21.9795 102.808 20.9378 102.287 20.0654C101.779 19.18 101.115 18.4899 100.295 17.9951C99.4746 17.5003 98.472 17.2529 97.2871 17.2529Z" fill="#9B9A84"/>
<path d="M125.49 23.0146C125.49 21.2959 125.145 20.0329 124.455 19.2256C123.765 18.4183 122.84 18.0146 121.682 18.0146C121.265 18.0146 120.796 18.1058 120.275 18.2881C119.755 18.4574 119.221 18.6917 118.674 18.9912C118.127 19.2777 117.58 19.6162 117.033 20.0068C116.486 20.3975 115.972 20.8141 115.49 21.2568L115.451 23.8154V28.542C115.451 29.6488 115.464 30.6188 115.49 31.4521C115.516 32.2725 115.555 32.9821 115.607 33.5811C115.66 34.18 115.718 34.6813 115.783 35.085C115.848 35.4886 115.92 35.8271 115.998 36.1006V36.1787H111.486V36.1006C111.564 35.8271 111.636 35.4886 111.701 35.085C111.779 34.6813 111.838 34.18 111.877 33.5811C111.929 32.9821 111.968 32.2725 111.994 31.4521C112.033 30.6188 112.053 29.6488 112.053 28.542V23.8154C112.053 22.7087 112.033 21.7451 111.994 20.9248C111.968 20.0915 111.929 19.3753 111.877 18.7764C111.838 18.1774 111.779 17.6761 111.701 17.2725C111.636 16.8688 111.564 16.5303 111.486 16.2568V16.1787H115.998V16.2568C115.894 16.5824 115.809 16.999 115.744 17.5068C115.692 18.0016 115.633 18.6527 115.568 19.46C116.102 19.0173 116.675 18.5745 117.287 18.1318C117.912 17.6891 118.557 17.2985 119.221 16.96C119.885 16.6084 120.562 16.3285 121.252 16.1201C121.942 15.8988 122.619 15.7881 123.283 15.7881C124.299 15.7881 125.158 15.9639 125.861 16.3154C126.577 16.667 127.157 17.1292 127.6 17.7021C128.055 18.2751 128.381 18.9326 128.576 19.6748C128.785 20.404 128.889 21.1462 128.889 21.9014V28.542C128.889 29.6488 128.902 30.6188 128.928 31.4521C128.954 32.2725 128.993 32.9821 129.045 33.5811C129.097 34.18 129.156 34.6813 129.221 35.085C129.286 35.4886 129.357 35.8271 129.436 36.1006V36.1787H124.924V36.1006C125.002 35.8271 125.074 35.4886 125.139 35.085C125.217 34.6813 125.275 34.18 125.314 33.5811C125.367 32.9821 125.406 32.2725 125.432 31.4521C125.471 30.6188 125.49 29.6488 125.49 28.542V23.0146ZM133.146 26.1396C133.146 24.6683 133.42 23.3076 133.967 22.0576C134.514 20.7946 135.262 19.7008 136.213 18.7764C137.176 17.8519 138.309 17.1292 139.611 16.6084C140.913 16.0876 142.313 15.8271 143.811 15.8271C145.282 15.8271 146.662 16.0745 147.951 16.5693C149.253 17.0511 150.386 17.7412 151.35 18.6396C152.313 19.5381 153.068 20.6318 153.615 21.9209C154.175 23.21 154.455 24.6553 154.455 26.2568C154.455 27.598 154.221 28.887 153.752 30.124C153.283 31.361 152.593 32.4548 151.682 33.4053C150.77 34.3558 149.65 35.1175 148.322 35.6904C147.007 36.2503 145.49 36.5303 143.771 36.5303C142.313 36.5303 140.939 36.2894 139.65 35.8076C138.361 35.3258 137.235 34.6357 136.271 33.7373C135.308 32.8389 134.546 31.7516 133.986 30.4756C133.426 29.1865 133.146 27.7412 133.146 26.1396ZM144.221 35.1045C145.145 35.1045 145.992 34.9222 146.76 34.5576C147.541 34.193 148.212 33.6657 148.771 32.9756C149.331 32.2855 149.768 31.4456 150.08 30.4561C150.393 29.4665 150.549 28.3467 150.549 27.0967C150.549 25.6904 150.399 24.3883 150.1 23.1904C149.8 21.9795 149.351 20.9378 148.752 20.0654C148.166 19.18 147.424 18.4899 146.525 17.9951C145.627 17.5003 144.579 17.2529 143.381 17.2529C142.456 17.2529 141.61 17.4352 140.842 17.7998C140.074 18.1514 139.403 18.6657 138.83 19.3428C138.27 20.0199 137.834 20.8532 137.521 21.8428C137.209 22.8193 137.053 23.9326 137.053 25.1826C137.053 26.5889 137.202 27.8975 137.502 29.1084C137.814 30.3193 138.27 31.374 138.869 32.2725C139.468 33.1579 140.21 33.8545 141.096 34.3623C141.994 34.8571 143.036 35.1045 144.221 35.1045Z" fill="#262626"/>
</svg>
