<svg width="196" height="149" viewBox="0 0 196 149" fill="none" xmlns="http://www.w3.org/2000/svg">
<path d="M0.96224 145.998C0.96224 144.525 2.15615 143.331 3.62891 143.331C5.10167 143.331 6.29557 144.525 6.29557 145.998C6.29557 147.471 5.10167 148.664 3.62891 148.664C2.15615 148.664 0.96224 147.471 0.96224 145.998ZM94.1737 133.553L94.4986 133.933L94.4808 133.948L94.4616 133.961L94.1737 133.553ZM136.97 15.8444L137.281 16.2359L137.264 16.2491L137.246 16.2609L136.97 15.8444ZM195.879 2.71286L191.085 5.9301L190.696 0.169724L195.879 2.71286ZM7.50765 145.903C7.78263 145.929 7.98494 146.172 7.95953 146.447C7.93412 146.722 7.69061 146.925 7.41564 146.899L7.50765 145.903ZM15.1539 147.443C14.8781 147.429 14.6657 147.194 14.6795 146.918C14.6932 146.643 14.9279 146.43 15.2037 146.444L15.1539 147.443ZM22.9215 146.69C23.1976 146.694 23.4181 146.921 23.4141 147.197C23.4101 147.473 23.183 147.694 22.9068 147.69L22.9215 146.69ZM30.6525 147.677C30.3764 147.682 30.1486 147.462 30.1438 147.186C30.1389 146.91 30.3588 146.682 30.6349 146.677L30.6525 147.677ZM38.3504 146.419C38.6262 146.406 38.8608 146.618 38.8745 146.894C38.8881 147.17 38.6755 147.404 38.3997 147.418L38.3504 146.419ZM46.1334 146.909C45.8582 146.932 45.6167 146.727 45.5939 146.452C45.5712 146.177 45.7758 145.935 46.051 145.912L46.1334 146.909ZM53.7284 145.14C54.0025 145.107 54.2514 145.303 54.2841 145.577C54.3168 145.852 54.1211 146.1 53.8469 146.133L53.7284 145.14ZM61.5248 145.058C61.2522 145.102 60.9954 144.917 60.9512 144.644C60.9071 144.372 61.0922 144.115 61.3648 144.071L61.5248 145.058ZM68.9441 142.651C69.214 142.593 69.4799 142.764 69.5379 143.034C69.5959 143.304 69.4241 143.57 69.1541 143.628L68.9441 142.651ZM76.6913 141.76C76.4257 141.836 76.1491 141.682 76.0735 141.416C75.9979 141.151 76.1519 140.874 76.4175 140.799L76.6913 141.76ZM83.7087 138.38C83.9662 138.281 84.2558 138.409 84.3553 138.666C84.4549 138.924 84.3268 139.213 84.0692 139.313L83.7087 138.38ZM91.1491 136.034C90.9081 136.169 90.6034 136.083 90.4687 135.842C90.3339 135.601 90.4201 135.296 90.6611 135.162L91.1491 136.034ZM96.8369 130.462C97.0358 130.271 97.3523 130.277 97.5438 130.476C97.7354 130.675 97.7294 130.991 97.5305 131.183L96.8369 130.462ZM103.044 125.178C102.871 125.393 102.556 125.426 102.341 125.252C102.127 125.078 102.093 124.764 102.267 124.549L103.044 125.178ZM106.907 118.012C107.053 117.777 107.361 117.705 107.596 117.85C107.83 117.996 107.903 118.304 107.757 118.538L106.907 118.012ZM111.618 111.366C111.501 111.616 111.204 111.725 110.954 111.609C110.703 111.492 110.594 111.195 110.711 110.945L111.618 111.366ZM113.69 103.478C113.778 103.217 114.062 103.077 114.324 103.166C114.585 103.255 114.725 103.539 114.637 103.8L113.69 103.478ZM116.892 95.9826C116.827 96.251 116.557 96.4159 116.288 96.351C116.02 96.286 115.855 96.0158 115.92 95.7474L116.892 95.9826ZM117.523 87.8512C117.568 87.5789 117.826 87.3952 118.099 87.4409C118.371 87.4866 118.555 87.7445 118.509 88.0168L117.523 87.8512ZM119.632 79.9749C119.601 80.2492 119.353 80.446 119.078 80.4145C118.804 80.383 118.607 80.135 118.639 79.8607L119.632 79.9749ZM119.417 71.8203C119.44 71.545 119.681 71.3402 119.956 71.3628C120.232 71.3853 120.436 71.6267 120.414 71.902L119.417 71.8203ZM121.011 63.8237C120.992 64.0992 120.753 64.307 120.477 64.2879C120.202 64.2688 119.994 64.03 120.013 63.7545L121.011 63.8237ZM120.599 55.676C120.621 55.4008 120.862 55.1954 121.137 55.2174C121.412 55.2393 121.617 55.4802 121.595 55.7555L120.599 55.676ZM122.372 47.716C122.34 47.9902 122.091 48.1859 121.817 48.1533C121.542 48.1206 121.347 47.8718 121.379 47.5976L122.372 47.716ZM122.629 39.5581C122.683 39.2873 122.946 39.1118 123.217 39.166C123.488 39.2202 123.663 39.4837 123.609 39.7545L122.629 39.5581ZM125.675 32.0092C125.584 32.2699 125.299 32.4076 125.038 32.3167C124.777 32.2258 124.64 31.9408 124.731 31.68L125.675 32.0092ZM128.194 24.2674C128.339 24.0324 128.647 23.9594 128.882 24.1044C129.117 24.2495 129.19 24.5575 129.045 24.7925L128.194 24.2674ZM134.1 18.6964C133.894 18.8811 133.578 18.8643 133.393 18.659C133.209 18.4536 133.226 18.1375 133.431 17.9529L134.1 18.6964ZM139.937 13.3646C140.181 13.2358 140.484 13.3294 140.613 13.5736C140.742 13.8179 140.648 14.1203 140.404 14.2491L139.937 13.3646ZM147.354 11.3717C147.092 11.4597 146.809 11.3189 146.72 11.0572C146.632 10.7955 146.773 10.5119 147.035 10.4239L147.354 11.3717ZM154.385 8.29187C154.652 8.22426 154.924 8.38649 154.992 8.65422C155.059 8.92197 154.897 9.19382 154.629 9.26143L154.385 8.29187ZM162.032 7.59277C161.762 7.6474 161.498 7.47223 161.443 7.20154C161.389 6.93085 161.564 6.66714 161.835 6.61253L162.032 7.59277ZM169.341 5.24088C169.614 5.19583 169.871 5.38017 169.916 5.65262C169.961 5.92506 169.777 6.18245 169.504 6.22749L169.341 5.24088ZM177.02 5.0988C176.746 5.13596 176.494 4.94426 176.457 4.67062C176.42 4.39699 176.611 4.14505 176.885 4.10789L177.02 5.0988ZM184.457 3.18294C184.732 3.15314 184.978 3.35153 185.008 3.62607C185.038 3.9006 184.84 4.14731 184.565 4.17709L184.457 3.18294ZM192.132 3.46712C191.857 3.48853 191.616 3.28268 191.595 3.00737C191.573 2.73206 191.779 2.49153 192.055 2.47012L192.132 3.46712ZM3.68799 145.501C4.91842 145.648 6.19329 145.782 7.50765 145.903L7.41564 146.899C6.09309 146.777 4.80948 146.642 3.56982 146.494L3.68799 145.501ZM15.2037 146.444C17.6953 146.568 20.2764 146.651 22.9215 146.69L22.9068 147.69C20.2504 147.651 17.6576 147.568 15.1539 147.443L15.2037 146.444ZM30.6349 146.677C33.1797 146.632 35.7583 146.547 38.3504 146.419L38.3997 147.418C35.7969 147.546 33.2077 147.632 30.6525 147.677L30.6349 146.677ZM46.051 145.912C48.6235 145.7 51.1892 145.443 53.7284 145.14L53.8469 146.133C51.2951 146.438 48.7173 146.695 46.1334 146.909L46.051 145.912ZM61.3648 144.071C63.9506 143.651 66.4846 143.179 68.9441 142.651L69.1541 143.628C66.6766 144.161 64.1258 144.636 61.5248 145.058L61.3648 144.071ZM76.4175 140.799C78.9852 140.067 81.4263 139.262 83.7087 138.38L84.0692 139.313C81.7545 140.208 79.284 141.022 76.6913 141.76L76.4175 140.799ZM90.6611 135.162C91.8116 134.518 92.8888 133.846 93.8858 133.144L94.4616 133.961C93.4333 134.686 92.3264 135.376 91.1491 136.034L90.6611 135.162ZM93.8489 133.173C94.888 132.284 95.8834 131.381 96.8369 130.462L97.5305 131.183C96.5627 132.115 95.5527 133.032 94.4986 133.933L93.8489 133.173ZM102.267 124.549C103.985 122.426 105.525 120.243 106.907 118.012L107.757 118.538C106.354 120.804 104.79 123.021 103.044 125.178L102.267 124.549ZM110.711 110.945C111.848 108.495 112.833 106.002 113.69 103.478L114.637 103.8C113.769 106.355 112.771 108.881 111.618 111.366L110.711 110.945ZM115.92 95.7474C116.553 93.1303 117.079 90.494 117.523 87.8512L118.509 88.0168C118.062 90.6796 117.531 93.3394 116.892 95.9826L115.92 95.7474ZM118.639 79.8607C118.948 77.1687 119.199 74.4842 119.417 71.8203L120.414 71.902C120.195 74.5732 119.943 77.269 119.632 79.9749L118.639 79.8607ZM120.013 63.7545C120.203 61.0186 120.388 58.3192 120.599 55.676L121.595 55.7555C121.385 58.3924 121.201 61.0859 121.011 63.8237L120.013 63.7545ZM121.379 47.5976C121.71 44.8253 122.112 42.1378 122.629 39.5581L123.609 39.7545C123.099 42.3018 122.7 44.9622 122.372 47.716L121.379 47.5976ZM124.731 31.68C125.654 29.0301 126.787 26.5474 128.194 24.2674L129.045 24.7925C127.683 27.0007 126.579 29.4156 125.675 32.0092L124.731 31.68ZM133.431 17.9529C134.434 17.0505 135.519 16.2076 136.693 15.4279L137.246 16.2609C136.113 17.0138 135.067 17.8269 134.1 18.6964L133.431 17.9529ZM136.659 15.4529C137.581 14.7204 138.685 14.025 139.937 13.3646L140.404 14.2491C139.191 14.8889 138.142 15.5517 137.281 16.2359L136.659 15.4529ZM147.035 10.4239C149.31 9.65874 151.785 8.94836 154.385 8.29187L154.629 9.26143C152.049 9.91312 149.599 10.6165 147.354 11.3717L147.035 10.4239ZM161.835 6.61253C164.308 6.11353 166.828 5.65646 169.341 5.24088L169.504 6.22749C167.001 6.64139 164.493 7.09637 162.032 7.59277L161.835 6.61253ZM176.885 4.10789C179.498 3.75302 182.044 3.44487 184.457 3.18294L184.565 4.17709C182.16 4.4381 179.624 4.74518 177.02 5.0988L176.885 4.10789Z" fill="#9B9A84"/>
</svg>
