<svg width="196" height="149" viewBox="0 0 196 149" fill="none" xmlns="http://www.w3.org/2000/svg">
<path d="M0.522786 2.92992C0.522786 4.40268 1.71669 5.59658 3.18945 5.59658C4.66221 5.59658 5.85612 4.40268 5.85612 2.92992C5.85612 1.45716 4.66221 0.263252 3.18945 0.263252C1.71669 0.263252 0.522786 1.45716 0.522786 2.92992ZM93.7343 15.3751L94.0592 14.995L94.0413 14.9798L94.0222 14.9663L93.7343 15.3751ZM136.53 133.083L136.841 132.692L136.825 132.679L136.807 132.667L136.53 133.083ZM195.439 146.215L190.645 142.998L190.256 148.758L195.439 146.215ZM7.0682 3.02429C7.34317 2.99888 7.54548 2.75538 7.52007 2.48041C7.49466 2.20544 7.25116 2.00313 6.97619 2.02853L7.0682 3.02429ZM14.7145 1.48503C14.4387 1.49878 14.2263 1.73351 14.24 2.00931C14.2538 2.28511 14.4885 2.49754 14.7643 2.48379L14.7145 1.48503ZM22.482 2.23799C22.7581 2.23396 22.9787 2.00685 22.9746 1.73074C22.9706 1.45463 22.7435 1.23406 22.4674 1.2381L22.482 2.23799ZM30.2131 1.25067C29.937 1.24581 29.7092 1.46569 29.7043 1.74179C29.6995 2.01789 29.9194 2.24565 30.1955 2.25051L30.2131 1.25067ZM37.911 2.50859C38.1868 2.52222 38.4214 2.30967 38.435 2.03387C38.4486 1.75806 38.2361 1.52343 37.9603 1.50981L37.911 2.50859ZM45.694 2.01873C45.4187 1.99599 45.1772 2.20065 45.1545 2.47585C45.1317 2.75106 45.3364 2.99259 45.6116 3.01533L45.694 2.01873ZM53.2889 3.78765C53.5631 3.82037 53.8119 3.62462 53.8446 3.35043C53.8774 3.07623 53.6816 2.82742 53.4074 2.7947L53.2889 3.78765ZM61.0853 3.87003C60.8128 3.82585 60.556 4.01101 60.5118 4.2836C60.4676 4.55618 60.6528 4.81297 60.9254 4.85715L61.0853 3.87003ZM68.5046 6.27716C68.7746 6.33517 69.0405 6.16333 69.0985 5.89334C69.1565 5.62336 68.9846 5.35748 68.7147 5.29947L68.5046 6.27716ZM76.2519 7.1674C75.9863 7.09178 75.7097 7.24578 75.634 7.51137C75.5584 7.77695 75.7124 8.05355 75.978 8.12917L76.2519 7.1674ZM83.2692 10.5476C83.5268 10.6471 83.8163 10.519 83.9159 10.2615C84.0154 10.0039 83.8873 9.71439 83.6298 9.61482L83.2692 10.5476ZM90.7096 12.8933C90.4686 12.7586 90.164 12.8447 90.0292 13.0858C89.8945 13.3268 89.9806 13.6314 90.2216 13.7662L90.7096 12.8933ZM96.3974 18.4653C96.5963 18.6568 96.9128 18.6508 97.1044 18.4519C97.2959 18.253 97.2899 17.9365 97.091 17.7449L96.3974 18.4653ZM102.605 23.7497C102.431 23.535 102.116 23.5018 101.902 23.6756C101.687 23.8493 101.654 24.1641 101.828 24.3788L102.605 23.7497ZM106.468 30.9158C106.613 31.1506 106.921 31.223 107.156 31.0776C107.391 30.9322 107.463 30.624 107.318 30.3893L106.468 30.9158ZM111.178 37.5622C111.062 37.3117 110.765 37.2029 110.514 37.3191C110.264 37.4354 110.155 37.7327 110.271 37.9832L111.178 37.5622ZM113.25 45.4493C113.339 45.7108 113.623 45.8508 113.884 45.762C114.146 45.6732 114.286 45.3892 114.197 45.1277L113.25 45.4493ZM116.452 52.9451C116.387 52.6767 116.117 52.5118 115.849 52.5767C115.58 52.6417 115.415 52.9119 115.48 53.1803L116.452 52.9451ZM117.083 61.0765C117.129 61.3488 117.387 61.5325 117.659 61.4868C117.931 61.4411 118.115 61.1833 118.069 60.9109L117.083 61.0765ZM119.193 68.9529C119.161 68.6785 118.913 68.4817 118.639 68.5132C118.365 68.5448 118.168 68.7927 118.199 69.0671L119.193 68.9529ZM118.978 77.1075C119 77.3827 119.242 77.5875 119.517 77.565C119.792 77.5424 119.997 77.301 119.974 77.0258L118.978 77.1075ZM120.571 85.104C120.552 84.8285 120.313 84.6207 120.038 84.6398C119.763 84.6589 119.555 84.8978 119.574 85.1732L120.571 85.104ZM120.159 93.2517C120.181 93.527 120.422 93.7323 120.697 93.7104C120.973 93.6884 121.178 93.4475 121.156 93.1722L120.159 93.2517ZM121.933 101.212C121.9 100.938 121.651 100.742 121.377 100.774C121.103 100.807 120.907 101.056 120.94 101.33L121.933 101.212ZM122.189 109.37C122.243 109.64 122.507 109.816 122.778 109.762C123.048 109.708 123.224 109.444 123.17 109.173L122.189 109.37ZM125.235 116.919C125.144 116.658 124.859 116.52 124.599 116.611C124.338 116.702 124.2 116.987 124.291 117.248L125.235 116.919ZM127.755 124.66C127.9 124.895 128.208 124.968 128.443 124.823C128.678 124.678 128.751 124.37 128.606 124.135L127.755 124.66ZM133.66 130.231C133.455 130.047 133.139 130.063 132.954 130.269C132.769 130.474 132.786 130.79 132.992 130.975L133.66 130.231ZM139.498 135.563C139.742 135.692 140.044 135.598 140.173 135.354C140.302 135.11 140.209 134.807 139.964 134.679L139.498 135.563ZM146.914 137.556C146.653 137.468 146.369 137.609 146.281 137.871C146.193 138.132 146.334 138.416 146.596 138.504L146.914 137.556ZM153.945 140.636C154.213 140.703 154.485 140.541 154.552 140.274C154.62 140.006 154.458 139.734 154.19 139.666L153.945 140.636ZM161.593 141.335C161.322 141.28 161.058 141.456 161.004 141.726C160.949 141.997 161.124 142.261 161.395 142.315L161.593 141.335ZM168.902 143.687C169.174 143.732 169.432 143.548 169.477 143.275C169.522 143.003 169.337 142.745 169.065 142.7L168.902 143.687ZM176.58 143.829C176.307 143.792 176.055 143.983 176.017 144.257C175.98 144.531 176.172 144.783 176.446 144.82L176.58 143.829ZM184.018 145.745C184.292 145.775 184.539 145.576 184.569 145.302C184.599 145.027 184.4 144.78 184.126 144.751L184.018 145.745ZM191.693 145.461C191.417 145.439 191.177 145.645 191.155 145.92C191.134 146.196 191.34 146.436 191.615 146.458L191.693 145.461ZM3.24854 3.42641C4.47897 3.27998 5.75384 3.14575 7.0682 3.02429L6.97619 2.02853C5.65363 2.15075 4.37003 2.28589 3.13037 2.43342L3.24854 3.42641ZM14.7643 2.48379C17.2558 2.35957 19.8369 2.27666 22.482 2.23799L22.4674 1.2381C19.811 1.27693 17.2181 1.3602 14.7145 1.48503L14.7643 2.48379ZM30.1955 2.25051C32.7402 2.29532 35.3189 2.38057 37.911 2.50859L37.9603 1.50981C35.3574 1.38126 32.7682 1.29566 30.2131 1.25067L30.1955 2.25051ZM45.6116 3.01533C48.1841 3.22791 50.7498 3.48461 53.2889 3.78765L53.4074 2.7947C50.8556 2.49015 48.2778 2.23225 45.694 2.01873L45.6116 3.01533ZM60.9254 4.85715C63.5112 5.27625 66.0452 5.74876 68.5046 6.27716L68.7147 5.29947C66.2371 4.76718 63.6864 4.2916 61.0853 3.87003L60.9254 4.85715ZM75.978 8.12917C78.5458 8.86027 80.9869 9.66529 83.2692 10.5476L83.6298 9.61482C81.315 8.72003 78.8446 7.9056 76.2519 7.1674L75.978 8.12917ZM90.2216 13.7662C91.3721 14.4094 92.4493 15.0818 93.4464 15.7839L94.0222 14.9663C92.9938 14.2421 91.8869 13.5515 90.7096 12.8933L90.2216 13.7662ZM93.4094 15.7552C94.4486 16.6435 95.4439 17.5472 96.3974 18.4653L97.091 17.7449C96.1232 16.813 95.1133 15.8961 94.0592 14.995L93.4094 15.7552ZM101.828 24.3788C103.546 26.5021 105.086 28.6846 106.468 30.9158L107.318 30.3893C105.915 28.1234 104.35 25.9065 102.605 23.7497L101.828 24.3788ZM110.271 37.9832C111.408 40.4328 112.393 42.9256 113.25 45.4493L114.197 45.1277C113.33 42.5729 112.331 40.0468 111.178 37.5622L110.271 37.9832ZM115.48 53.1803C116.114 55.7975 116.64 58.4337 117.083 61.0765L118.069 60.9109C117.622 58.2481 117.092 55.5884 116.452 52.9451L115.48 53.1803ZM118.199 69.0671C118.509 71.759 118.759 74.4435 118.978 77.1075L119.974 77.0258C119.755 74.3546 119.504 71.6587 119.193 68.9529L118.199 69.0671ZM119.574 85.1732C119.764 87.9092 119.948 90.6086 120.159 93.2517L121.156 93.1722C120.946 90.5354 120.761 87.8419 120.571 85.104L119.574 85.1732ZM120.94 101.33C121.27 104.102 121.673 106.79 122.189 109.37L123.17 109.173C122.66 106.626 122.261 103.966 121.933 101.212L120.94 101.33ZM124.291 117.248C125.215 119.898 126.348 122.38 127.755 124.66L128.606 124.135C127.243 121.927 126.139 119.512 125.235 116.919L124.291 117.248ZM132.992 130.975C133.995 131.877 135.08 132.72 136.254 133.5L136.807 132.667C135.673 131.914 134.627 131.101 133.66 130.231L132.992 130.975ZM136.219 133.475C137.141 134.207 138.246 134.903 139.498 135.563L139.964 134.679C138.751 134.039 137.702 133.376 136.841 132.692L136.219 133.475ZM146.596 138.504C148.87 139.269 151.346 139.979 153.945 140.636L154.19 139.666C151.609 139.015 149.16 138.311 146.914 137.556L146.596 138.504ZM161.395 142.315C163.868 142.814 166.388 143.271 168.902 143.687L169.065 142.7C166.562 142.286 164.053 141.831 161.593 141.335L161.395 142.315ZM176.446 144.82C179.059 145.175 181.604 145.483 184.018 145.745L184.126 144.751C181.721 144.49 179.184 144.183 176.58 143.829L176.446 144.82Z" fill="#9B9A84"/>
</svg>
