<svg width="31" height="31" viewBox="0 0 31 31" fill="none" xmlns="http://www.w3.org/2000/svg">
<g clip-path="url(#clip0_271_209)">
<path d="M16.3022 15.0686C15.9844 15.2066 15.6416 15.2778 15.2951 15.2778C14.9486 15.2778 14.6058 15.2066 14.2879 15.0686L2.07365 9.41147C1.87531 9.31143 1.70864 9.1583 1.59218 8.96913C1.47572 8.77996 1.41406 8.56218 1.41406 8.34004C1.41406 8.11789 1.47572 7.90011 1.59218 7.71094C1.70864 7.52178 1.87531 7.36865 2.07365 7.26861L14.2879 1.56861C14.6058 1.43059 14.9486 1.35937 15.2951 1.35938C15.6416 1.35938 15.9844 1.43059 16.3022 1.56861L28.5165 7.22575C28.7149 7.32579 28.8815 7.47892 28.998 7.66809C29.1144 7.85726 29.1761 8.07504 29.1761 8.29718C29.1761 8.51932 29.1144 8.7371 28.998 8.92627C28.8815 9.11544 28.7149 9.26857 28.5165 9.36861L16.3022 15.0686Z" stroke="white" stroke-width="1.5" stroke-linecap="round" stroke-linejoin="round"/>
<path d="M29.2243 16.0327L16.1529 22.0541C15.8737 22.1815 15.5705 22.2474 15.2636 22.2474C14.9568 22.2474 14.6535 22.1815 14.3743 22.0541L1.36719 16.0327" stroke="white" stroke-width="1.5" stroke-linecap="round" stroke-linejoin="round"/>
<path d="M29.2243 22.9971L16.1529 29.0185C15.8737 29.1458 15.5705 29.2117 15.2636 29.2117C14.9568 29.2117 14.6535 29.1458 14.3743 29.0185L1.36719 22.9971" stroke="white" stroke-width="1.5" stroke-linecap="round" stroke-linejoin="round"/>
</g>
<defs>
<clipPath id="clip0_271_209">
<rect width="30" height="30" fill="white" transform="translate(0.294922 0.282715)"/>
</clipPath>
</defs>
</svg>
