<svg width="21" height="20" viewBox="0 0 21 20" fill="none" xmlns="http://www.w3.org/2000/svg">
<g clip-path="url(#clip0_309_3740)">
<path d="M10.207 19.9922C15.7204 19.9922 20.207 15.5055 20.207 9.99219C20.207 4.47886 15.7204 -0.0078125 10.207 -0.0078125C4.69365 -0.0078125 0.207031 4.47886 0.207031 9.99219C0.207031 15.5055 4.69371 19.9922 10.207 19.9922ZM10.207 1.3255C14.987 1.3255 18.8737 5.21215 18.8737 9.99219C18.8737 14.7722 14.9871 18.6589 10.207 18.6589C5.427 18.6589 1.54034 14.7722 1.54034 9.99219C1.54034 5.21215 5.42705 1.3255 10.207 1.3255Z" fill="#9B9A84"/>
<path d="M13.1224 13.1789C13.2457 13.2788 13.3924 13.3255 13.5391 13.3255C13.7357 13.3255 13.929 13.2389 14.059 13.0755C14.289 12.7889 14.2423 12.3689 13.9557 12.1388L10.8724 9.67218V4.65884C10.8724 4.29217 10.5724 3.99219 10.2057 3.99219C9.83905 3.99219 9.53906 4.29217 9.53906 4.65884V9.9922C9.53906 10.1955 9.63241 10.3855 9.78906 10.5122L13.1224 13.1789Z" fill="#9B9A84"/>
</g>
<defs>
<clipPath id="clip0_309_3740">
<rect width="20" height="20" fill="white" transform="translate(0.207031 -0.0078125)"/>
</clipPath>
</defs>
</svg>
