<svg width="45" height="45" viewBox="0 0 45 45" fill="none" xmlns="http://www.w3.org/2000/svg">
<g clip-path="url(#clip0_247_1410)">
<path d="M15.797 19.4598C19.7025 19.4598 22.8684 16.2938 22.8684 12.3883C22.8684 8.48288 19.7025 5.31689 15.797 5.31689C11.8916 5.31689 8.72559 8.48288 8.72559 12.3883C8.72559 16.2938 11.8916 19.4598 15.797 19.4598Z" stroke="#9B9A84" stroke-width="1.5" stroke-linecap="round" stroke-linejoin="round"/>
<path d="M29.94 43.0311H1.6543V39.8882C1.6543 36.1373 3.14434 32.54 5.79664 29.8877C8.44894 27.2354 12.0462 25.7454 15.7972 25.7454C19.5481 25.7454 23.1454 27.2354 25.7977 29.8877C28.45 32.54 29.94 36.1373 29.94 39.8882V43.0311Z" stroke="#9B9A84" stroke-width="1.5" stroke-linecap="round" stroke-linejoin="round"/>
<path d="M28.3682 5.31689C30.2436 5.31689 32.0423 6.06192 33.3684 7.38807C34.6946 8.71422 35.4396 10.5129 35.4396 12.3883C35.4396 14.2638 34.6946 16.0624 33.3684 17.3886C32.0423 18.7147 30.2436 19.4598 28.3682 19.4598" stroke="#9B9A84" stroke-width="1.5" stroke-linecap="round" stroke-linejoin="round"/>
<path d="M33.3975 26.3425C36.0747 27.361 38.3795 29.1683 40.007 31.5254C41.6345 33.8825 42.508 36.6782 42.5117 39.5425V43.0311H37.7975" stroke="#9B9A84" stroke-width="1.5" stroke-linecap="round" stroke-linejoin="round"/>
</g>
<defs>
<clipPath id="clip0_247_1410">
<rect width="44" height="44" fill="white" transform="translate(0.0830078 0.602539)"/>
</clipPath>
</defs>
</svg>
