<svg width="58" height="59" viewBox="0 0 58 59" fill="none" xmlns="http://www.w3.org/2000/svg">
<path d="M11.3589 43.5775C8.94219 40.9191 7.49219 38.0191 7.49219 33.1858C7.49219 24.7275 13.5339 17.2358 21.9922 13.3691L24.1672 16.5108C16.1922 20.8608 14.5005 26.4191 14.0172 30.0441C15.2255 29.3191 16.9172 29.0775 18.6089 29.3191C22.9589 29.8025 26.3422 33.1858 26.3422 37.7775C26.3422 39.9525 25.3755 42.1275 23.9255 43.8191C22.2339 45.5108 20.3005 46.2358 17.8839 46.2358C15.2255 46.2358 12.8089 45.0275 11.3589 43.5775ZM35.5255 43.5775C33.1089 40.9191 31.6589 38.0191 31.6589 33.1858C31.6589 24.7275 37.7005 17.2358 46.1589 13.3691L48.3339 16.5108C40.3589 20.8608 38.6672 26.4191 38.1839 30.0441C39.3922 29.3191 41.0839 29.0775 42.7755 29.3191C47.1255 29.8025 50.5089 33.1858 50.5089 37.7775C50.5089 39.9525 49.5422 42.1275 48.0922 43.8191C46.6422 45.5108 44.4672 46.2358 42.0505 46.2358C39.3922 46.2358 36.9755 45.0275 35.5255 43.5775Z" fill="white"/>
</svg>
