<svg width="30" height="31" viewBox="0 0 30 31" fill="none" xmlns="http://www.w3.org/2000/svg">
<g clip-path="url(#clip0_301_1317)">
<path d="M16.0053 14.9783C15.6875 15.1163 15.3447 15.1875 14.9982 15.1875C14.6517 15.1875 14.3089 15.1163 13.9911 14.9783L1.77678 9.32113C1.57844 9.22109 1.41176 9.06796 1.2953 8.87879C1.17885 8.68963 1.11719 8.47184 1.11719 8.2497C1.11719 8.02756 1.17885 7.80978 1.2953 7.62061C1.41176 7.43144 1.57844 7.27831 1.77678 7.17827L13.9911 1.47827C14.3089 1.34026 14.6517 1.26904 14.9982 1.26904C15.3447 1.26904 15.6875 1.34026 16.0053 1.47827L28.2196 7.13542C28.418 7.23546 28.5847 7.38859 28.7011 7.57776C28.8176 7.76692 28.8792 7.98471 28.8792 8.20685C28.8792 8.42899 28.8176 8.64677 28.7011 8.83594C28.5847 9.02511 28.418 9.17824 28.2196 9.27828L16.0053 14.9783Z" stroke="white" stroke-width="1.5" stroke-linecap="round" stroke-linejoin="round"/>
<path d="M28.9275 15.9424L15.856 21.9638C15.5769 22.0912 15.2736 22.1571 14.9667 22.1571C14.6599 22.1571 14.3566 22.0912 14.0775 21.9638L1.07031 15.9424" stroke="white" stroke-width="1.5" stroke-linecap="round" stroke-linejoin="round"/>
<path d="M28.9275 22.9067L15.856 28.9282C15.5769 29.0555 15.2736 29.1214 14.9667 29.1214C14.6599 29.1214 14.3566 29.0555 14.0775 28.9282L1.07031 22.9067" stroke="white" stroke-width="1.5" stroke-linecap="round" stroke-linejoin="round"/>
</g>
<defs>
<clipPath id="clip0_301_1317">
<rect width="30" height="30" fill="white" transform="translate(0 0.192383)"/>
</clipPath>
</defs>
</svg>
