<svg width="25" height="25" viewBox="0 0 25 25" fill="none" xmlns="http://www.w3.org/2000/svg">
<g clip-path="url(#clip0_256_1588)">
<path d="M13.3265 12.6876C13.0723 12.798 12.798 12.855 12.5208 12.855C12.2436 12.855 11.9694 12.798 11.7151 12.6876L1.94369 8.16189C1.78502 8.08186 1.65167 7.95935 1.55851 7.80802C1.46534 7.65668 1.41602 7.48246 1.41602 7.30474C1.41602 7.12703 1.46534 6.9528 1.55851 6.80147C1.65167 6.65014 1.78502 6.52763 1.94369 6.4476L11.7151 1.8876C11.9694 1.77719 12.2436 1.72021 12.5208 1.72021C12.798 1.72021 13.0723 1.77719 13.3265 1.8876L23.098 6.41331C23.2566 6.49335 23.39 6.61585 23.4832 6.76718C23.5763 6.91852 23.6256 7.09274 23.6256 7.27046C23.6256 7.44817 23.5763 7.6224 23.4832 7.77373C23.39 7.92506 23.2566 8.04757 23.098 8.1276L13.3265 12.6876Z" stroke="white" stroke-linecap="round" stroke-linejoin="round"/>
<path d="M23.6636 13.459L13.2065 18.2761C12.9832 18.378 12.7405 18.4307 12.4951 18.4307C12.2496 18.4307 12.007 18.378 11.7836 18.2761L1.37793 13.459" stroke="white" stroke-linecap="round" stroke-linejoin="round"/>
<path d="M23.6636 19.0305L13.2065 23.8477C12.9832 23.9495 12.7405 24.0023 12.4951 24.0023C12.2496 24.0023 12.007 23.9495 11.7836 23.8477L1.37793 19.0305" stroke="white" stroke-linecap="round" stroke-linejoin="round"/>
</g>
<defs>
<clipPath id="clip0_256_1588">
<rect width="24" height="24" fill="white" transform="translate(0.520508 0.858887)"/>
</clipPath>
</defs>
</svg>
