<svg width="31" height="31" viewBox="0 0 31 31" fill="none" xmlns="http://www.w3.org/2000/svg">
<g clip-path="url(#clip0_271_230)">
<path d="M11.2179 11.1116C13.8807 11.1116 16.0393 8.95298 16.0393 6.29018C16.0393 3.62738 13.8807 1.46875 11.2179 1.46875C8.55511 1.46875 6.39648 3.62738 6.39648 6.29018C6.39648 8.95298 8.55511 11.1116 11.2179 11.1116Z" stroke="white" stroke-width="1.5" stroke-linecap="round" stroke-linejoin="round"/>
<path d="M10.1456 27.1829H1.57422V23.9686C1.59128 22.3353 2.02203 20.733 2.82623 19.3113C3.63044 17.8896 4.78186 16.6949 6.17295 15.8389C7.56404 14.9828 9.14941 14.4933 10.781 14.4161C12.4125 14.3388 14.037 14.6764 15.5028 15.3972" stroke="white" stroke-width="1.5" stroke-linecap="round" stroke-linejoin="round"/>
<path d="M23.002 16.4688V29.3259" stroke="white" stroke-width="1.5" stroke-linecap="round" stroke-linejoin="round"/>
<path d="M16.5742 22.8975H29.4314" stroke="white" stroke-width="1.5" stroke-linecap="round" stroke-linejoin="round"/>
</g>
<defs>
<clipPath id="clip0_271_230">
<rect width="30" height="30" fill="white" transform="translate(0.503906 0.397461)"/>
</clipPath>
</defs>
</svg>
