<svg width="36" height="36" viewBox="0 0 36 36" fill="none" xmlns="http://www.w3.org/2000/svg">
<path d="M23.5808 34.5387C23.4355 34.5387 23.2891 34.5259 23.1438 34.4998C18.1391 33.5989 13.1501 30.8708 9.09648 26.8172C5.04282 22.7635 2.31472 17.7746 1.41383 12.7699C1.2441 11.8254 1.63991 10.843 2.42227 10.2672C3.42417 9.52984 4.50373 8.84439 5.63036 8.23108C6.37732 7.82461 7.25794 7.80194 7.98772 8.16958C10.4825 9.42711 12.1362 11.5216 12.9028 14.3947C13.1106 15.1723 12.9254 16.0154 12.4076 16.6497L10.7546 18.6724C10.4897 18.9968 10.4574 19.4441 10.6746 19.7856C12.0809 21.9983 13.9153 23.8328 16.128 25.2387C16.4692 25.4562 16.9166 25.4236 17.2413 25.159L19.2636 23.5064C19.8982 22.9882 20.7404 22.8034 21.5193 23.0109C24.392 23.7778 26.4866 25.4315 27.7441 27.9263C28.1121 28.6554 28.0894 29.5363 27.6829 30.2833C27.0693 31.4099 26.3838 32.4895 25.6461 33.4914C25.1593 34.1532 24.381 34.5387 23.5808 34.5387ZM6.88136 9.49205C6.7161 9.49205 6.54568 9.53534 6.38763 9.62158C5.32353 10.2009 4.30548 10.8472 3.36095 11.5422C3.061 11.7632 2.90845 12.1349 2.97235 12.4895C3.81621 17.1795 6.38866 21.8702 10.2159 25.6978C14.0435 29.525 18.7342 32.0975 23.4241 32.9413C23.7794 33.0049 24.1505 32.8523 24.3711 32.5527C25.0665 31.6082 25.7128 30.5901 26.2924 29.526C26.4501 29.236 26.4646 28.9045 26.3306 28.6392C25.2699 26.5354 23.5626 25.1948 21.1108 24.5406C20.8235 24.4643 20.5067 24.5354 20.2652 24.7326L18.2432 26.3849C17.3887 27.0831 16.1967 27.1594 15.2787 26.575C12.8687 25.0436 10.8701 23.0449 9.33837 20.635C8.75427 19.7162 8.83054 18.5247 9.52872 17.6705L11.1814 15.6481C11.3783 15.4069 11.4501 15.0912 11.3731 14.8032C10.7189 12.3511 9.37823 10.6438 7.27477 9.5831C7.15383 9.52229 7.01949 9.49205 6.88136 9.49205Z" fill="#9B9A84"/>
<path d="M33.821 18.7452C33.8097 18.7452 33.7983 18.7448 33.7873 18.7445C33.3503 18.7263 33.0112 18.3573 33.0294 17.9205C33.1984 13.8865 31.6636 9.94104 28.8187 7.09543C25.9734 4.25052 22.0362 2.7078 17.9936 2.88475C17.573 2.89575 17.1879 2.56418 17.1696 2.12679C17.1514 1.69009 17.4906 1.32108 17.9273 1.30287C22.4032 1.11321 26.7802 2.81844 29.9381 5.97602C33.0957 9.1336 34.7989 13.5116 34.6113 17.9869C34.5934 18.4122 34.2429 18.7452 33.821 18.7452Z" fill="#9B9A84"/>
<path d="M29.609 18.745C29.5935 18.745 29.5777 18.7446 29.5619 18.7436C29.1252 18.7178 28.7922 18.3433 28.818 17.907C28.9898 14.9882 27.9061 12.1316 25.8442 10.0697C23.7824 8.00783 20.9241 6.9269 18.007 7.09594C17.5682 7.12515 17.1961 6.78877 17.1703 6.35207C17.1446 5.91571 17.4775 5.5412 17.9142 5.51543C21.28 5.31512 24.5826 6.56888 26.9637 8.95029C29.3451 11.3317 30.5971 14.6302 30.3985 17.9997C30.3738 18.4206 30.025 18.745 29.609 18.745Z" fill="#9B9A84"/>
<path d="M25.4017 18.7451C25.377 18.7451 25.3522 18.7441 25.3272 18.7417C24.8918 18.7011 24.5719 18.3153 24.6125 17.8799C24.7802 16.0823 24.1452 14.3197 22.8698 13.0443C21.5944 11.7692 19.8332 11.1336 18.0341 11.3016C17.5991 11.3411 17.2126 11.0222 17.1724 10.5869C17.1319 10.1516 17.4517 9.76574 17.8871 9.72519C20.1575 9.51389 22.3798 10.3155 23.9892 11.9248C25.5989 13.5342 26.4005 15.7586 26.1889 18.027C26.1507 18.4372 25.8058 18.7451 25.4017 18.7451Z" fill="#9B9A84"/>
</svg>
