<svg width="61" height="61" viewBox="0 0 61 61" fill="none" xmlns="http://www.w3.org/2000/svg">
<g clip-path="url(#clip0_136_1235)">
<path d="M16.5812 43.6762L13.2212 44.4242C11.44 44.8106 9.84578 45.7972 8.70527 47.2188C7.56476 48.6404 6.94726 50.4106 6.95615 52.2332V53.8512C6.95769 54.9473 7.31851 56.0127 7.98336 56.8841C8.6482 57.7556 9.58039 58.3851 10.6371 58.6762C13.8821 59.5612 20.0412 60.6182 30.9562 60.6182C41.8712 60.6182 48.0302 59.5612 51.2752 58.6762C52.3319 58.3851 53.2641 57.7556 53.9289 56.8841C54.5938 56.0127 54.9546 54.9473 54.9562 53.8512V52.2332C54.965 50.4106 54.3475 48.6404 53.207 47.2188C52.0665 45.7972 50.4723 44.8106 48.6912 44.4242L45.3312 43.6762L40.7472 40.9272L38.9042 36.6272L39.5042 35.9362L39.9552 36.0572C40.427 36.182 40.913 36.2455 41.4012 36.2462C42.8757 36.243 44.2888 35.6549 45.3302 34.611C46.3717 33.5672 46.9564 32.1527 46.9562 30.6782V29.4782C47.8126 29.257 48.5716 28.7582 49.1145 28.0598C49.6573 27.3614 49.9533 26.5027 49.9562 25.6182V21.6182C49.9528 20.7339 49.6566 19.8758 49.1139 19.1777C48.5711 18.4797 47.8123 17.9812 46.9562 17.7602V16.6182C46.9562 12.3747 45.2704 8.30504 42.2699 5.30446C39.2693 2.30387 35.1996 0.618164 30.9562 0.618164C26.7127 0.618164 22.643 2.30387 19.6424 5.30446C16.6419 8.30504 14.9562 12.3747 14.9562 16.6182V17.7602C14.1 17.9812 13.3412 18.4797 12.7984 19.1777C12.2557 19.8758 11.9595 20.7339 11.9562 21.6182V25.6182C11.9562 26.679 12.3776 27.6964 13.1277 28.4466C13.8779 29.1967 14.8953 29.6182 15.9562 29.6182H17.9562C18.2976 29.6148 18.6359 29.5526 18.9562 29.4342V29.7792C18.9556 31.2068 19.4737 32.586 20.4142 33.6602L23.0142 36.6252L21.1702 40.9252L16.5812 43.6762ZM21.6722 42.9552C23.4809 45.3385 25.9575 47.1301 28.7872 48.1022C27.8229 49.0465 27.0217 50.144 26.4162 51.3502C23.2682 49.8807 20.5232 47.6703 18.4161 44.9082L21.6722 42.9552ZM52.9562 52.2332V53.8512C52.9566 54.5097 52.7407 55.1501 52.3418 55.674C51.9429 56.1979 51.383 56.5764 50.7482 56.7512C47.6212 57.6002 41.6492 58.6182 30.9562 58.6182C20.2632 58.6182 14.2912 57.6002 11.1642 56.7462C10.5301 56.5716 9.97081 56.1939 9.57199 55.671C9.17317 55.1481 8.95684 54.5088 8.95615 53.8512V52.2332C8.9493 50.8661 9.41253 49.5383 10.2682 48.4721C11.1239 47.406 12.32 46.6663 13.6562 46.3772L16.5302 45.7382C17.6572 47.2512 21.0742 51.4042 25.9122 53.3022C26.3261 53.4613 26.785 53.4575 27.1962 53.2916C27.6075 53.1257 27.9405 52.81 28.1282 52.4082C28.7842 51.0202 29.752 49.8025 30.9562 48.8502C32.1607 49.8022 33.1291 51.0195 33.7862 52.4072C33.9279 52.709 34.1525 52.9644 34.4338 53.1434C34.7152 53.3224 35.0417 53.4177 35.3752 53.4182C35.5901 53.4184 35.8032 53.378 36.0032 53.2992C40.8402 51.3992 44.2572 47.2482 45.3842 45.7352L48.2582 46.3742C49.5944 46.6638 50.7905 47.4041 51.6458 48.4708C52.5012 49.5375 52.9638 50.8659 52.9562 52.2332ZM35.4962 51.3502C34.8911 50.1437 34.0899 49.0461 33.1252 48.1022C35.9548 47.1301 38.4314 45.3385 40.2402 42.9552L43.4962 44.9082C41.3889 47.6701 38.644 49.8805 35.4962 51.3502ZM43.5662 33.5032C42.8408 34.0555 41.93 34.3063 41.0242 34.2032L41.4982 33.6612C42.4385 32.5866 42.9566 31.2071 42.9562 29.7792V29.4342C43.2764 29.5526 43.6147 29.6148 43.9562 29.6182H44.9562V30.6782C44.9581 31.2244 44.8336 31.7636 44.5925 32.2537C44.3514 32.7438 44.0001 33.1714 43.5662 33.5032ZM40.9562 17.6032C31.7692 17.3272 29.8972 13.2762 29.8852 13.2472C29.811 13.0614 29.6828 12.9022 29.5172 12.7901C29.3516 12.678 29.1561 12.6181 28.9562 12.6182C26.0466 12.6227 23.2476 13.7331 21.1262 15.7242C22.0212 10.7612 26.3042 6.61816 30.9562 6.61816C33.6074 6.62108 36.1493 7.67558 38.024 9.55031C39.8987 11.425 40.9532 13.9669 40.9562 16.6182V17.6032ZM47.9562 21.6182V25.6182C47.9562 26.1486 47.7454 26.6573 47.3704 27.0324C46.9953 27.4074 46.4866 27.6182 45.9562 27.6182H43.9562C43.6909 27.6182 43.4366 27.5128 43.249 27.3253C43.0615 27.1377 42.9562 26.8834 42.9562 26.6182V20.6182C42.9562 20.3529 43.0615 20.0986 43.249 19.9111C43.4366 19.7235 43.6909 19.6182 43.9562 19.6182H45.9562C46.4866 19.6182 46.9953 19.8289 47.3704 20.204C47.7454 20.579 47.9562 21.0877 47.9562 21.6182ZM30.9562 2.61816C34.668 2.62213 38.2266 4.09841 40.8513 6.72305C43.4759 9.3477 44.9522 12.9064 44.9562 16.6182V17.6182H43.9562C43.6147 17.6215 43.2764 17.6837 42.9562 17.8022V16.6182C42.9527 13.4366 41.6873 10.3864 39.4376 8.13668C37.1879 5.88699 34.1377 4.6216 30.9562 4.61816C24.5632 4.61816 18.9562 10.6932 18.9562 17.6182V17.8022C18.6359 17.6837 18.2976 17.6215 17.9562 17.6182H16.9562V16.6182C16.9601 12.9064 18.4364 9.3477 21.061 6.72305C23.6857 4.09841 27.2443 2.62213 30.9562 2.61816ZM17.9562 27.6182H15.9562C15.4257 27.6182 14.917 27.4074 14.5419 27.0324C14.1669 26.6573 13.9562 26.1486 13.9562 25.6182V21.6182C13.9562 21.0877 14.1669 20.579 14.5419 20.204C14.917 19.8289 15.4257 19.6182 15.9562 19.6182H17.9562C18.2214 19.6182 18.4757 19.7235 18.6633 19.9111C18.8508 20.0986 18.9562 20.3529 18.9562 20.6182V26.6182C18.9562 26.8834 18.8508 27.1377 18.6633 27.3253C18.4757 27.5128 18.2214 27.6182 17.9562 27.6182ZM20.9562 29.7792V18.9182C21.7991 17.6982 22.903 16.6812 24.1878 15.9407C25.4725 15.2003 26.906 14.755 28.3842 14.6372C29.3282 16.0662 32.4362 19.3522 40.9562 19.5962V29.7792C40.9563 30.7227 40.6137 31.6342 39.9922 32.3442L38.8222 33.6812L36.0222 32.9332L36.0522 32.8092C36.1133 32.5536 36.1235 32.2885 36.0822 32.029C36.0409 31.7695 35.9488 31.5207 35.8113 31.2968C35.6737 31.0729 35.4934 30.8783 35.2806 30.7241C35.0678 30.5699 34.8268 30.4591 34.5712 30.3982L31.6542 29.6982C30.88 29.5128 30.0639 29.6425 29.3854 30.0589C28.7069 30.4752 28.2215 31.144 28.0362 31.9182C27.8508 32.6923 27.9805 33.5084 28.3968 34.1869C28.8132 34.8654 29.482 35.3508 30.2562 35.5362L33.1732 36.2362C33.3271 36.2731 33.4848 36.2919 33.6432 36.2922C34.0699 36.2924 34.4853 36.1549 34.8276 35.9002C35.1699 35.6454 35.4209 35.287 35.5432 34.8782L37.3522 35.3622L35.8562 37.0682C35.4305 37.5549 34.9056 37.9451 34.3168 38.2124C33.728 38.4797 33.0888 38.6181 32.4422 38.6182H29.4702C28.8235 38.6178 28.1845 38.4793 27.5957 38.212C27.0069 37.9447 26.482 37.5547 26.0562 37.0682L21.9222 32.3432C21.2999 31.6339 20.9565 30.7227 20.9562 29.7792ZM34.1062 32.3442L33.6422 34.2882L30.7242 33.5882C30.5949 33.5591 30.4727 33.5047 30.3647 33.428C30.2566 33.3514 30.1649 33.254 30.0948 33.1416C30.0247 33.0292 29.9776 32.904 29.9563 32.7732C29.935 32.6425 29.9399 32.5088 29.9707 32.38C30.0015 32.2511 30.0576 32.1297 30.1358 32.0227C30.2139 31.9157 30.3125 31.8253 30.4259 31.7568C30.5392 31.6882 30.6651 31.6429 30.7961 31.6234C30.9271 31.6039 31.0607 31.6106 31.1892 31.6432L34.1062 32.3442ZM24.5482 38.3852C25.1619 39.0868 25.9186 39.6491 26.7675 40.0343C27.6165 40.4194 28.5379 40.6185 29.4702 40.6182H32.4422C33.3743 40.6184 34.2958 40.4193 35.1447 40.0342C35.9937 39.649 36.7504 39.0868 37.3642 38.3852L37.4442 38.2942L38.8212 41.5092C36.9239 44.1258 34.1199 45.9419 30.9562 46.6032C27.7924 45.9419 24.9884 44.1258 23.0912 41.5092L24.4692 38.2942L24.5482 38.3852Z" fill="#9B9A84"/>
</g>
<defs>
<clipPath id="clip0_136_1235">
<rect width="60" height="60" fill="white" transform="translate(0.956055 0.618164)"/>
</clipPath>
</defs>
</svg>
