<svg width="36" height="35" viewBox="0 0 36 35" fill="none" xmlns="http://www.w3.org/2000/svg">
<g clip-path="url(#clip0_1381_62)">
<path d="M29.0923 3C26.0989 3 23.5783 5.06336 22.8781 7.84251H3.06047C2.39075 7.84251 1.75795 8.0992 1.27725 8.56561C1.27677 8.56609 1.27622 8.56657 1.27574 8.56705C1.27417 8.56862 1.27253 8.57013 1.27089 8.5717C0.773779 9.0576 0.5 9.70797 0.5 10.403V26.9617C0.5 27.667 0.795176 28.3477 1.30965 28.8295C1.31067 28.8305 1.3117 28.8315 1.31272 28.8325C1.78864 29.2773 2.40928 29.5223 3.06047 29.5223H27.2155C27.8646 29.5223 28.4835 29.2788 28.9586 28.8369C28.962 28.8338 28.9653 28.8306 28.9687 28.8274C29.4817 28.3455 29.7759 27.6659 29.7759 26.9618V15.7792C32.989 15.4369 35.5 12.71 35.5 9.40767C35.5 5.87451 32.6256 3 29.0923 3ZM3.06047 9.2097H22.6877C22.6858 9.27546 22.6847 9.34143 22.6847 9.40767C22.6847 10.6319 23.0299 11.7771 23.6279 12.751L15.5848 20.3541H14.6913L2.91145 9.21886C2.96053 9.21277 3.01029 9.2097 3.06047 9.2097ZM1.86719 10.403C1.86719 10.3135 1.87696 10.2256 1.89597 10.1404L11.4724 19.1928L1.92023 27.315C1.88558 27.2024 1.86719 27.0838 1.86719 26.9617V10.403ZM27.2155 28.155H3.06047C3.05486 28.155 3.04939 28.1543 3.04386 28.1543L12.4719 20.1376L13.9497 21.5345C14.0767 21.6545 14.2447 21.7212 14.4193 21.7212H15.8567C16.0314 21.7212 16.1994 21.6544 16.3264 21.5345L17.8041 20.1376L27.2329 28.1549C27.2271 28.155 27.2213 28.155 27.2155 28.155ZM28.4087 26.9617C28.4087 27.0838 28.3908 27.2026 28.356 27.3153L18.8035 19.1928L24.4677 13.8385C25.4864 14.9014 26.8667 15.6149 28.4087 15.7792V26.9617ZM29.0923 14.4482C26.313 14.4482 24.0519 12.187 24.0519 9.40767C24.0519 6.62831 26.313 4.36719 29.0923 4.36719C31.8717 4.36719 34.1328 6.62831 34.1328 9.40767C34.1328 12.187 31.8717 14.4482 29.0923 14.4482Z" fill="#9B9A84"/>
<path d="M29.3206 7.21875H28.5898C28.2123 7.21875 27.9062 7.52486 27.9062 7.90234C27.9062 8.27982 28.2123 8.58594 28.5898 8.58594H28.637V11.3197C28.637 11.6972 28.9431 12.0033 29.3206 12.0033C29.6982 12.0033 30.0042 11.6972 30.0042 11.3197V7.90234C30.0042 7.52479 29.6982 7.21875 29.3206 7.21875Z" fill="#9B9A84"/>
</g>
<defs>
<clipPath id="clip0_1381_62">
<rect width="35" height="35" fill="white" transform="translate(0.5)"/>
</clipPath>
</defs>
</svg>
