<svg width="21" height="20" viewBox="0 0 21 20" fill="none" xmlns="http://www.w3.org/2000/svg">
<g clip-path="url(#clip0_309_3729)">
<path d="M20.179 11.1243C20.1789 11.1242 20.1789 11.1241 20.1789 11.124L16.4028 1.64259C16.3226 1.44113 16.0943 1.34279 15.8928 1.42293C15.8927 1.42298 15.8925 1.42302 15.8924 1.42312L0.573332 7.52303C0.510859 7.55002 0.456679 7.59311 0.41629 7.64788C0.288889 7.71408 0.208405 7.84512 0.207031 7.98866V18.1964C0.207031 18.4132 0.38282 18.589 0.599637 18.589H17.0891C17.3059 18.589 17.4817 18.4132 17.4817 18.1964V12.6214L19.9598 11.6344C20.1612 11.5541 20.2593 11.3257 20.179 11.1243ZM16.6965 17.8038H0.992242V8.38127H16.6965V17.8038ZM6.75765 7.59802L13.3314 4.97856C13.9181 5.59524 14.7311 5.94574 15.5822 5.94908L16.2379 7.59802H6.75765ZM17.4817 11.7781V7.98866C17.4817 7.77185 17.3059 7.59606 17.0891 7.59606H17.0828L16.2508 5.50661C16.2416 5.48919 16.2309 5.4726 16.2187 5.45714C16.1765 5.26805 16.0014 5.13903 15.8084 5.15484C15.0164 5.22703 14.2416 4.89341 13.75 4.26833C13.6276 4.11733 13.4126 4.07978 13.2462 4.18039C13.2276 4.1826 13.2091 4.18603 13.1909 4.1906L5.16524 7.38641C5.06812 7.42449 4.99044 7.50002 4.9497 7.59606H2.51241L15.8186 2.29785L19.3045 11.051L17.4817 11.7781Z" fill="#9B9A84"/>
<path d="M2.05766 15.1533C2.81991 15.3786 3.41637 15.9744 3.64261 16.7363C3.69223 16.9026 3.8452 17.0166 4.01873 17.0166C4.03909 17.0154 4.05931 17.0123 4.07919 17.0076C4.09681 17.0126 4.11482 17.0163 4.13298 17.0186H13.5555C13.5717 17.0165 13.5877 17.0132 13.6034 17.0088C13.7996 17.0565 13.9972 16.9362 14.045 16.7401C14.0451 16.7393 14.0453 16.7386 14.0455 16.7379C14.2711 15.9752 14.8677 15.3786 15.6304 15.1529C15.8154 15.0964 15.9303 14.9121 15.8997 14.7211C15.905 14.702 15.9088 14.6826 15.9111 14.663V11.5221C15.9088 11.5025 15.9049 11.483 15.8994 11.464C15.9301 11.273 15.8151 11.0886 15.63 11.0322C14.8673 10.8066 14.2709 10.2098 14.0459 9.44682C13.989 9.26058 13.8029 9.14535 13.6109 9.1775C13.5927 9.17244 13.5742 9.16876 13.5555 9.1665H4.13298C4.1132 9.16886 4.09362 9.17279 4.07448 9.17828C3.88352 9.14785 3.69929 9.26274 3.64261 9.44761C3.41681 10.2102 2.8203 10.8066 2.05766 11.0322C1.8727 11.0887 1.75776 11.273 1.78834 11.464C1.78323 11.4831 1.77955 11.5025 1.77734 11.5221V14.663C1.7796 14.6814 1.78328 14.6997 1.78834 14.7175C1.75614 14.9098 1.87132 15.0962 2.05766 15.1533ZM2.56255 11.6815C3.35091 11.3649 3.97574 10.7401 4.29237 9.95171H13.3957C13.7125 10.7401 14.3375 11.3649 15.1259 11.6815V14.5036C14.3378 14.8206 13.7131 15.4453 13.3961 16.2334H4.29237C3.97539 15.4453 3.35066 14.8206 2.56255 14.5036V11.6815Z" fill="#9B9A84"/>
<path d="M8.84391 15.4481C10.1449 15.4481 11.1995 14.3934 11.1995 13.0924C11.1995 11.7915 10.1449 10.7368 8.84391 10.7368C7.54292 10.7368 6.48828 11.7915 6.48828 13.0924C6.48956 14.3929 7.54346 15.4468 8.84391 15.4481ZM8.84391 11.522C9.71123 11.522 10.4143 12.2251 10.4143 13.0924C10.4143 13.9598 9.71123 14.6629 8.84391 14.6629C7.9766 14.6629 7.27349 13.9598 7.27349 13.0924C7.27349 12.2251 7.9766 11.522 8.84391 11.522Z" fill="#9B9A84"/>
<path d="M4.52641 13.6817C4.85163 13.6817 5.11532 13.418 5.11532 13.0928C5.11532 12.7676 4.85163 12.5039 4.52641 12.5039C4.20118 12.5039 3.9375 12.7676 3.9375 13.0928C3.9375 13.4181 4.20118 13.6817 4.52641 13.6817ZM4.52641 12.8965C4.63482 12.8965 4.72271 12.9844 4.72271 13.0928C4.72271 13.2012 4.63482 13.2891 4.52641 13.2891C4.418 13.2891 4.33011 13.2012 4.33011 13.0928C4.33011 12.9844 4.418 12.8965 4.52641 12.8965Z" fill="#9B9A84"/>
<path d="M13.1631 13.6812C13.4884 13.6812 13.752 13.4176 13.752 13.0923C13.752 12.7671 13.4884 12.5034 13.1631 12.5034C12.8379 12.5034 12.5742 12.7671 12.5742 13.0923C12.5742 13.4176 12.8379 13.6812 13.1631 13.6812ZM13.1631 12.896C13.2715 12.896 13.3594 12.9839 13.3594 13.0923C13.3594 13.2007 13.2715 13.2886 13.1631 13.2886C13.0547 13.2886 12.9668 13.2007 12.9668 13.0923C12.9668 12.9839 13.0547 12.896 13.1631 12.896Z" fill="#9B9A84"/>
</g>
<defs>
<clipPath id="clip0_309_3729">
<rect width="20" height="20" fill="white" transform="translate(0.207031 -0.0078125)"/>
</clipPath>
</defs>
</svg>
