<svg width="21" height="20" viewBox="0 0 21 20" fill="none" xmlns="http://www.w3.org/2000/svg">
<path d="M12.8901 10.0493L9.34857 13.5909L7.52393 11.7662C7.27979 11.5221 6.88428 11.5221 6.64014 11.7662C6.396 12.0104 6.396 12.4059 6.64014 12.65L8.90668 14.9166C9.02875 15.0386 9.18866 15.0997 9.34857 15.0997C9.50848 15.0997 9.6684 15.0386 9.79047 14.9166L13.7739 10.9331C14.0181 10.689 14.0181 10.2935 13.7739 10.0493C13.5298 9.80518 13.1343 9.80518 12.8901 10.0493Z" fill="#9B9A84"/>
<path d="M15.832 2.46716H14.8945V1.86719C14.8945 1.52203 14.6147 1.24219 14.2695 1.24219C13.9244 1.24219 13.6445 1.52203 13.6445 1.86719V2.46716H6.76953V1.86719C6.76953 1.52203 6.48969 1.24219 6.14453 1.24219C5.79938 1.24219 5.51953 1.52203 5.51953 1.86719V2.46716H4.58203C2.85901 2.46716 1.45703 3.86914 1.45703 5.59216V15.6172C1.45703 17.3402 2.85901 18.7422 4.58203 18.7422H15.832C17.5551 18.7422 18.957 17.3402 18.957 15.6172V5.59216C18.957 3.86914 17.5551 2.46716 15.832 2.46716ZM2.70703 5.59216C2.70703 4.55823 3.5481 3.71716 4.58203 3.71716H5.51953V4.31683C5.51953 4.66199 5.79938 4.94183 6.14453 4.94183C6.48969 4.94183 6.76953 4.66199 6.76953 4.31683V3.71716H13.6445V4.31683C13.6445 4.66199 13.9244 4.94183 14.2695 4.94183C14.6147 4.94183 14.8945 4.66199 14.8945 4.31683V3.71716H15.832C16.866 3.71716 17.707 4.55823 17.707 5.59216V6.22327H2.70703V5.59216ZM15.832 17.4922H4.58203C3.5481 17.4922 2.70703 16.6511 2.70703 15.6172V7.47327H17.707V15.6172C17.707 16.6511 16.866 17.4922 15.832 17.4922Z" fill="#9B9A84"/>
</svg>
