<svg width="61" height="61" viewBox="0 0 61 61" fill="none" xmlns="http://www.w3.org/2000/svg">
<g clip-path="url(#clip0_136_1241)">
<path d="M10.0861 48.4395C10.3143 48.1863 10.6499 47.9012 11.0938 47.584C11.5369 47.2674 12.0189 46.9508 12.5386 46.6335C13.0579 46.3168 13.5842 46.0061 14.1165 45.702C14.649 45.3977 15.1051 45.1316 15.4853 44.9036C16.0426 44.5744 16.588 44.2132 17.1203 43.82C17.6527 43.4272 18.1337 42.971 18.5651 42.4513C18.9959 41.932 19.3446 41.3428 19.6107 40.6833C19.8769 40.0243 20.0098 39.2763 20.0098 38.4399C20.0098 36.4122 19.281 34.8029 17.8237 33.6111C16.3657 32.42 14.2686 31.824 11.5311 31.824C10.4154 31.824 9.34487 31.9257 8.31819 32.1282C7.29162 32.3314 6.34697 32.6035 5.48552 32.9457C4.62337 33.288 3.85052 33.6746 3.16614 34.1054C2.48176 34.5366 1.93649 34.9798 1.53125 35.4361L5.40947 39.9226C6.14435 39.0861 6.90479 38.4083 7.69077 37.8885C8.47628 37.3693 9.40171 37.109 10.4664 37.109C11.4039 37.109 12.1263 37.3247 12.6336 37.7554C13.1404 38.1868 13.3941 38.757 13.3941 39.4664C13.3941 39.8216 13.2925 40.1317 13.09 40.3979C12.8868 40.664 12.5511 40.9623 12.0823 41.2914C11.6129 41.6211 10.9795 42.0013 10.1811 42.4321C9.38273 42.8634 8.38757 43.4081 7.19635 44.067C6.08072 44.7008 5.15576 45.3472 4.42075 46.0059C3.68528 46.6655 3.10239 47.3813 2.67184 48.1544C2.24059 48.9278 1.93649 49.7834 1.7593 50.7209C1.58164 51.659 1.49316 52.7236 1.49316 53.9147H20.4282V48.4395H10.0861Z" fill="#9B9A84"/>
<path d="M39.2865 48.0592V32.2041H35.1422L22.7471 48.0972V53.5344H33.203V58.7434H39.2865V53.5344H42.6325V48.0592H39.2865ZM33.9254 48.0593H28.7545L33.9254 41.3294V48.0593Z" fill="#9B9A84"/>
<path d="M5.03025 55.304V57.3395H2.93563V55.304H1.72168V60.5591H2.93563V58.4052H5.03025V60.5591H6.2442V55.304H5.03025Z" fill="#9B9A84"/>
<path d="M13.0982 56.9691C12.9751 56.6484 12.8 56.3621 12.573 56.1105C12.3459 55.8588 12.0721 55.6568 11.7514 55.5036C11.4305 55.3507 11.0753 55.2742 10.6854 55.2742C10.3055 55.2742 9.95512 55.3471 9.63438 55.4925C9.31352 55.6382 9.03602 55.833 8.80153 56.0771C8.56715 56.3214 8.38445 56.604 8.25379 56.9248C8.12289 57.2456 8.05762 57.5787 8.05762 57.924C8.05762 58.2645 8.12055 58.5952 8.24641 58.9158C8.37227 59.2366 8.54852 59.5216 8.77551 59.7707C9.0025 60.0198 9.27637 60.221 9.59712 60.3738C9.91786 60.5268 10.2731 60.6033 10.6631 60.6033C11.043 60.6033 11.3933 60.5293 11.7141 60.3811C12.0349 60.2332 12.3112 60.0369 12.5431 59.7928C12.7751 59.5486 12.9563 59.2659 13.0871 58.9452C13.2179 58.6245 13.2833 58.2914 13.2833 57.9459C13.2833 57.6156 13.2215 57.2898 13.0982 56.9691ZM11.9623 58.505C11.9055 58.6951 11.8204 58.8653 11.7069 59.0157C11.5934 59.1663 11.4502 59.2884 11.2777 59.3823C11.1049 59.4759 10.9026 59.5229 10.6707 59.5229C10.4486 59.5229 10.2513 59.4785 10.0785 59.3898C9.90567 59.301 9.76141 59.1824 9.64551 59.0345C9.52962 58.8866 9.44208 58.7175 9.38278 58.5275C9.32348 58.3376 9.29395 58.1415 9.29395 57.9391C9.29395 57.7418 9.32231 57.5481 9.37915 57.358C9.43598 57.1682 9.52212 56.9991 9.63813 56.8511C9.75415 56.703 9.89712 56.5834 10.0674 56.4921C10.2377 56.4008 10.4388 56.3551 10.6706 56.3551C10.8926 56.3551 11.0887 56.3984 11.259 56.4847C11.4291 56.5711 11.5735 56.6872 11.6919 56.8325C11.8102 56.9782 11.8992 57.146 11.9583 57.3359C12.0175 57.5258 12.0472 57.7221 12.0472 57.9243C12.0475 58.1215 12.019 58.3152 11.9623 58.505Z" fill="#9B9A84"/>
<path d="M18.473 55.3041V57.9907H18.4726C18.4726 58.1833 18.4541 58.3719 18.4171 58.557C18.3801 58.742 18.3171 58.9061 18.2284 59.0492C18.1396 59.1923 18.0236 59.3071 17.8805 59.3933C17.7375 59.4798 17.5622 59.523 17.355 59.523C17.1477 59.523 16.9738 59.481 16.8332 59.3971C16.6924 59.3133 16.5777 59.1996 16.489 59.0565C16.4002 58.9137 16.3359 58.7507 16.2965 58.5681C16.2568 58.3855 16.2373 58.1932 16.2373 57.9907V55.304H15.0234V57.9907C15.0234 58.3362 15.0666 58.6668 15.1529 58.9825C15.2393 59.2984 15.3751 59.5758 15.5602 59.8153C15.7452 60.0549 15.9858 60.2459 16.2818 60.3889C16.5779 60.5319 16.9356 60.6035 17.3551 60.6035C17.7597 60.6035 18.1088 60.5358 18.4026 60.4C18.696 60.2643 18.9379 60.078 19.1278 59.8412C19.3178 59.6043 19.4584 59.3281 19.5498 59.0123C19.6411 58.6965 19.6868 58.356 19.6868 57.9908V55.3041H18.473Z" fill="#9B9A84"/>
<path d="M24.9635 58.605C25.0966 58.531 25.2162 58.441 25.3225 58.3348C25.4286 58.2286 25.5186 58.109 25.5926 57.9758C25.6666 57.8426 25.7234 57.7007 25.7629 57.5501C25.8023 57.3996 25.8221 57.2429 25.8221 57.0802C25.8221 56.8629 25.7788 56.6483 25.6925 56.4361C25.6061 56.224 25.4865 56.034 25.3335 55.8663C25.1805 55.6986 24.9992 55.5628 24.7895 55.4591C24.5798 55.3556 24.3516 55.3037 24.1049 55.3037H21.7363V60.559H22.9502V58.864H23.7421L24.7488 60.559H26.118L24.9635 58.605ZM24.4306 57.602C24.327 57.7378 24.2035 57.8056 24.0605 57.8056H22.9503V56.3697H24.0236C24.1615 56.3697 24.2901 56.4339 24.4084 56.5622C24.5268 56.6905 24.5861 56.8632 24.5861 57.0804C24.586 57.2924 24.5342 57.4664 24.4306 57.602Z" fill="#9B9A84"/>
<path d="M31.5326 58.3901C31.4559 58.2177 31.3475 58.0709 31.2069 57.9499C31.0661 57.829 30.8947 57.7277 30.6924 57.6464C30.4899 57.565 30.2632 57.4898 30.0115 57.4206C29.8288 57.3714 29.6684 57.3269 29.5304 57.2875C29.3922 57.2481 29.2775 57.2048 29.1862 57.1578C29.0948 57.111 29.0258 57.0579 28.9789 56.9987C28.9318 56.9395 28.9085 56.8656 28.9085 56.7766C28.9085 56.4855 29.1256 56.3399 29.5598 56.3399C29.7175 56.3399 29.8756 56.3621 30.0336 56.4065C30.1913 56.451 30.337 56.5029 30.4704 56.5619C30.6035 56.6211 30.7145 56.6781 30.8034 56.7322C30.8921 56.7866 30.944 56.8236 30.9588 56.8433L31.4918 55.8367C31.3734 55.7676 31.2438 55.6987 31.1032 55.6294C30.9626 55.5603 30.8108 55.4986 30.6479 55.4443C30.4851 55.3901 30.3149 55.3458 30.1372 55.3112C29.9595 55.2767 29.7794 55.2593 29.597 55.2593C29.3353 55.2593 29.0874 55.2964 28.8532 55.3704C28.6188 55.4443 28.4127 55.5542 28.2352 55.6997C28.0576 55.8453 27.917 56.0243 27.8132 56.2364C27.7096 56.4487 27.6579 56.693 27.6579 56.9693C27.6579 57.1667 27.6861 57.3394 27.7429 57.4874C27.7998 57.6354 27.8859 57.7662 28.0019 57.8797C28.1179 57.9933 28.2647 58.0932 28.4424 58.1795C28.6201 58.266 28.8298 58.346 29.0716 58.4202C29.2542 58.4744 29.4232 58.5237 29.5786 58.5681C29.7341 58.6125 29.8685 58.6607 29.9819 58.7125C30.0952 58.7643 30.1843 58.8223 30.2484 58.8864C30.3124 58.9505 30.3447 59.0319 30.3447 59.1306C30.3447 59.3921 30.13 59.5229 29.7008 59.5229C29.4983 59.5229 29.2985 59.4957 29.1011 59.4415C28.9038 59.3872 28.7247 59.3255 28.5644 59.2564C28.404 59.1874 28.2695 59.1184 28.1611 59.049C28.0525 58.9801 27.9883 58.9331 27.9685 58.9084L27.4355 59.9668C27.5885 60.0703 27.755 60.1617 27.9351 60.2406C28.1152 60.3196 28.3017 60.3874 28.494 60.4441C28.6864 60.5009 28.8836 60.5441 29.0861 60.5736C29.2885 60.6033 29.4858 60.618 29.6783 60.618C29.93 60.618 30.1742 60.5896 30.4112 60.5329C30.648 60.4761 30.8577 60.3848 31.0404 60.2591C31.2229 60.1332 31.3697 59.968 31.4808 59.7632C31.5919 59.5584 31.6473 59.3079 31.6473 59.0119C31.6472 58.7701 31.6091 58.5629 31.5326 58.3901Z" fill="#9B9A84"/>
<path d="M34.0305 28.9596C33.7001 27.6494 32.6668 26.6159 31.3565 26.2856V10.1179H29.5552V26.2858C27.9565 26.6888 26.7695 28.1384 26.7695 29.8603C26.7695 31.8931 28.4233 33.5466 30.4558 33.5466C32.1779 33.5466 33.6274 32.3595 34.0304 30.7609H44.7477V28.9596H34.0305ZM30.4559 31.7453C29.4166 31.7453 28.5709 30.8997 28.5709 29.8603C28.5709 28.821 29.4166 27.9754 30.4559 27.9754C31.4953 27.9754 32.3409 28.821 32.3409 29.8603C32.3409 30.8997 31.4953 31.7453 30.4559 31.7453Z" fill="#9B9A84"/>
<path d="M56.419 43.3272C58.5641 39.1998 59.6982 34.5429 59.6982 29.8602C59.6982 22.0494 56.6564 14.706 51.1335 9.18273C45.6102 3.65989 38.2668 0.618164 30.456 0.618164C22.6452 0.618164 15.3017 3.65989 9.77855 9.18285C4.2556 14.706 1.21387 22.0495 1.21387 29.8603V30.761H6.71701V28.9597H3.02969C3.17337 24.5252 4.37536 20.3541 6.38912 16.6893L9.5587 18.5618L10.4749 17.0109L7.30682 15.1393C9.47855 11.736 12.3802 8.84242 15.7888 6.67819L17.6525 9.84965L19.2055 8.93699L17.3406 5.76342C20.9919 3.76818 25.1434 2.57872 29.5554 2.43575V6.12131H31.3567V2.43575C35.7909 2.57954 39.9624 3.77966 43.6271 5.7933L41.7546 8.963L43.3053 9.87918L45.1765 6.7117C48.5796 8.88343 51.4737 11.7847 53.6379 15.1931L50.4663 17.0567L51.379 18.6097L54.5537 16.7443C56.5491 20.3956 57.7374 24.5477 57.8805 28.9597H54.195V30.761H57.8807C57.7368 35.0933 56.5596 39.2931 54.5167 43.0277L51.3532 41.1589L50.437 42.7097L53.5995 44.5779C52.137 46.8814 50.3292 48.9741 48.2212 50.77L48.4648 48.5744L46.6745 48.3758L46.0909 53.6368L51.3519 54.2204L51.5505 52.4301L49.338 52.1846C52.2414 49.7229 54.6683 46.6959 56.419 43.3272Z" fill="#9B9A84"/>
</g>
<defs>
<clipPath id="clip0_136_1241">
<rect width="60" height="60" fill="white" transform="translate(0.456055 0.618164)"/>
</clipPath>
</defs>
</svg>
