<svg width="36" height="36" viewBox="0 0 36 36" fill="none" xmlns="http://www.w3.org/2000/svg">
<g clip-path="url(#clip0_266_140)">
<path d="M18 0.687012C10.6121 0.687012 4.60156 6.69751 4.60156 14.0854C4.60156 17.6743 6.77587 22.2831 11.0641 27.7832C13.0287 30.2965 15.1562 32.6781 17.433 34.9126C17.5857 35.0586 17.7888 35.1401 18 35.1401C18.2112 35.1401 18.4143 35.0586 18.567 34.9126C20.8438 32.6781 22.9713 30.2965 24.9359 27.7832C29.2241 22.2831 31.3984 17.6743 31.3984 14.0854C31.3984 6.69751 25.3879 0.687012 18 0.687012ZM18 33.1653C15.5788 30.7247 6.24219 20.8713 6.24219 14.0854C6.24219 7.60218 11.5167 2.32764 18 2.32764C24.4833 2.32764 29.7578 7.60218 29.7578 14.0854C29.7578 20.8713 20.4212 30.7247 18 33.1653Z" fill="#9B9A84"/>
<path d="M24.5674 12.9316L18.5518 7.46284C18.4008 7.32557 18.204 7.24951 18 7.24951C17.7959 7.24951 17.5992 7.32557 17.4482 7.46284L11.4326 12.9316C11.31 13.043 11.2241 13.1888 11.186 13.3499C11.148 13.5111 11.1596 13.6799 11.2193 13.8344C11.279 13.9888 11.384 14.1215 11.5205 14.2151C11.6571 14.3088 11.8188 14.3589 11.9843 14.3589H12.8047V18.4604C12.8047 18.678 12.8911 18.8866 13.0449 19.0405C13.1988 19.1943 13.4074 19.2807 13.625 19.2807H16.6328C16.8503 19.2807 17.059 19.1943 17.2128 19.0405C17.3667 18.8866 17.4531 18.678 17.4531 18.4604V15.9995H18.5468V18.4604C18.5468 18.678 18.6333 18.8866 18.7871 19.0405C18.941 19.1943 19.1496 19.2807 19.3672 19.2807H22.375C22.5925 19.2807 22.8012 19.1943 22.955 19.0405C23.1089 18.8866 23.1953 18.678 23.1953 18.4604V14.3589H24.0156C24.1812 14.3589 24.3428 14.3088 24.4794 14.2151C24.616 14.1215 24.721 13.9888 24.7807 13.8344C24.8404 13.6799 24.852 13.5111 24.8139 13.3499C24.7758 13.1888 24.6899 13.043 24.5674 12.9316ZM21.5547 13.5386V17.6401H20.1875V15.1792C20.1875 14.9616 20.101 14.753 19.9472 14.5991C19.7934 14.4453 19.5847 14.3589 19.3672 14.3589H16.6328C16.4152 14.3589 16.2066 14.4453 16.0527 14.5991C15.8989 14.753 15.8125 14.9616 15.8125 15.1792V17.6401H14.4453V13.5386C14.4453 13.3885 14.4042 13.2414 14.3264 13.1131C14.2487 12.9848 14.1372 12.8803 14.0042 12.8109L18 9.17838L21.9958 12.8109C21.8628 12.8803 21.7513 12.9848 21.6735 13.1131C21.5957 13.2414 21.5546 13.3885 21.5547 13.5386Z" fill="#9B9A84"/>
</g>
<defs>
<clipPath id="clip0_266_140">
<rect width="35" height="35" fill="white" transform="translate(0.5 0.413574)"/>
</clipPath>
</defs>
</svg>
