<svg width="37" height="45" viewBox="0 0 37 45" fill="none" xmlns="http://www.w3.org/2000/svg">
<path d="M32.6146 29.5476C33.1246 28.9276 33.6299 28.3042 34.0961 27.6504C35.2207 26.0736 36.0004 24.3135 36.4674 22.4357C37.3315 18.9588 37.0466 15.1556 35.2329 12.0193C34.424 10.6208 33.334 9.39802 32.0552 8.41257C32.0392 8.39992 32.0245 8.38559 32.008 8.37337C31.9933 8.36199 31.9629 8.34175 31.9262 8.31773C31.3775 7.90509 30.7945 7.5249 30.1737 7.18896C29.9815 8.27347 29.7732 9.38749 29.259 10.4695L29.2063 10.5782C28.4911 12.0387 27.2 13.1249 25.6291 13.6029C25.944 15.2568 25.8639 16.7658 25.3897 18.0926C25.0799 18.9601 24.5863 19.7596 23.9229 20.4703C22.7297 21.7483 21.0095 22.6751 19.2047 23.0127C18.0675 23.2264 16.9316 23.2353 15.8264 23.041C14.6753 22.8382 13.5807 22.4024 12.661 21.7807C10.3739 20.2342 8.98385 17.5809 9.03359 14.8572L9.0378 14.684C9.08965 12.9415 9.57942 11.3483 10.0536 9.80772C10.2732 9.0937 10.4983 8.36283 10.6745 7.62479C9.39354 8.41341 8.28754 9.36894 7.37838 10.4716C7.25066 10.6263 7.13054 10.7839 7.01336 10.9432C6.9847 10.9824 6.95688 11.022 6.92864 11.0617C6.8376 11.1894 6.74993 11.3184 6.66563 11.4486C6.63949 11.4891 6.61252 11.5291 6.58723 11.57C6.50335 11.7036 6.42369 11.8389 6.3474 11.975C5.80241 12.9382 5.4239 13.9662 5.24013 15.0149C5.13897 15.5898 5.20473 16.2629 5.29113 16.9335C5.30757 17.1017 5.32865 17.2707 5.3552 17.441C5.36068 17.4768 5.36531 17.5135 5.37079 17.5493C5.46647 18.2827 5.54445 19.0271 5.44919 19.7499C5.44793 19.7588 5.44751 19.7676 5.44624 19.7765C5.43149 19.8831 5.40957 19.9885 5.38681 20.0939C5.38007 20.1251 5.37585 20.1571 5.36827 20.1887C5.33623 20.3206 5.29788 20.4513 5.25067 20.5811C5.08376 21.0401 4.34193 21.8578 1.802 24.3839C1.50231 24.6819 1.19715 24.9853 0.956055 25.2294L3.34593 27.4094C3.45383 28.4719 3.56132 29.5341 3.66922 30.5967L3.77164 31.607C3.94319 33.2968 3.30673 34.6679 3.09472 36.2949C2.97417 37.2192 3.3257 38.1086 4.23149 38.4685C4.60157 38.6156 5.00367 38.6612 5.40072 38.6898C8.39881 38.9065 13.0121 36.8374 14.3908 40.8015C14.6825 41.6403 14.9691 42.592 15.026 44.1777L27.7387 44.2422C27.1743 40.2502 28.078 36.0559 30.2441 32.6544C30.9467 31.5527 31.7863 30.555 32.6146 29.5476Z" fill="white"/>
<path d="M24.738 13.0446C24.4084 11.7494 23.8575 10.4946 23.221 9.39787C23.0908 9.17321 22.9571 8.9553 22.8202 8.74497C22.7856 8.69144 22.7515 8.63538 22.7165 8.58312C21.8119 7.2297 20.684 6.02928 19.4048 5.00167C19.1401 4.78924 18.8691 4.58439 18.5921 4.38713C17.0634 3.29841 15.3551 2.44109 13.565 1.85479C13.2973 1.76712 11.3226 1.3903 11.272 1.22803C11.7631 2.80105 11.8815 4.58397 11.6881 6.21768C11.6813 6.27585 11.6771 6.33486 11.6695 6.39261C11.2906 9.24571 9.8731 11.7793 9.78627 14.7062C9.78458 14.761 9.78332 14.8158 9.78248 14.871C9.73611 17.381 11.0057 19.7578 13.0803 21.1605C13.9426 21.7435 14.9327 22.1232 15.9561 22.3036C16.9766 22.4832 18.0294 22.468 19.0474 22.2796C19.0705 21.0817 19.0916 19.8998 18.9677 18.7234C18.9302 18.0385 18.8134 17.3616 18.7296 16.6834C17.9228 12.5903 16.4855 8.65899 14.4505 5.01263C14.9707 5.94456 15.7142 6.77701 16.2554 7.70851C16.8101 8.6632 17.3036 9.65371 17.7327 10.6716C19.2332 14.2303 20.0686 18.2712 19.6143 22.1523C21.1797 21.8358 22.2743 21.1378 23.3757 19.9588C23.9451 19.3489 24.3999 18.6379 24.6844 17.8408C25.2193 16.3437 25.1502 14.6649 24.738 13.0446Z" fill="#9B9A84"/>
<path d="M30.3151 1.02645C27.6618 0.606218 24.858 0.994835 22.5435 2.28292C21.6559 2.77692 20.729 3.4707 19.9733 4.30146C19.94 4.33813 19.8991 4.38661 19.8662 4.42412C20.4057 4.85109 21.8578 6.08902 23.2002 8.05446C23.4122 7.7063 23.6247 7.35772 23.8687 7.03107C24.4845 6.18808 25.1787 5.40157 25.9657 4.71959C26.7454 4.03466 28.1136 3.10147 29.0552 2.66775C28.2877 3.35774 27.0548 4.39251 26.3728 5.1356C25.6934 5.87954 25.0535 6.65341 24.4753 7.469C24.1756 7.87363 23.8995 8.29387 23.6327 8.72126C24.3568 9.8947 25.0148 11.284 25.4375 12.8717C26.7695 12.4553 27.9083 11.5238 28.5317 10.25C28.5486 10.2155 28.565 10.1813 28.5815 10.1472C29.2006 8.8456 29.3439 7.45425 29.6137 6.08397C29.7237 5.52464 29.8544 4.96911 30.0483 4.42412C30.4419 3.31727 31.0978 2.20874 31.9264 1.36449C31.8447 1.44878 30.5077 1.0568 30.3151 1.02645Z" fill="#9B9A84"/>
<path d="M19.4043 5.0012C19.6125 5.16853 19.8098 5.34767 20.0096 5.52385C19.7465 5.28191 19.5379 5.10657 19.4056 4.99951L19.4043 5.0012Z" fill="#3BBFD1"/>
</svg>
