<?xml version="1.0" encoding="UTF-8"?>
<svg version="1.1" xmlns="http://www.w3.org/2000/svg" width="500" height="500">
<path d="M0 0 C1.3303125 0.00773438 1.3303125 0.00773438 2.6875 0.015625 C3.574375 0.01046875 4.46125 0.0053125 5.375 0 C7.6875 0.265625 7.6875 0.265625 9.6875 2.265625 C9.8828125 4.8671875 9.8828125 4.8671875 9.8125 7.890625 C9.79445313 8.89351562 9.77640625 9.89640625 9.7578125 10.9296875 C9.73460937 11.70054687 9.71140625 12.47140625 9.6875 13.265625 C10.5753418 13.26038818 11.46318359 13.25515137 12.37792969 13.24975586 C15.68034518 13.23268632 18.98271359 13.22016137 22.28515625 13.21069336 C23.71289816 13.20567294 25.14063496 13.19885528 26.56835938 13.19018555 C28.62371079 13.17801947 30.67899407 13.17237372 32.734375 13.16796875 C34.58820801 13.16011353 34.58820801 13.16011353 36.47949219 13.15209961 C39.12339094 13.24566224 41.16881395 13.57874333 43.6875 14.265625 C46.02509335 13.8436805 46.02509335 13.8436805 48.4375 13.140625 C53.88352485 11.92592817 56.6996619 12.90296485 61.6875 15.265625 C62.6775 15.595625 63.6675 15.925625 64.6875 16.265625 C65.43 15.811875 66.1725 15.358125 66.9375 14.890625 C71.43981967 12.23016338 75.20858078 12.01063893 80.3125 12.890625 C84.06917612 14.42112268 86.04769 16.22584378 88.6875 19.265625 C90.82659026 18.21329094 92.93275495 17.13005693 95.01953125 15.9765625 C100.82664573 12.84895124 105.07318191 11.02330859 111.71875 12.8125 C117.21849608 14.65942966 121.19614889 17.05431129 124.5 21.953125 C126.01254536 26.17233048 125.95334815 29.83482257 125.6875 34.265625 C123.7075 34.925625 121.7275 35.585625 119.6875 36.265625 C120.3475 36.925625 121.0075 37.585625 121.6875 38.265625 C122.6775 38.265625 123.6675 38.265625 124.6875 38.265625 C124.873125 37.62625 125.05875 36.986875 125.25 36.328125 C126.6875 34.265625 126.6875 34.265625 130 33.328125 C134.06302881 33.2592601 135.52245424 33.82401827 138.6875 36.265625 C140.6875 38.265625 140.6875 38.265625 141.0625 42.140625 C140.97936157 45.19457673 140.79824442 46.10566084 139 48.703125 C136.34932276 50.49412314 134.89367138 51.18928759 131.6875 51.265625 C128.4375 50.015625 128.4375 50.015625 125.6875 48.265625 C125.3575 47.275625 125.0275 46.285625 124.6875 45.265625 C124.02363281 45.61496094 123.35976563 45.96429688 122.67578125 46.32421875 C121.35126953 47.00677734 121.35126953 47.00677734 120 47.703125 C118.69482422 48.38181641 118.69482422 48.38181641 117.36328125 49.07421875 C112.5569291 51.21427336 107.91335858 51.77964388 102.6875 51.265625 C98.3020453 49.50090749 94.05254072 47.63066572 90.6875 44.265625 C89.6975 46.245625 88.7075 48.225625 87.6875 50.265625 C84.3875 50.265625 81.0875 50.265625 77.6875 50.265625 C75.24080397 45.47128947 75.28675193 40.77848048 75.125 35.515625 C75.06532916 33.79151873 75.00174366 32.06754193 74.93359375 30.34375 C74.90966553 29.58481445 74.8857373 28.82587891 74.86108398 28.04394531 C74.87517476 26.24161077 74.87517476 26.24161077 73.6875 25.265625 C71.68791636 25.22481717 69.68704746 25.22308144 67.6875 25.265625 C66.48479036 27.67104429 66.48433337 29.36929091 66.37109375 32.0546875 C66.32919922 32.99570313 66.28730469 33.93671875 66.24414062 34.90625 C66.20482422 35.89109375 66.16550781 36.8759375 66.125 37.890625 C66.06022461 39.37949219 66.06022461 39.37949219 65.99414062 40.8984375 C65.88788931 43.35402338 65.78585036 45.80971203 65.6875 48.265625 C62.54421114 49.9416591 60.51987038 50.49598883 56.9375 50.390625 C56.13828125 50.37257813 55.3390625 50.35453125 54.515625 50.3359375 C53.91234375 50.31273437 53.3090625 50.28953125 52.6875 50.265625 C51.73473427 47.40732782 51.51146618 45.3931356 51.40625 42.4140625 C51.35017578 41.01414062 51.35017578 41.01414062 51.29296875 39.5859375 C51.22237685 37.61459332 51.15206655 35.64323903 51.08203125 33.671875 C51.02595703 32.27582031 51.02595703 32.27582031 50.96875 30.8515625 C50.93845703 29.9961084 50.90816406 29.1406543 50.87695312 28.25927734 C50.90121476 26.26699248 50.90121476 26.26699248 49.6875 25.265625 C47.68791636 25.22481717 45.68704746 25.22308144 43.6875 25.265625 C42.73348585 28.12766746 42.52519254 30.10098827 42.44140625 33.08203125 C42.39209961 34.47518555 42.39209961 34.47518555 42.34179688 35.89648438 C42.28048046 37.85469582 42.2232041 39.81303785 42.16992188 41.77148438 C42.13576172 42.69896484 42.10160156 43.62644531 42.06640625 44.58203125 C42.02882202 45.85735718 42.02882202 45.85735718 41.99047852 47.15844727 C41.6875 49.265625 41.6875 49.265625 39.6875 51.265625 C36.32717471 51.36731905 33.01400247 51.1952562 29.65625 51.04296875 C28.6765625 51.11644531 27.696875 51.18992187 26.6875 51.265625 C26.0275 52.255625 25.3675 53.245625 24.6875 54.265625 C22.0625 54.453125 22.0625 54.453125 19.6875 54.265625 C19.6875 53.605625 19.6875 52.945625 19.6875 52.265625 C15.69713264 50.27044132 10.76029115 50.9866993 6.5625 52.078125 C3.6875 52.265625 3.6875 52.265625 0.4375 50.140625 C-4.57044789 44.90504311 -4.675199 39.87677847 -4.9375 32.953125 C-4.97617187 32.11716797 -5.01484375 31.28121094 -5.0546875 30.41992188 C-5.14845159 28.36883241 -5.23154245 26.31725985 -5.3125 24.265625 C-5.910625 24.141875 -6.50875 24.018125 -7.125 23.890625 C-9.3125 23.265625 -9.3125 23.265625 -12.3125 21.265625 C-12.6425 29.845625 -12.9725 38.425625 -13.3125 47.265625 C-24.3125 48.265625 -24.3125 48.265625 -26.3125 47.265625 C-26.3125 39.675625 -26.3125 32.085625 -26.3125 24.265625 C-35.51677594 22.27671938 -35.51677594 22.27671938 -39.3125 25.265625 C-40.22083969 27.99064408 -40.49609985 29.88796471 -40.62890625 32.71484375 C-40.67080078 33.56240234 -40.71269531 34.40996094 -40.75585938 35.28320312 C-40.79517578 36.16427734 -40.83449219 37.04535156 -40.875 37.953125 C-40.93977539 39.29213867 -40.93977539 39.29213867 -41.00585938 40.65820312 C-41.11185353 42.86052608 -41.21392051 45.06295973 -41.3125 47.265625 C-48.58813451 48.32176549 -55.33586337 48.06745328 -62.62426758 47.52709961 C-67.10276856 47.24306972 -70.96571973 47.36593311 -75.375 48.390625 C-80.6562301 49.59312047 -84.54320722 48.80858816 -89.3125 46.265625 C-91.875 44.078125 -91.875 44.078125 -93.3125 42.265625 C-93.6425 43.915625 -93.9725 45.565625 -94.3125 47.265625 C-99.0797585 47.99283392 -102.57971187 48.38458542 -107.3125 47.265625 C-108.38783 34.6689022 -108.38783 34.6689022 -108.3125 29.640625 C-108.13462188 26.27221308 -108.13462188 26.27221308 -109.3125 23.265625 C-111.2925 22.935625 -113.2725 22.605625 -115.3125 22.265625 C-117.46999784 25.50187176 -117.59610488 26.60956566 -117.7265625 30.37109375 C-117.76523438 31.35400391 -117.80390625 32.33691406 -117.84375 33.34960938 C-117.89015625 34.88584961 -117.89015625 34.88584961 -117.9375 36.453125 C-117.97617188 37.48888672 -118.01484375 38.52464844 -118.0546875 39.59179688 C-118.14898296 42.14956122 -118.23458202 44.70731787 -118.3125 47.265625 C-119.89379029 47.48893699 -121.47771089 47.69367144 -123.0625 47.890625 C-123.94421875 48.00664062 -124.8259375 48.12265625 -125.734375 48.2421875 C-128.54109878 48.26770317 -129.94634866 47.71406344 -132.3125 46.265625 C-132.29678955 45.64518311 -132.2810791 45.02474121 -132.26489258 44.38549805 C-132.20253786 41.57479972 -132.16350852 38.76424688 -132.125 35.953125 C-132.09986328 34.97666016 -132.07472656 34.00019531 -132.04882812 32.99414062 C-132.03916016 32.05634766 -132.02949219 31.11855469 -132.01953125 30.15234375 C-132.0038208 29.28826904 -131.98811035 28.42419434 -131.97192383 27.53393555 C-132.14129174 25.1987602 -132.14129174 25.1987602 -133.6628418 23.44067383 C-135.34448348 21.96501954 -135.34448348 21.96501954 -138 22.578125 C-138.763125 22.805 -139.52625 23.031875 -140.3125 23.265625 C-140.37308594 24.41160156 -140.43367187 25.55757812 -140.49609375 26.73828125 C-140.58056989 28.26823797 -140.66521427 29.79818541 -140.75 31.328125 C-140.80897461 32.45637695 -140.80897461 32.45637695 -140.86914062 33.60742188 C-141.12830719 38.21261241 -141.5924421 42.70929224 -142.3125 47.265625 C-144.29104258 47.45959976 -146.2703648 47.64563821 -148.25 47.828125 C-149.90322266 47.98474609 -149.90322266 47.98474609 -151.58984375 48.14453125 C-152.93755859 48.20447266 -152.93755859 48.20447266 -154.3125 48.265625 C-156.07322584 46.50489916 -155.44084784 44.1866621 -155.45144653 41.8416748 C-155.4494223 41.08439087 -155.44739807 40.32710693 -155.4453125 39.546875 C-155.44626923 38.77380005 -155.44722595 38.0007251 -155.44821167 37.20422363 C-155.44889341 35.56664956 -155.44703957 33.92907281 -155.44287109 32.29150391 C-155.43752271 29.77630579 -155.44281626 27.26128627 -155.44921875 24.74609375 C-155.44855797 23.15885377 -155.4472768 21.5716139 -155.4453125 19.984375 C-155.44733673 19.22709106 -155.44936096 18.46980713 -155.45144653 17.6895752 C-155.42745132 12.38057632 -155.42745132 12.38057632 -154.3125 11.265625 C-152.50322719 11.14074742 -150.68853893 11.08991654 -148.875 11.078125 C-147.88628906 11.06394531 -146.89757812 11.04976562 -145.87890625 11.03515625 C-143.3125 11.265625 -143.3125 11.265625 -141.3125 13.265625 C-139.8275 12.4921875 -139.8275 12.4921875 -138.3125 11.703125 C-134.07578478 9.90935444 -130.69989806 9.9631162 -126.3125 11.265625 C-123.81622016 12.43812008 -121.63911757 13.76301782 -119.3125 15.265625 C-118.2915625 14.3065625 -118.2915625 14.3065625 -117.25 13.328125 C-113.66913493 10.81390059 -111.68374259 10.33847904 -107.3125 10.265625 C-102.48017896 11.18957132 -99.18043441 12.35535233 -95.75 15.953125 C-95.275625 16.71625 -94.80125 17.479375 -94.3125 18.265625 C-93.87679687 17.85570312 -93.44109375 17.44578125 -92.9921875 17.0234375 C-88.71617781 13.15466683 -85.15582596 10.13124297 -79.078125 10.34375 C-76.04907334 10.64071585 -73.15345599 11.02152729 -70.2265625 11.87109375 C-68.10530733 12.47502499 -68.10530733 12.47502499 -65.3125 11.265625 C-61.29545057 11.03332406 -57.27306113 11.08045992 -53.25 11.078125 C-52.13560547 11.06587891 -51.02121094 11.05363281 -49.87304688 11.04101562 C-48.27879883 11.03811523 -48.27879883 11.03811523 -46.65234375 11.03515625 C-45.67644287 11.03104736 -44.70054199 11.02693848 -43.69506836 11.02270508 C-41.3125 11.265625 -41.3125 11.265625 -39.3125 13.265625 C-37.88550781 12.51539063 -37.88550781 12.51539063 -36.4296875 11.75 C-31.72988598 9.73749053 -27.44502035 10.10981678 -22.4375 10.515625 C-21.57125 10.56847656 -20.705 10.62132812 -19.8125 10.67578125 C-13.47522321 11.10290179 -13.47522321 11.10290179 -12.3125 12.265625 C-9.97952567 12.30655437 -7.64544775 12.30804223 -5.3125 12.265625 C-5.23902344 11.21761719 -5.23902344 11.21761719 -5.1640625 10.1484375 C-5.08929688 9.23835937 -5.01453125 8.32828125 -4.9375 7.390625 C-4.86789062 6.48570312 -4.79828125 5.58078125 -4.7265625 4.6484375 C-4.16298514 1.40520931 -3.30537644 0.37967162 0 0 Z M-80.6875 23.828125 C-82.89896281 27.14531922 -82.73910463 29.35508259 -82.3125 33.265625 C-80.53140359 36.68415994 -80.53140359 36.68415994 -76.4375 37.140625 C-73.66759427 37.37689645 -72.47216502 37.33522257 -69.875 36.203125 C-67.71106585 33.51984665 -67.38118208 31.69972883 -67.3125 28.265625 C-69.04594875 24.53718536 -69.04594875 24.53718536 -72.3125 22.265625 C-75.85481061 21.88059124 -77.67507342 21.84626541 -80.6875 23.828125 Z M9.6875 24.265625 C8.79535348 26.94206457 8.55209789 28.51946878 8.5625 31.265625 C8.55992187 31.94625 8.55734375 32.626875 8.5546875 33.328125 C8.62118874 35.48437281 8.62118874 35.48437281 9.6875 38.265625 C11.0075 37.935625 12.3275 37.605625 13.6875 37.265625 C13.6875 33.305625 13.6875 29.345625 13.6875 25.265625 C12.3675 24.935625 11.0475 24.605625 9.6875 24.265625 Z M101.6875 36.265625 C102.6775 37.750625 102.6775 37.750625 103.6875 39.265625 C105.66497122 39.62860436 105.66497122 39.62860436 107.8125 39.453125 C109.09125 39.39125 110.37 39.329375 111.6875 39.265625 C112.3475 37.945625 113.0075 36.625625 113.6875 35.265625 C112.09855928 33.67668428 110.43948576 34.09564089 108.25 34.078125 C107.44691406 34.06394531 106.64382813 34.04976562 105.81640625 34.03515625 C103.47119367 34.06400144 103.47119367 34.06400144 101.6875 36.265625 Z " fill="#FEFEFD" transform="translate(280.3125,217.734375)"/>
<path d="M0 0 C1.9357161 2.01859079 2.27137149 3.27947534 2.58984375 6.08203125 C2.19216609 10.21787896 0.83331911 12.08525174 -1.72265625 15.33203125 C-2.58117187 16.0384375 -3.4396875 16.74484375 -4.32421875 17.47265625 C-7.56020376 21.33054066 -7.43085863 24.13791018 -7.41015625 29.01953125 C-7.49799409 37.10736909 -7.49799409 37.10736909 -9.72265625 39.33203125 C-10.29334825 41.5930272 -10.29334825 41.5930272 -10.66015625 44.14453125 C-11.89044394 50.54386351 -13.56602863 53.69049136 -18.91015625 57.51953125 C-23.12555711 60.16688445 -26.81061046 61.63803579 -31.72265625 62.33203125 C-32.49738281 62.44160156 -33.27210937 62.55117188 -34.0703125 62.6640625 C-49.5987217 64.42066988 -71.20391215 65.73999679 -84.82421875 56.98046875 C-88.27254242 54.21329543 -90.79279038 51.77472374 -91.72265625 47.33203125 C-91.85988068 44.32325854 -91.84065534 41.34100802 -91.72265625 38.33203125 C-92.71265625 38.00203125 -93.70265625 37.67203125 -94.72265625 37.33203125 C-94.72265625 31.72203125 -94.72265625 26.11203125 -94.72265625 20.33203125 C-96.37265625 19.67203125 -98.02265625 19.01203125 -99.72265625 18.33203125 C-103.31673795 14.94065264 -105.48837187 11.56734886 -106.41015625 6.70703125 C-105.32276419 1.36892478 -102.79983524 -1.19372313 -98.515625 -4.234375 C-88.1262835 -10.76248092 -77.71002513 -13.60912121 -65.72265625 -15.66796875 C-64.42328125 -15.89484375 -63.12390625 -16.12171875 -61.78515625 -16.35546875 C-40.55021436 -18.5157334 -16.38166661 -14.6085921 0 0 Z " fill="#312D2E" transform="translate(116.72265625,225.66796875)"/>
<path d="M0 0 C1.68177553 0.94938941 3.31517773 1.9835002 4.9375 3.03125 C5.618125 2.391875 6.29875 1.7525 7 1.09375 C10.58086507 -1.42047441 12.56625741 -1.89589596 16.9375 -1.96875 C21.76982104 -1.04480368 25.06956559 0.12097733 28.5 3.71875 C28.974375 4.481875 29.44875 5.245 29.9375 6.03125 C30.37320313 5.62132812 30.80890625 5.21140625 31.2578125 4.7890625 C35.53382219 0.92029183 39.09417404 -2.10313203 45.171875 -1.890625 C48.20092666 -1.59365915 51.09654401 -1.21284771 54.0234375 -0.36328125 C56.14469267 0.24064999 56.14469267 0.24064999 58.9375 -0.96875 C62.95454943 -1.20105094 66.97693887 -1.15391508 71 -1.15625 C72.11439453 -1.16849609 73.22878906 -1.18074219 74.37695312 -1.19335938 C75.97120117 -1.19625977 75.97120117 -1.19625977 77.59765625 -1.19921875 C78.57355713 -1.20332764 79.54945801 -1.20743652 80.55493164 -1.21166992 C82.9375 -0.96875 82.9375 -0.96875 84.9375 1.03125 C86.36835938 0.28488281 86.36835938 0.28488281 87.828125 -0.4765625 C92.48398696 -2.46690832 96.71696681 -2.19714185 101.6875 -1.84375 C102.53699219 -1.80765625 103.38648438 -1.7715625 104.26171875 -1.734375 C110.40642901 -1.36549824 110.40642901 -1.36549824 112.68847656 0.33935547 C114.69673574 3.05969091 114.12203845 5.77107076 113.9375 9.03125 C113.2775 9.03125 112.6175 9.03125 111.9375 9.03125 C111.6075 17.61125 111.2775 26.19125 110.9375 35.03125 C99.9375 36.03125 99.9375 36.03125 97.9375 35.03125 C97.9375 27.44125 97.9375 19.85125 97.9375 12.03125 C88.73322406 10.04234438 88.73322406 10.04234438 84.9375 13.03125 C84.02916031 15.75626908 83.75390015 17.65358971 83.62109375 20.48046875 C83.57919922 21.32802734 83.53730469 22.17558594 83.49414062 23.04882812 C83.45482422 23.92990234 83.41550781 24.81097656 83.375 25.71875 C83.31022461 27.05776367 83.31022461 27.05776367 83.24414062 28.42382812 C83.13814647 30.62615108 83.03607949 32.82858473 82.9375 35.03125 C75.66186549 36.08739049 68.91413663 35.83307828 61.62573242 35.29272461 C57.14723144 35.00869472 53.28428027 35.13155811 48.875 36.15625 C43.5937699 37.35874547 39.70679278 36.57421316 34.9375 34.03125 C32.375 31.84375 32.375 31.84375 30.9375 30.03125 C30.6075 31.68125 30.2775 33.33125 29.9375 35.03125 C25.1702415 35.75845892 21.67028813 36.15021042 16.9375 35.03125 C15.86217 22.4345272 15.86217 22.4345272 15.9375 17.40625 C16.11537812 14.03783808 16.11537812 14.03783808 14.9375 11.03125 C12.9575 10.70125 10.9775 10.37125 8.9375 10.03125 C6.78000216 13.26749676 6.65389512 14.37519066 6.5234375 18.13671875 C6.48476562 19.11962891 6.44609375 20.10253906 6.40625 21.11523438 C6.3753125 22.13939453 6.344375 23.16355469 6.3125 24.21875 C6.27382812 25.25451172 6.23515625 26.29027344 6.1953125 27.35742188 C6.10101704 29.91518622 6.01541798 32.47294287 5.9375 35.03125 C4.35620971 35.25456199 2.77228911 35.45929644 1.1875 35.65625 C0.30578125 35.77226562 -0.5759375 35.88828125 -1.484375 36.0078125 C-4.29109878 36.03332817 -5.69634866 35.47968844 -8.0625 34.03125 C-8.04678955 33.41080811 -8.0310791 32.79036621 -8.01489258 32.15112305 C-7.95253786 29.34042472 -7.91350852 26.52987188 -7.875 23.71875 C-7.84986328 22.74228516 -7.82472656 21.76582031 -7.79882812 20.75976562 C-7.78916016 19.82197266 -7.77949219 18.88417969 -7.76953125 17.91796875 C-7.7538208 17.05389404 -7.73811035 16.18981934 -7.72192383 15.29956055 C-7.89129174 12.9643852 -7.89129174 12.9643852 -9.4128418 11.20629883 C-11.09448348 9.73064454 -11.09448348 9.73064454 -13.75 10.34375 C-14.513125 10.570625 -15.27625 10.7975 -16.0625 11.03125 C-16.12308594 12.17722656 -16.18367187 13.32320312 -16.24609375 14.50390625 C-16.33056989 16.03386297 -16.41521427 17.56381041 -16.5 19.09375 C-16.55897461 20.22200195 -16.55897461 20.22200195 -16.61914062 21.37304688 C-16.87830719 25.97823741 -17.3424421 30.47491724 -18.0625 35.03125 C-20.04104258 35.22522476 -22.0203648 35.41126321 -24 35.59375 C-25.65322266 35.75037109 -25.65322266 35.75037109 -27.33984375 35.91015625 C-28.68755859 35.97009766 -28.68755859 35.97009766 -30.0625 36.03125 C-31.82322584 34.27052416 -31.19084784 31.9522871 -31.20144653 29.6072998 C-31.1994223 28.85001587 -31.19739807 28.09273193 -31.1953125 27.3125 C-31.19626923 26.53942505 -31.19722595 25.7663501 -31.19821167 24.96984863 C-31.19889341 23.33227456 -31.19703957 21.69469781 -31.19287109 20.05712891 C-31.18752271 17.54193079 -31.19281626 15.02691127 -31.19921875 12.51171875 C-31.19855797 10.92447877 -31.1972768 9.3372389 -31.1953125 7.75 C-31.19733673 6.99271606 -31.19936096 6.23543213 -31.20144653 5.4552002 C-31.17745132 0.14620132 -31.17745132 0.14620132 -30.0625 -0.96875 C-28.25322719 -1.09362758 -26.43853893 -1.14445846 -24.625 -1.15625 C-23.63628906 -1.17042969 -22.64757812 -1.18460938 -21.62890625 -1.19921875 C-19.0625 -0.96875 -19.0625 -0.96875 -17.0625 1.03125 C-15.5775 0.2578125 -15.5775 0.2578125 -14.0625 -0.53125 C-9.1188096 -2.62434473 -4.84047984 -2.27355871 0 0 Z M43.5625 11.59375 C41.35103719 14.91094422 41.51089537 17.12070759 41.9375 21.03125 C43.71859641 24.44978494 43.71859641 24.44978494 47.8125 24.90625 C50.58240573 25.14252145 51.77783498 25.10084757 54.375 23.96875 C56.53893415 21.28547165 56.86881792 19.46535383 56.9375 16.03125 C55.20405125 12.30281036 55.20405125 12.30281036 51.9375 10.03125 C48.39518939 9.64621624 46.57492658 9.61189041 43.5625 11.59375 Z " fill="#525252" transform="translate(156.0625,229.96875)"/>
<path d="M0 0 C4.95279351 4.37451405 4.95279351 4.37451405 5.25 8.3125 C3.58983401 13.20998966 0.83852968 16.56376164 -3 20 C-6.41751653 21.13917218 -9.03487937 21.11338481 -12.63671875 21.09765625 C-14.58481445 21.09282227 -14.58481445 21.09282227 -16.57226562 21.08789062 C-17.94401108 21.07953531 -19.31575587 21.07107037 -20.6875 21.0625 C-22.07096195 21.05748335 -23.45442563 21.05292073 -24.83789062 21.04882812 C-28.22530395 21.03702529 -31.61263033 21.02056019 -35 21 C-35.28568848 19.96286865 -35.28568848 19.96286865 -35.57714844 18.90478516 C-35.8352832 18.00034668 -36.09341797 17.0959082 -36.359375 16.1640625 C-36.61170898 15.2663916 -36.86404297 14.3687207 -37.12402344 13.44384766 C-38.35848645 9.99987475 -39.73967668 8.63016166 -43 7 C-47.31683033 6.3062237 -49.19197577 6.44336109 -52.8125 8.9375 C-55.5845905 12.8184267 -56.31996758 16.34127044 -57 21 C-78.01718213 18.61168385 -78.01718213 18.61168385 -84.375 11.25 C-86.30671475 7.3865705 -86.49733495 5.276151 -86 1 C-66.75450882 -21.69088652 -22.08752732 -14.89330414 0 0 Z " fill="#FBFBFB" transform="translate(112,224)"/>
<path d="M0 0 C1.9357161 2.01859079 2.27137149 3.27947534 2.58984375 6.08203125 C2.19216609 10.21787896 0.83331911 12.08525174 -1.72265625 15.33203125 C-2.58117187 16.0384375 -3.4396875 16.74484375 -4.32421875 17.47265625 C-7.56020376 21.33054066 -7.43085863 24.13791018 -7.41015625 29.01953125 C-7.49799409 37.10736909 -7.49799409 37.10736909 -9.72265625 39.33203125 C-10.29334825 41.5930272 -10.29334825 41.5930272 -10.66015625 44.14453125 C-11.89044394 50.54386351 -13.56602863 53.69049136 -18.91015625 57.51953125 C-27.0143845 62.58793123 -34.30822254 62.61446426 -43.72265625 62.33203125 C-43.72265625 62.00203125 -43.72265625 61.67203125 -43.72265625 61.33203125 C-42.51609375 61.17347656 -41.30953125 61.01492188 -40.06640625 60.8515625 C-26.11621225 58.91337894 -26.11621225 58.91337894 -15.22265625 50.51953125 C-13.29734509 46.42824503 -13.41385277 43.80968172 -13.72265625 39.33203125 C-14.38265625 40.32203125 -15.04265625 41.31203125 -15.72265625 42.33203125 C-17.20765625 42.82703125 -17.20765625 42.82703125 -18.72265625 43.33203125 C-19.76715536 46.46552857 -19.6568927 47.32171381 -18.72265625 50.33203125 C-20.37265625 50.99203125 -22.02265625 51.65203125 -23.72265625 52.33203125 C-23.72265625 51.34203125 -23.72265625 50.35203125 -23.72265625 49.33203125 C-24.38265625 51.31203125 -25.04265625 53.29203125 -25.72265625 55.33203125 C-27.70265625 54.83703125 -27.70265625 54.83703125 -29.72265625 54.33203125 C-30.21765625 55.81703125 -30.21765625 55.81703125 -30.72265625 57.33203125 C-31.38265625 57.33203125 -32.04265625 57.33203125 -32.72265625 57.33203125 C-32.22765625 55.35203125 -32.22765625 55.35203125 -31.72265625 53.33203125 C-32.67140625 54.15703125 -33.62015625 54.98203125 -34.59765625 55.83203125 C-37.47265625 58.33203125 -37.47265625 58.33203125 -39.72265625 58.33203125 C-40.05265625 57.34203125 -40.38265625 56.35203125 -40.72265625 55.33203125 C-42.20765625 54.83703125 -42.20765625 54.83703125 -43.72265625 54.33203125 C-43.22765625 52.35203125 -43.22765625 52.35203125 -42.72265625 50.33203125 C-42.06265625 50.33203125 -41.40265625 50.33203125 -40.72265625 50.33203125 C-40.72265625 49.67203125 -40.72265625 49.01203125 -40.72265625 48.33203125 C-38.41265625 48.33203125 -36.10265625 48.33203125 -33.72265625 48.33203125 C-33.72265625 47.34203125 -33.72265625 46.35203125 -33.72265625 45.33203125 C-32.40265625 45.33203125 -31.08265625 45.33203125 -29.72265625 45.33203125 C-29.39265625 44.34203125 -29.06265625 43.35203125 -28.72265625 42.33203125 C-28.06265625 42.33203125 -27.40265625 42.33203125 -26.72265625 42.33203125 C-26.72265625 41.67203125 -26.72265625 41.01203125 -26.72265625 40.33203125 C-27.82440186 40.3477417 -28.92614746 40.36345215 -30.0612793 40.37963867 C-80.31815308 41.03428284 -80.31815308 41.03428284 -89.72265625 36.33203125 C-89.72265625 35.67203125 -89.72265625 35.01203125 -89.72265625 34.33203125 C-88.624375 34.53699219 -87.52609375 34.74195313 -86.39453125 34.953125 C-68.60965113 37.99139881 -50.71648738 38.06443751 -32.72265625 38.33203125 C-32.72265625 37.67203125 -32.72265625 37.01203125 -32.72265625 36.33203125 C-33.71265625 36.82703125 -33.71265625 36.82703125 -34.72265625 37.33203125 C-38.90438438 37.58141766 -43.09684826 37.52233392 -47.28515625 37.51953125 C-48.50847656 37.51872559 -49.73179688 37.51791992 -50.9921875 37.51708984 C-64.15410893 37.42858009 -76.81544659 35.95250146 -89.72265625 33.33203125 C-89.72265625 32.67203125 -89.72265625 32.01203125 -89.72265625 31.33203125 C-85.71649544 31.74646168 -81.73718416 32.16260844 -77.76367188 32.82617188 C-68.06177049 34.4247476 -58.6538326 34.5677293 -48.84765625 34.45703125 C-47.27344328 34.4469672 -45.69922399 34.43784748 -44.125 34.4296875 C-40.32405804 34.40797776 -36.52343026 34.37364323 -32.72265625 34.33203125 C-32.39265625 30.70203125 -32.06265625 27.07203125 -31.72265625 23.33203125 C-28.42265625 23.33203125 -25.12265625 23.33203125 -21.72265625 23.33203125 C-21.39265625 23.99203125 -21.06265625 24.65203125 -20.72265625 25.33203125 C-20.06265625 25.33203125 -19.40265625 25.33203125 -18.72265625 25.33203125 C-18.06265625 26.32203125 -17.40265625 27.31203125 -16.72265625 28.33203125 C-15.40265625 28.33203125 -14.08265625 28.33203125 -12.72265625 28.33203125 C-12.22765625 27.34203125 -12.22765625 27.34203125 -11.72265625 26.33203125 C-11.39265625 26.99203125 -11.06265625 27.65203125 -10.72265625 28.33203125 C-10.78066406 27.64496094 -10.83867188 26.95789063 -10.8984375 26.25 C-11.03403448 23.54193463 -11.07319431 21.02241083 -10.72265625 18.33203125 C-8.53515625 16.64453125 -8.53515625 16.64453125 -5.72265625 15.33203125 C-3.03068625 12.45817139 -1.08080249 9.55569757 0.02734375 5.76953125 C-1.79090283 -0.13977014 -8.0849354 -3.03665094 -13.22265625 -5.79296875 C-25.00597425 -11.28961335 -36.17163743 -13.31485422 -49.03173828 -13.07958984 C-51.11800372 -13.04260806 -53.20249977 -13.03857578 -55.2890625 -13.0390625 C-67.00961134 -12.97954002 -75.22206997 -11.74287343 -84.72265625 -4.66796875 C-85.73328125 -4.02859375 -86.74390625 -3.38921875 -87.78515625 -2.73046875 C-90.03556233 -0.71755413 -90.03556233 -0.71755413 -90.28515625 2.70703125 C-89.59126773 7.17875725 -88.86841381 9.03995938 -85.72265625 12.33203125 C-78.30201934 16.13221901 -69.82164056 17.63240338 -61.72265625 19.33203125 C-61.72265625 19.66203125 -61.72265625 19.99203125 -61.72265625 20.33203125 C-66.59723731 20.45609067 -71.47088983 20.54658356 -76.34667969 20.60668945 C-78.00341814 20.63175725 -79.66004684 20.66582115 -81.31640625 20.70922852 C-83.70470309 20.77022768 -86.09153218 20.79831651 -88.48046875 20.8203125 C-89.58239059 20.85902214 -89.58239059 20.85902214 -90.70657349 20.89851379 C-94.63004807 20.90062971 -97.11861353 20.39718659 -100.12060547 17.94995117 C-103.73205803 14.31647343 -105.47809772 12.01337114 -106.22265625 6.89453125 C-105.59800788 2.44391159 -104.06293234 0.16188313 -100.72265625 -2.66796875 C-89.93179121 -10.3266181 -78.5891327 -13.45813325 -65.72265625 -15.66796875 C-64.42328125 -15.89484375 -63.12390625 -16.12171875 -61.78515625 -16.35546875 C-40.55021436 -18.5157334 -16.38166661 -14.6085921 0 0 Z " fill="#4D4540" transform="translate(116.72265625,225.66796875)"/>
<path d="M0 0 C1.9357161 2.01859079 2.27137149 3.27947534 2.58984375 6.08203125 C2.19216609 10.21787896 0.83331911 12.08525174 -1.72265625 15.33203125 C-2.58117187 16.0384375 -3.4396875 16.74484375 -4.32421875 17.47265625 C-7.56020376 21.33054066 -7.43085863 24.13791018 -7.41015625 29.01953125 C-7.49799409 37.10736909 -7.49799409 37.10736909 -9.72265625 39.33203125 C-10.12313069 41.65478302 -10.46236665 43.98942482 -10.72265625 46.33203125 C-11.05265625 46.33203125 -11.38265625 46.33203125 -11.72265625 46.33203125 C-11.72265625 41.38203125 -11.72265625 36.43203125 -11.72265625 31.33203125 C-11.06265625 31.33203125 -10.40265625 31.33203125 -9.72265625 31.33203125 C-9.73167969 30.48640625 -9.74070312 29.64078125 -9.75 28.76953125 C-9.55210541 21.19791207 -8.73066366 17.42137051 -3.33984375 12.09765625 C-1.42774019 10.22864244 -1.42774019 10.22864244 -0.34765625 6.70703125 C-0.74708544 3.11216852 -0.92711951 2.61834979 -3.41015625 0.26953125 C-16.97713945 -9.76521964 -32.49581439 -13.38210021 -49.03173828 -13.07958984 C-51.11800372 -13.04260806 -53.20249977 -13.03857578 -55.2890625 -13.0390625 C-67.00961134 -12.97954002 -75.22206997 -11.74287343 -84.72265625 -4.66796875 C-85.73328125 -4.02859375 -86.74390625 -3.38921875 -87.78515625 -2.73046875 C-90.03556233 -0.71755413 -90.03556233 -0.71755413 -90.28515625 2.70703125 C-89.59126773 7.17875725 -88.86841381 9.03995938 -85.72265625 12.33203125 C-78.30201934 16.13221901 -69.82164056 17.63240338 -61.72265625 19.33203125 C-61.72265625 19.66203125 -61.72265625 19.99203125 -61.72265625 20.33203125 C-66.59723731 20.45609067 -71.47088983 20.54658356 -76.34667969 20.60668945 C-78.00341814 20.63175725 -79.66004684 20.66582115 -81.31640625 20.70922852 C-83.70470309 20.77022768 -86.09153218 20.79831651 -88.48046875 20.8203125 C-89.58239059 20.85902214 -89.58239059 20.85902214 -90.70657349 20.89851379 C-94.63004807 20.90062971 -97.11861353 20.39718659 -100.12060547 17.94995117 C-103.73205803 14.31647343 -105.47809772 12.01337114 -106.22265625 6.89453125 C-105.59800788 2.44391159 -104.06293234 0.16188313 -100.72265625 -2.66796875 C-89.93179121 -10.3266181 -78.5891327 -13.45813325 -65.72265625 -15.66796875 C-64.42328125 -15.89484375 -63.12390625 -16.12171875 -61.78515625 -16.35546875 C-40.55021436 -18.5157334 -16.38166661 -14.6085921 0 0 Z " fill="#A5A5A6" transform="translate(116.72265625,225.66796875)"/>
<path d="M0 0 C0.33 0 0.66 0 1 0 C1.37497746 4.68721819 1.48459497 8.04875802 -0.6875 12.3125 C-7.80473764 20.58388428 -15.82639422 22.1928178 -26.2421875 23.5703125 C-28.95216463 23.84933848 -28.95216463 23.84933848 -31 25 C-31 24.34 -31 23.68 -31 23 C-31.85722656 23.01160156 -32.71445313 23.02320313 -33.59765625 23.03515625 C-39.50860552 23.0818041 -45.18156704 23.08249916 -51 22 C-50.01 21.34 -49.02 20.68 -48 20 C-48 19.01 -48 18.02 -48 17 C-46.68 17 -45.36 17 -44 17 C-44.66 16.67 -45.32 16.34 -46 16 C-46 15.34 -46 14.68 -46 14 C-47.423125 14.061875 -47.423125 14.061875 -48.875 14.125 C-52 14 -52 14 -54 12 C-52.35 12 -50.7 12 -49 12 C-50.39195915 9.2160817 -52.15575779 9.02101003 -55 8 C-55 7.34 -55 6.68 -55 6 C-56.98 6.33 -58.96 6.66 -61 7 C-60.67 6.01 -60.34 5.02 -60 4 C-61.65 4 -63.3 4 -65 4 C-65 3.67 -65 3.34 -65 3 C-61.64490457 2.24654208 -58.55407933 1.87721272 -55.11791992 1.88647461 C-54.17732224 1.88655014 -53.23672455 1.88662567 -52.2676239 1.88670349 C-50.7642321 1.89444542 -50.7642321 1.89444542 -49.23046875 1.90234375 C-48.19432938 1.9037587 -47.15819 1.90517365 -46.09065247 1.90663147 C-42.78957196 1.91221758 -39.48855992 1.92476758 -36.1875 1.9375 C-33.94596452 1.94251679 -31.70442798 1.94707939 -29.46289062 1.95117188 C-23.97523716 1.96218247 -18.48762347 1.97890682 -13 2 C-13 4 -13 4 -14.25 5.625 C-16 7 -16 7 -20 7 C-20 7.99 -20 8.98 -20 10 C-22.31 10 -24.62 10 -27 10 C-27 10.66 -27 11.32 -27 12 C-27.66 12.33 -28.32 12.66 -29 13 C-29.33 13.99 -29.66 14.98 -30 16 C-28.68 16.33 -27.36 16.66 -26 17 C-26 17.99 -26 18.98 -26 20 C-25.38125 19.505 -24.7625 19.01 -24.125 18.5 C-22 17 -22 17 -20 17 C-19.505 15.515 -19.505 15.515 -19 14 C-18.34 14.33 -17.68 14.66 -17 15 C-17.66 16.32 -18.32 17.64 -19 19 C-18.34 19 -17.68 19 -17 19 C-16.67 17.68 -16.34 16.36 -16 15 C-15.505 15.99 -15.505 15.99 -15 17 C-14.01 17 -13.02 17 -12 17 C-11.34 14.36 -10.68 11.72 -10 9 C-9.505 10.485 -9.505 10.485 -9 12 C-9.33 12.66 -9.66 13.32 -10 14 C-8.35 13.34 -6.7 12.68 -5 12 C-5.495 10.515 -5.495 10.515 -6 9 C-6.66 9.33 -7.32 9.66 -8 10 C-7.39816251 7.97954558 -6.72693904 5.97888961 -6 4 C-5.34 3.67 -4.68 3.34 -4 3 C-3.34 3.33 -2.68 3.66 -2 4 C-1.34 2.68 -0.68 1.36 0 0 Z " fill="#261F1C" transform="translate(103,264)"/>
<path d="M0 0 C2.31 0 4.62 0 7 0 C6.01 0.495 6.01 0.495 5 1 C5 1.66 5 2.32 5 3 C5.59683594 3.04898437 6.19367187 3.09796875 6.80859375 3.1484375 C11.05575945 3.51446367 15.27658962 3.89411535 19.49609375 4.51171875 C33.62568834 6.51803581 47.76045653 6.18891118 62 6 C62 6.66 62 7.32 62 8 C14.50579151 8.75289575 14.50579151 8.75289575 5 4 C5 4.66 5 5.32 5 6 C16.385 7.485 16.385 7.485 28 9 C28 9.33 28 9.66 28 10 C25.69 10.33 23.38 10.66 21 11 C21 11.99 21 12.98 21 14 C22.65 14 24.3 14 26 14 C26 14.66 26 15.32 26 16 C27.98 16.66 29.96 17.32 32 18 C32 18.66 32 19.32 32 20 C31.01 20.33 30.02 20.66 29 21 C31.64 21.33 34.28 21.66 37 22 C37 22.99 37 23.98 37 25 C36.01 25.33 35.02 25.66 34 26 C33.505 27.485 33.505 27.485 33 29 C36.56071312 30.04882391 40.05527897 30.30386953 43.75 30.5625 C44.92046875 30.64628906 46.0909375 30.73007812 47.296875 30.81640625 C48.63492188 30.90728516 48.63492188 30.90728516 50 31 C50 31.66 50 32.32 50 33 C18.78198718 33.77721194 18.78198718 33.77721194 8 25.125 C4.66823702 21.91866809 3.10974432 19.40624581 2.89453125 14.6875 C2.87707603 12.45323202 2.91245633 10.23236357 3 8 C2.01 7.67 1.02 7.34 0 7 C0 4.69 0 2.38 0 0 Z " fill="#4F3316" transform="translate(22,256)"/>
<path d="M0 0 C16.335 0.99 16.335 0.99 33 2 C33.99 4.64 34.98 7.28 36 10 C38.85055139 13.01236166 41.13405189 13.39343174 45.203125 13.51171875 C46.1828125 13.54716797 47.1625 13.58261719 48.171875 13.61914062 C49.69554688 13.65297852 49.69554688 13.65297852 51.25 13.6875 C52.28125 13.72166016 53.3125 13.75582031 54.375 13.79101562 C56.91655812 13.87338093 59.45777626 13.94256834 62 14 C62 14.66 62 15.32 62 16 C25.67243445 16.60994277 25.67243445 16.60994277 10 13 C7.95913234 12.6000675 5.91758379 12.20357321 3.875 11.8125 C2.59625 11.544375 1.3175 11.27625 0 11 C0 7.37 0 3.74 0 0 Z " fill="#2B221C" transform="translate(22,245)"/>
<path d="M0 0 C1.9357161 2.01859079 2.27137149 3.27947534 2.58984375 6.08203125 C2.19216609 10.21787896 0.83331911 12.08525174 -1.72265625 15.33203125 C-2.58117187 16.0384375 -3.4396875 16.74484375 -4.32421875 17.47265625 C-7.56020376 21.33054066 -7.43085863 24.13791018 -7.41015625 29.01953125 C-7.49799409 37.10736909 -7.49799409 37.10736909 -9.72265625 39.33203125 C-10.12313069 41.65478302 -10.46236665 43.98942482 -10.72265625 46.33203125 C-11.05265625 46.33203125 -11.38265625 46.33203125 -11.72265625 46.33203125 C-11.72265625 41.38203125 -11.72265625 36.43203125 -11.72265625 31.33203125 C-11.06265625 31.33203125 -10.40265625 31.33203125 -9.72265625 31.33203125 C-9.73167969 30.48640625 -9.74070312 29.64078125 -9.75 28.76953125 C-9.55210541 21.19791207 -8.73066366 17.42137051 -3.33984375 12.09765625 C-1.42774019 10.22864244 -1.42774019 10.22864244 -0.34765625 6.70703125 C-0.74708544 3.11216852 -0.92711951 2.61834979 -3.41015625 0.26953125 C-16.97713945 -9.76521964 -32.49581439 -13.38210021 -49.03173828 -13.07958984 C-51.11800372 -13.04260806 -53.20249977 -13.03857578 -55.2890625 -13.0390625 C-62.36983919 -13.0017398 -68.88222722 -12.55450178 -75.72265625 -10.66796875 C-76.59535156 -10.4565625 -77.46804687 -10.24515625 -78.3671875 -10.02734375 C-84.34490034 -8.34712176 -89.66115953 -5.85274278 -95.15625 -2.97265625 C-97.72265625 -1.66796875 -97.72265625 -1.66796875 -100.72265625 -0.66796875 C-102.72272001 3.01635922 -103.24139045 6.18215765 -102.72265625 10.33203125 C-100.89457582 13.13944049 -99.14800948 15.01301633 -96.47265625 17.01953125 C-95.89515625 17.45265625 -95.31765625 17.88578125 -94.72265625 18.33203125 C-94.72265625 18.99203125 -94.72265625 19.65203125 -94.72265625 20.33203125 C-99.55391019 19.19526562 -101.81308941 16.39531613 -104.54296875 12.484375 C-106.36297212 9.16377282 -106.47409681 7.02092129 -105.72265625 3.33203125 C-100.50545756 -5.18939327 -89.99701145 -9.81039576 -80.72265625 -12.66796875 C-75.74750021 -13.84976615 -70.76365655 -14.80216983 -65.72265625 -15.66796875 C-64.42328125 -15.89484375 -63.12390625 -16.12171875 -61.78515625 -16.35546875 C-40.55021436 -18.5157334 -16.38166661 -14.6085921 0 0 Z " fill="#888882" transform="translate(116.72265625,225.66796875)"/>
<path d="M0 0 C3.18003694 1.77770439 5.55721282 3.82977673 6.875 7.3125 C6.91625 7.869375 6.9575 8.42625 7 9 C6.01 9 5.02 9 4 9 C3.67 9.66 3.34 10.32 3 11 C3.99 10.67 4.98 10.34 6 10 C6 10.66 6 11.32 6 12 C4.1875 12.625 4.1875 12.625 2 13 C1.01 12.34 0.02 11.68 -1 11 C-0.67 11.66 -0.34 12.32 0 13 C2.52733235 13.65555119 2.52733235 13.65555119 5 14 C5 18 5 18 3.609375 19.51953125 C2.99578125 19.94621094 2.3821875 20.37289062 1.75 20.8125 C1.14671875 21.25207031 0.5434375 21.69164062 -0.078125 22.14453125 C-2.50966816 23.22686448 -3.53520966 22.87992515 -6 22 C-6.845625 21.731875 -7.69125 21.46375 -8.5625 21.1875 C-11.48713172 19.76267942 -12.54128304 18.91743393 -14 16 C-14.55335968 11.0988143 -14.5327637 8.99204276 -12.1875 4.625 C-8.40175275 0.0821033 -5.80091361 -0.68824399 0 0 Z " fill="#2F2824" transform="translate(69,230)"/>
<path d="M0 0 C4.01606158 0.41545465 8.00660384 0.83739268 11.99194336 1.48974609 C20.64144261 2.89479962 29.0116838 3.31180728 37.75854492 3.26074219 C39.93241353 3.25002508 42.10545308 3.26070922 44.27929688 3.2734375 C55.37932405 3.28409057 66.11274734 2.27643718 77 0 C77 0.66 77 1.32 77 2 C74.36 2.66 71.72 3.32 69 4 C71.64 4 74.28 4 77 4 C77 4.66 77 5.32 77 6 C56.03202385 10.00753128 19.93160093 14.96580047 0 5 C0 4.34 0 3.68 0 3 C1.64742187 3.30744141 1.64742187 3.30744141 3.328125 3.62109375 C21.11300512 6.65936756 39.00616887 6.73240626 57 7 C57 6.34 57 5.68 57 5 C56.34 5.33 55.68 5.66 55 6 C50.81827187 6.24938641 46.62580799 6.19030267 42.4375 6.1875 C41.21417969 6.18669434 39.99085937 6.18588867 38.73046875 6.18505859 C25.56854732 6.09654884 12.90720966 4.62047021 0 2 C0 1.34 0 0.68 0 0 Z " fill="#C89E68" transform="translate(27,257)"/>
<path d="M0 0 C3.96 0.33 7.92 0.66 12 1 C12 1.33 12 1.66 12 2 C9.69 2.33 7.38 2.66 5 3 C5 3.99 5 4.98 5 6 C6.65 6 8.3 6 10 6 C10 6.66 10 7.32 10 8 C11.98 8.66 13.96 9.32 16 10 C16 10.66 16 11.32 16 12 C15.01 12.33 14.02 12.66 13 13 C15.97 13.495 15.97 13.495 19 14 C19 14.66 19 15.32 19 16 C17.35 16.33 15.7 16.66 14 17 C14.33 17.99 14.66 18.98 15 20 C12.37812506 18.95125002 11.20628639 18.35068687 9.75 15.875 C9.5025 15.25625 9.255 14.6375 9 14 C8.34 14 7.68 14 7 14 C7.33 15.65 7.66 17.3 8 19 C7.5875 18.484375 7.175 17.96875 6.75 17.4375 C6.1725 16.963125 5.595 16.48875 5 16 C2.83700789 16.22757731 2.83700789 16.22757731 1 17 C0.67 15.68 0.34 14.36 0 13 C-0.99 13.33 -1.98 13.66 -3 14 C-3 12.02 -3 10.04 -3 8 C-3.33 8 -3.66 8 -4 8 C-4 9.32 -4 10.64 -4 12 C-4.66 12 -5.32 12 -6 12 C-6 9.36 -6 6.72 -6 4 C-4.35 4 -2.7 4 -1 4 C-0.67 2.68 -0.34 1.36 0 0 Z " fill="#815D45" transform="translate(38,264)"/>
<path d="M0 0 C2.4375 1.5625 2.4375 1.5625 4 4 C4.56288002 7.94016013 4.60396028 10.05782196 2.4375 13.4375 C-0.98314143 15.63021887 -3.00951279 15.63007693 -7 15 C-10 12.875 -10 12.875 -12 10 C-12.0740828 6.36994269 -11.41566541 4.60751099 -9.375 1.625 C-6.0464384 -0.65243688 -3.9491615 -0.56416593 0 0 Z " fill="#FEFEFC" transform="translate(305,210)"/>
<path d="M0 0 C2.4375 1.5625 2.4375 1.5625 4 4 C4.56288002 7.94016013 4.60396028 10.05782196 2.4375 13.4375 C-0.94217804 15.60396028 -3.05983987 15.56288002 -7 15 C-9.4375 13.4375 -9.4375 13.4375 -11 11 C-11.56288002 7.05983987 -11.60396028 4.94217804 -9.4375 1.5625 C-6.05782196 -0.60396028 -3.94016013 -0.56288002 0 0 Z " fill="#545352" transform="translate(264,208)"/>
<path d="M0 0 C0.495 0.99 0.495 0.99 1 2 C-0.09699219 2.12117187 -1.19398437 2.24234375 -2.32421875 2.3671875 C-3.77868823 2.53609363 -5.23311304 2.70538481 -6.6875 2.875 C-7.40873047 2.95363281 -8.12996094 3.03226563 -8.87304688 3.11328125 C-12.90868405 3.59239799 -16.25388047 4.33948602 -20 6 C-21.7634375 6.37125 -21.7634375 6.37125 -23.5625 6.75 C-28.53782133 7.91787123 -32.85956773 10.30161742 -37.36328125 12.66015625 C-40 14 -40 14 -43 15 C-45.00006376 18.68432797 -45.5187342 21.8501264 -45 26 C-43.17191957 28.80740924 -41.42535323 30.68098508 -38.75 32.6875 C-38.1725 33.120625 -37.595 33.55375 -37 34 C-37 34.66 -37 35.32 -37 36 C-41.83125394 34.86323437 -44.09043316 32.06328488 -46.8203125 28.15234375 C-48.64031587 24.83174157 -48.75144056 22.68889004 -48 19 C-42.14555879 9.43774603 -29.78242444 4.67582704 -19.31640625 2.08984375 C-12.84813258 0.66534103 -6.63169279 -0.40602201 0 0 Z " fill="#82827E" transform="translate(59,210)"/>
<path d="M0 0 C2.31 0 4.62 0 7 0 C5.02 2.97 5.02 2.97 3 6 C3.66 6.33 4.32 6.66 5 7 C5.30859375 9.328125 5.30859375 9.328125 5.4375 12.25 C5.87192314 18.13157648 5.87192314 18.13157648 9 23 C17.71790085 29.1025306 27.71368905 29.39646282 38.0625 30.125 C39.21427734 30.21136719 40.36605469 30.29773438 41.55273438 30.38671875 C44.36811223 30.59699593 47.18378659 30.80128364 50 31 C50 31.66 50 32.32 50 33 C18.78198718 33.77721194 18.78198718 33.77721194 8 25.125 C4.66823702 21.91866809 3.10974432 19.40624581 2.89453125 14.6875 C2.87707603 12.45323202 2.91245633 10.23236357 3 8 C2.01 7.67 1.02 7.34 0 7 C0 4.69 0 2.38 0 0 Z " fill="#63605C" transform="translate(22,256)"/>
<path d="M0 0 C1.20535714 6.51785714 1.20535714 6.51785714 0 10 C-0.66 9.67 -1.32 9.34 -2 9 C-4.00800456 9.28112064 -6.01014051 9.61067967 -8 10 C-8 8.68 -8 7.36 -8 6 C-8.66 6 -9.32 6 -10 6 C-10 8.31 -10 10.62 -10 13 C-10.33 13 -10.66 13 -11 13 C-11 10.03 -11 7.06 -11 4 C-11.74765625 4.03480469 -12.4953125 4.06960937 -13.265625 4.10546875 C-14.25046875 4.13253906 -15.2353125 4.15960938 -16.25 4.1875 C-17.22453125 4.22230469 -18.1990625 4.25710937 -19.203125 4.29296875 C-22.37468742 3.96075202 -23.67040307 3.11327721 -26 1 C-17.31126982 0.10884819 -8.73139464 -0.11624638 0 0 Z " fill="#201E1E" transform="translate(106,245)"/>
<path d="M0 0 C0.94059769 0.00007553 1.88119537 0.00015106 2.85029602 0.00022888 C4.35368782 0.00797081 4.35368782 0.00797081 5.88745117 0.01586914 C6.92359055 0.01728409 7.95972992 0.01869904 9.02726746 0.02015686 C12.32834796 0.02574297 15.62936001 0.03829297 18.93041992 0.05102539 C21.1719554 0.05604218 23.41349194 0.06060478 25.6550293 0.06469727 C31.14268276 0.07570786 36.63029645 0.09243221 42.11791992 0.11352539 C42.11791992 2.11352539 42.11791992 2.11352539 40.86791992 3.73852539 C39.11791992 5.11352539 39.11791992 5.11352539 35.11791992 5.11352539 C35.11791992 6.10352539 35.11791992 7.09352539 35.11791992 8.11352539 C33.13791992 8.11352539 31.15791992 8.11352539 29.11791992 8.11352539 C30.10791992 6.46352539 31.09791992 4.81352539 32.11791992 3.11352539 C28.44781933 1.95560064 24.99516388 1.99963876 21.16479492 2.01586914 C20.50457336 2.01728409 19.84435181 2.01869904 19.16412354 2.02015686 C17.06534198 2.02573294 14.96666898 2.03828092 12.86791992 2.05102539 C11.44083813 2.05604349 10.01375467 2.06060585 8.58666992 2.06469727 C5.0970516 2.07569451 1.60749636 2.09294259 -1.88208008 2.11352539 C-1.55208008 2.77352539 -1.22208008 3.43352539 -0.88208008 4.11352539 C-2.53208008 4.44352539 -4.18208008 4.77352539 -5.88208008 5.11352539 C-5.55208008 4.12352539 -5.22208008 3.13352539 -4.88208008 2.11352539 C-6.53208008 2.11352539 -8.18208008 2.11352539 -9.88208008 2.11352539 C-9.88208008 1.78352539 -9.88208008 1.45352539 -9.88208008 1.11352539 C-6.52698465 0.36006747 -3.4361594 -0.00926189 0 0 Z " fill="#301B08" transform="translate(47.882080078125,265.886474609375)"/>
<path d="M0 0 C0.66 0.33 1.32 0.66 2 1 C1.67 1.66 1.34 2.32 1 3 C1.39938767 5.09821215 1.39938767 5.09821215 2 7 C0.35 7.66 -1.3 8.32 -3 9 C-3 8.01 -3 7.02 -3 6 C-3.66 7.98 -4.32 9.96 -5 12 C-6.32 11.67 -7.64 11.34 -9 11 C-9.33 11.99 -9.66 12.98 -10 14 C-10.66 14 -11.32 14 -12 14 C-11.67 12.68 -11.34 11.36 -11 10 C-11.94875 10.825 -12.8975 11.65 -13.875 12.5 C-16.75 15 -16.75 15 -19 15 C-19.33 14.01 -19.66 13.02 -20 12 C-20.99 11.67 -21.98 11.34 -23 11 C-23 10.34 -23 9.68 -23 9 C-22.16597656 8.84144531 -21.33195312 8.68289063 -20.47265625 8.51953125 C-9.3473039 6.21607471 -9.3473039 6.21607471 0 0 Z " fill="#A77D5E" transform="translate(96,269)"/>
<path d="M0 0 C0.99 0.33 1.98 0.66 3 1 C3.50153391 7.92395428 3.23017813 12.35976249 -1 18 C-3.59699264 20.07759411 -4.71474149 20.01746481 -8.0625 19.8125 C-11.0322671 18.99107506 -12.36314334 18.59971351 -14 16 C-13.6875 13.8125 -13.6875 13.8125 -13 12 C-12.4225 12.350625 -11.845 12.70125 -11.25 13.0625 C-8.55212302 14.18661541 -7.67521153 14.08680468 -5 13 C-3.65724831 12.01268258 -2.32267727 11.01405257 -1 10 C-0.34 10 0.32 10 1 10 C1 8.68 1 7.36 1 6 C-0.65 6 -2.3 6 -4 6 C-4.33 5.01 -4.66 4.02 -5 3 C-2.69 3.33 -0.38 3.66 2 4 C1.01 3.67 0.02 3.34 -1 3 C-0.67 2.01 -0.34 1.02 0 0 Z " fill="#281A13" transform="translate(73,238)"/>
<path d="M0 0 C5.21979128 -0.1799928 9.07262981 0.02905192 14 2 C12.11537048 6.90855485 8.58649238 8.38720241 4.109375 10.73828125 C-0.54347367 12.62630904 -5.01556655 12.98071786 -10 13 C-9.67 12.34 -9.34 11.68 -9 11 C-8.34 11 -7.68 11 -7 11 C-7 10.34 -7 9.68 -7 9 C-4.69 9 -2.38 9 0 9 C0 8.01 0 7.02 0 6 C1.32 6 2.64 6 4 6 C4.33 5.01 4.66 4.02 5 3 C5.66 3 6.32 3 7 3 C7 2.34 7 1.68 7 1 C4.69 1 2.38 1 0 1 C0 0.67 0 0.34 0 0 Z " fill="#5E3F28" transform="translate(83,265)"/>
<path d="M0 0 C-1.0828125 0.70962891 -1.0828125 0.70962891 -2.1875 1.43359375 C-7.65884325 5.03397014 -7.65884325 5.03397014 -10.6640625 10.53515625 C-10.6286835 12.76757111 -10.45496873 14.81615008 -10 17 C-15.75 14.375 -15.75 14.375 -18 11 C-18.99 11.99 -19.98 12.98 -21 14 C-20.67438567 10.20116612 -19.62063321 7.87721064 -16.79296875 5.2734375 C-12.063654 1.91449064 -5.81830091 -2.21779941 0 0 Z " fill="#ABABAC" transform="translate(37,217)"/>
<path d="M0 0 C3.3 0 6.6 0 10 0 C10 2.97 10 5.94 10 9 C11.32 9.33 12.64 9.66 14 10 C9.38 10.33 4.76 10.66 0 11 C0 7.37 0 3.74 0 0 Z " fill="#6F6B64" transform="translate(85,249)"/>
<path d="M0 0 C0.33 0.66 0.66 1.32 1 2 C1.33 1.34 1.66 0.68 2 0 C2.66 0 3.32 0 4 0 C4.33 1.65 4.66 3.3 5 5 C4.34 5 3.68 5 3 5 C3 7.64 3 10.28 3 13 C6.27773504 12.24849977 6.27773504 12.24849977 8 9 C8.66 9 9.32 9 10 9 C10 13 10 13 8.609375 14.51953125 C7.99578125 14.94621094 7.3821875 15.37289062 6.75 15.8125 C6.14671875 16.25207031 5.5434375 16.69164062 4.921875 17.14453125 C3 18 3 18 0.93359375 17.75 C-1.89918628 16.65122472 -3.80189272 15.07929067 -6 13 C-6.8125 10.75 -6.8125 10.75 -7 9 C-5.0625 9.3125 -5.0625 9.3125 -3 10 C-2.67 10.99 -2.34 11.98 -2 13 C-1.34 13.33 -0.68 13.66 0 14 C0 11.03 0 8.06 0 5 C-0.66 4.67 -1.32 4.34 -2 4 C-1.34 4 -0.68 4 0 4 C0 2.68 0 1.36 0 0 Z " fill="#C49255" transform="translate(64,235)"/>
<path d="M0 0 C2.64 0 5.28 0 8 0 C9.52150158 3.04300316 9.23899393 5.654085 9 9 C5.77786243 11.14809171 4.72224599 11.29386153 1 11 C0 10 0 10 -0.09765625 7.71484375 C-0.08605469 6.79832031 -0.07445312 5.88179688 -0.0625 4.9375 C-0.05347656 4.01839844 -0.04445312 3.09929687 -0.03515625 2.15234375 C-0.02355469 1.44207031 -0.01195312 0.73179687 0 0 Z M5 3 C5 3.99 5 4.98 5 6 C4.34 5.67 3.68 5.34 3 5 C3 5.99 3 6.98 3 8 C4.32 7.67 5.64 7.34 7 7 C7 5.68 7 4.36 7 3 C6.34 3 5.68 3 5 3 Z " fill="#050403" transform="translate(138,273)"/>
<path d="M0 0 C0.33 0.99 0.66 1.98 1 3 C0.67 3.66 0.34 4.32 0 5 C0.66 5.33 1.32 5.66 2 6 C1.01 6.495 1.01 6.495 0 7 C-0.33 7.99 -0.66 8.98 -1 10 C-2.65 10.33 -4.3 10.66 -6 11 C-6 11.66 -6 12.32 -6 13 C-6.91523437 13.13277344 -7.83046875 13.26554687 -8.7734375 13.40234375 C-9.96195313 13.57894531 -11.15046875 13.75554687 -12.375 13.9375 C-13.55835937 14.11152344 -14.74171875 14.28554688 -15.9609375 14.46484375 C-18.90702381 14.83462786 -18.90702381 14.83462786 -21 16 C-21 15.01 -21 14.02 -21 13 C-20.34 13 -19.68 13 -19 13 C-18.67 12.34 -18.34 11.68 -18 11 C-15.37383124 9.82513503 -12.72955415 8.90985138 -10 8 C-9.67 7.01 -9.34 6.02 -9 5 C-8.34 5.33 -7.68 5.66 -7 6 C-7.66 7.32 -8.32 8.64 -9 10 C-8.34 10 -7.68 10 -7 10 C-6.67 8.68 -6.34 7.36 -6 6 C-5.67 6.66 -5.34 7.32 -5 8 C-4.01 8 -3.02 8 -2 8 C-1.34 5.36 -0.68 2.72 0 0 Z " fill="#392413" transform="translate(93,273)"/>
<path d="M0 0 C3 1 3 1 5 4 C5.33 2.68 5.66 1.36 6 0 C6.66 0 7.32 0 8 0 C8 3.3 8 6.6 8 10 C3.545 10.495 3.545 10.495 -1 11 C-1.02688151 9.35425434 -1.04634123 7.70838587 -1.0625 6.0625 C-1.07410156 5.14597656 -1.08570313 4.22945313 -1.09765625 3.28515625 C-1 1 -1 1 0 0 Z M2 6 C3 9 3 9 3 9 Z " fill="#0F0E0C" transform="translate(365,273)"/>
<path d="M0 0 C3 0.25 3 0.25 5 2.25 C5.375 5.1875 5.375 5.1875 5 8.25 C3.3125 10.25 3.3125 10.25 1 11.25 C-1.39263407 10.58228817 -3.22097385 10.02902615 -5 8.25 C-5.1875 5.3125 -5.1875 5.3125 -5 2.25 C-3 0.25 -3 0.25 0 0 Z M1 3.25 C0.34 3.91 -0.32 4.57 -1 5.25 C-1.66 4.92 -2.32 4.59 -3 4.25 C-2.67 5.57 -2.34 6.89 -2 8.25 C-0.68 8.25 0.64 8.25 2 8.25 C2.33 6.93 2.66 5.61 3 4.25 C2.34 3.92 1.68 3.59 1 3.25 Z " fill="#0D0A08" transform="translate(246,272.75)"/>
<path d="M0 0 C0.763125 0.103125 1.52625 0.20625 2.3125 0.3125 C2.6425 1.6325 2.9725 2.9525 3.3125 4.3125 C1.9925 3.9825 0.6725 3.6525 -0.6875 3.3125 C-0.0275 3.9725 0.6325 4.6325 1.3125 5.3125 C1.9725 5.3125 2.6325 5.3125 3.3125 5.3125 C3.6425 6.9625 3.9725 8.6125 4.3125 10.3125 C0.98715243 11.42094919 -1.30932575 11.15704356 -4.6875 10.3125 C-5.69584883 7.10411737 -5.83117764 5.67169409 -4.5625 2.5 C-2.6875 0.3125 -2.6875 0.3125 0 0 Z M-2.6875 6.3125 C-2.6875 6.9725 -2.6875 7.6325 -2.6875 8.3125 C-2.0275 7.9825 -1.3675 7.6525 -0.6875 7.3125 C-1.3475 6.9825 -2.0075 6.6525 -2.6875 6.3125 Z " fill="#171613" transform="translate(284.6875,272.6875)"/>
<path d="M0 0 C0.94875 0.04125 1.8975 0.0825 2.875 0.125 C2.545 1.115 2.215 2.105 1.875 3.125 C2.535 3.785 3.195 4.445 3.875 5.125 C4 7.75 4 7.75 3.875 10.125 C0.89711118 11.03491047 -0.55997994 11.38460381 -3.4375 10.0625 C-5.125 8.125 -5.125 8.125 -5.5 5.0625 C-4.9700442 0.91117954 -4.19280722 0.16771229 0 0 Z M-3.125 4.125 C-2.795 5.445 -2.465 6.765 -2.125 8.125 C-1.135 7.795 -0.145 7.465 0.875 7.125 C-0.445 6.135 -1.765 5.145 -3.125 4.125 Z " fill="#201F19" transform="translate(420.125,272.875)"/>
<path d="M0 0 C4 2 4 2 5 3 C5.66 2.01 6.32 1.02 7 0 C7.66 0 8.32 0 9 0 C9.33 3.3 9.66 6.6 10 10 C8.68 10 7.36 10 6 10 C4.25 8 4.25 8 3 6 C2.67 7.32 2.34 8.64 2 10 C1.34 10 0.68 10 0 10 C0 6.7 0 3.4 0 0 Z " fill="#11100D" transform="translate(261,273)"/>
<path d="M0 0 C2.31 0 4.62 0 7 0 C7.87867729 3.73437848 8.08912219 7.16774573 8 11 C6.35 10.67 4.7 10.34 3 10 C2.67 9.01 2.34 8.02 2 7 C2 7.99 2 8.98 2 10 C1.34 10 0.68 10 0 10 C0 6.7 0 3.4 0 0 Z M3 2 C2.67 2.66 2.34 3.32 2 4 C3.32 3.67 4.64 3.34 6 3 C5.01 2.67 4.02 2.34 3 2 Z " fill="#1D1A18" transform="translate(316,273)"/>
<path d="M0 0 C0.99 0.33 1.98 0.66 3 1 C3.77730469 0.83628906 4.55460937 0.67257812 5.35546875 0.50390625 C8.35099292 -0.06688048 10.35399155 0.26690475 13.3125 0.9375 C14.19550781 1.13214844 15.07851563 1.32679688 15.98828125 1.52734375 C16.65214844 1.68332031 17.31601562 1.83929688 18 2 C18 2.66 18 3.32 18 4 C16.35 4.33 14.7 4.66 13 5 C13.33 5.99 13.66 6.98 14 8 C11.37812506 6.95125002 10.20628639 6.35068687 8.75 3.875 C8.5025 3.25625 8.255 2.6375 8 2 C7.34 2 6.68 2 6 2 C6.33 3.65 6.66 5.3 7 7 C6.38125 6.2265625 6.38125 6.2265625 5.75 5.4375 C5.1725 4.963125 4.595 4.48875 4 4 C1.83700789 4.22757731 1.83700789 4.22757731 0 5 C0 3.35 0 1.7 0 0 Z " fill="#B88760" transform="translate(39,276)"/>
<path d="M0 0 C3 1 3 1 4.6875 4.375 C6 8 6 8 6 11 C5.46375 10.814375 4.9275 10.62875 4.375 10.4375 C1.38009386 9.88580676 -1.03745829 10.39402556 -4 11 C-3.39301257 6.87248551 -1.96189209 3.6678852 0 0 Z M-1 8 C-0.67 8.66 -0.34 9.32 0 10 C0.33 9.34 0.66 8.68 1 8 C0.34 8 -0.32 8 -1 8 Z " fill="#070706" transform="translate(337,273)"/>
<path d="M0 0 C0.66 0 1.32 0 2 0 C2.33 2.64 2.66 5.28 3 8 C4.35618499 6.87465895 4.35618499 6.87465895 4.0625 3.9375 C4.041875 2.968125 4.02125 1.99875 4 1 C5.9375 0.4375 5.9375 0.4375 8 0 C9 1 9 1 9.3125 3.8125 C9 7 9 7 7.25 9.4375 C5 11 5 11 2.8125 10.875 C1 10 1 10 0 8 C-0.13415472 5.3276379 -0.04318541 2.67749512 0 0 Z " fill="#0A0806" transform="translate(157,273)"/>
<path d="M0 0 C1.14855469 0.13277344 2.29710937 0.26554687 3.48046875 0.40234375 C12.64617511 1.44889213 21.79387597 2.381921 31 3 C31 3.66 31 4.32 31 5 C20.55673723 5.25999824 10.03159054 5.34386351 0 2 C0 1.34 0 0.68 0 0 Z " fill="#54504B" transform="translate(41,284)"/>
<path d="M0 0 C4 2 4 2 6 4 C6.33 2.68 6.66 1.36 7 0 C7.66 0 8.32 0 9 0 C9 3.3 9 6.6 9 10 C5 9 5 9 3 6 C2.67 7.32 2.34 8.64 2 10 C1.34 10 0.68 10 0 10 C0 6.7 0 3.4 0 0 Z " fill="#161611" transform="translate(396,273)"/>
<path d="M0 0 C0.66 1.32 1.32 2.64 2 4 C-0.95613693 8.26031498 -0.95613693 8.26031498 -3 10 C-6.0625 9.9375 -6.0625 9.9375 -9 9 C-9.78375 8.814375 -10.5675 8.62875 -11.375 8.4375 C-12.179375 8.2209375 -12.179375 8.2209375 -13 8 C-13 7.34 -13 6.68 -13 6 C-6.565 5.505 -6.565 5.505 0 5 C0 4.34 0 3.68 0 3 C-3.3 3.33 -6.6 3.66 -10 4 C-7.80202597 1.80202597 -6.82453855 1.54102483 -3.875 0.875 C-2.59625 0.58625 -1.3175 0.2975 0 0 Z " fill="#4C3319" transform="translate(104,258)"/>
<path d="M0 0 C0.94875 0.04125 1.8975 0.0825 2.875 0.125 C2.875 1.775 2.875 3.425 2.875 5.125 C1.225 5.455 -0.425 5.785 -2.125 6.125 C-2.125 6.455 -2.125 6.785 -2.125 7.125 C-0.475 7.455 1.175 7.785 2.875 8.125 C2.875 8.785 2.875 9.445 2.875 10.125 C0.625 10.875 0.625 10.875 -2.125 11.125 C-4.5 9.5 -4.5 9.5 -6.125 7.125 C-5.90586031 2.52306656 -4.87671547 0.19506862 0 0 Z " fill="#12120E" transform="translate(181.125,272.875)"/>
<path d="M0 0 C0.66 0 1.32 0 2 0 C3.35386936 1.65002828 4.68678142 3.3174387 6 5 C6.66 5.33 7.32 5.66 8 6 C7.34 4.68 6.68 3.36 6 2 C8.31 2 10.62 2 13 2 C13.33 1.34 13.66 0.68 14 0 C14 0.99 14 1.98 14 3 C13.01 3.33 12.02 3.66 11 4 C10.67 4.99 10.34 5.98 10 7 C1.57142857 8.28571429 1.57142857 8.28571429 -3 7 C-2.34 6.67 -1.68 6.34 -1 6 C-0.34227572 2.97065509 -0.34227572 2.97065509 0 0 Z " fill="#3C2917" transform="translate(45,278)"/>
<path d="M0 0 C0.99 0 1.98 0 3 0 C3.99 3.3 4.98 6.6 6 10 C3 10 0 10 -3 10 C-2.39009109 6.44219804 -1.4216319 3.3171411 0 0 Z " fill="#161410" transform="translate(196,273)"/>
<path d="M0 0 C0.33 0 0.66 0 1 0 C1 1.65 1 3.3 1 5 C3.47266765 4.65555119 3.47266765 4.65555119 6 4 C6.33 3.34 6.66 2.68 7 2 C7.66 2 8.32 2 9 2 C9 4.97 9 7.94 9 11 C8.01 10.67 7.02 10.34 6 10 C6 9.01 6 8.02 6 7 C5.01 7 4.02 7 3 7 C3 7.99 3 8.98 3 10 C3.99 10.33 4.98 10.66 6 11 C5.34 11.66 4.68 12.32 4 13 C1.78631706 10.78631706 0.13447079 9.06983375 -0.265625 5.88671875 C-0.25166986 3.92253213 -0.13286356 1.9597375 0 0 Z " fill="#443124" transform="translate(55,238)"/>
<path d="M0 0 C7.26 0 14.52 0 22 0 C22.33 0.66 22.66 1.32 23 2 C18.71 2 14.42 2 10 2 C10 2.99 10 3.98 10 5 C9.01 5 8.02 5 7 5 C7 4.01 7 3.02 7 2 C4.69 2 2.38 2 0 2 C0 1.34 0 0.68 0 0 Z " fill="#40433C" transform="translate(217,229)"/>
<path d="M0 0 C0.66 0.33 1.32 0.66 2 1 C-0.19469133 5.64758164 -3.22132418 8.21894567 -8 10 C-11.9375 10.25 -11.9375 10.25 -15 10 C-13.25 8.4375 -13.25 8.4375 -11 7 C-8.75 7.3125 -8.75 7.3125 -7 8 C-6.67 6.68 -6.34 5.36 -6 4 C-5.34 4 -4.68 4 -4 4 C-3.67 3.01 -3.34 2.02 -3 1 C-2.01 0.67 -1.02 0.34 0 0 Z " fill="#281F19" transform="translate(99,275)"/>
<path d="M0 0 C2.31 0 4.62 0 7 0 C7 0.66 7 1.32 7 2 C5.35 2 3.7 2 2 2 C2 2.66 2 3.32 2 4 C3.32 4 4.64 4 6 4 C6 4.66 6 5.32 6 6 C5.01 6.33 4.02 6.66 3 7 C4.32 7.66 5.64 8.32 7 9 C5.1875 10.0625 5.1875 10.0625 3 11 C2.01 10.67 1.02 10.34 0 10 C0 6.7 0 3.4 0 0 Z " fill="#31302C" transform="translate(122,273)"/>
<path d="M0 0 C5.28 0 10.56 0 16 0 C16.33 0.99 16.66 1.98 17 3 C11.72 3 6.44 3 1 3 C0.67 2.01 0.34 1.02 0 0 Z " fill="#B5B4B1" transform="translate(59,209)"/>
<path d="M0 0 C3.96 0.33 7.92 0.66 12 1 C12 1.33 12 1.66 12 2 C9.69 2.33 7.38 2.66 5 3 C4.67 3.99 4.34 4.98 4 6 C1.03 6 -1.94 6 -5 6 C-4.67 7.98 -4.34 9.96 -4 12 C-4.66 12 -5.32 12 -6 12 C-6 9.36 -6 6.72 -6 4 C-4.35 4 -2.7 4 -1 4 C-0.67 2.68 -0.34 1.36 0 0 Z " fill="#533C28" transform="translate(38,264)"/>
<path d="M0 0 C0.99 0.33 1.98 0.66 3 1 C2.67 1.33 2.34 1.66 2 2 C1.76281257 5.6105197 1.60344319 9.21419749 1.48242188 12.83007812 C1.21328125 18.78671875 1.21328125 18.78671875 -1 21 C-1.40047444 23.32275177 -1.7397104 25.65739357 -2 28 C-2.33 28 -2.66 28 -3 28 C-3 23.05 -3 18.1 -3 13 C-2.34 13 -1.68 13 -1 13 C-0.67 8.71 -0.34 4.42 0 0 Z " fill="#908477" transform="translate(108,244)"/>
<path d="M0 0 C0.33 0 0.66 0 1 0 C1.02578125 0.59167969 1.0515625 1.18335938 1.078125 1.79296875 C1.45697419 7.07102683 2.056585 10.169254 6 14 C6.7425 14.556875 7.485 15.11375 8.25 15.6875 C8.8275 16.120625 9.405 16.55375 10 17 C10 17.66 10 18.32 10 19 C5.16652245 17.86271116 2.92512399 15.05469377 0.1640625 11.16796875 C-1.53109463 8.0108808 -1.48959265 5.49709036 -1 2 C-0.67 1.34 -0.34 0.68 0 0 Z " fill="#6D6C6A" transform="translate(12,227)"/>
<path d="M0 0 C1.65 0.33 3.3 0.66 5 1 C4.67 1.66 4.34 2.32 4 3 C3.01 3.33 2.02 3.66 1 4 C0.67 4.99 0.34 5.98 0 7 C0.99 7.33 1.98 7.66 3 8 C3 8.99 3 9.98 3 11 C4.32 11.66 5.64 12.32 7 13 C6.67 13.99 6.34 14.98 6 16 C0.20731707 11.73170732 0.20731707 11.73170732 -1 8 C-1.32142857 2.64285714 -1.32142857 2.64285714 0 0 Z " fill="#272422" transform="translate(28,266)"/>
<path d="M0 0 C0.99 0 1.98 0 3 0 C3 0.66 3 1.32 3 2 C4.98 2.66 6.96 3.32 9 4 C9 4.66 9 5.32 9 6 C3.55106131 7.19876651 0.77830905 6.91360308 -4 4 C-4 3.67 -4 3.34 -4 3 C-2.35 2.67 -0.7 2.34 1 2 C0.67 1.34 0.34 0.68 0 0 Z " fill="#623F28" transform="translate(45,270)"/>
<path d="M0 0 C0.86625 0.5259375 0.86625 0.5259375 1.75 1.0625 C4.39392586 2.16413578 5.36171148 1.96737246 8 1 C8.66 0.67 9.32 0.34 10 0 C10 1.32 10 2.64 10 4 C4.92913386 6.71653543 4.92913386 6.71653543 2 7 C0.1875 5.8125 0.1875 5.8125 -1 4 C-0.6875 1.8125 -0.6875 1.8125 0 0 Z " fill="#342113" transform="translate(60,250)"/>
<path d="M0 0 C2.31 0 4.62 0 7 0 C8.4783226 2.95664519 8.06032783 5.74229737 8 9 C6.68 9.33 5.36 9.66 4 10 C3.67 9.34 3.34 8.68 3 8 C3.66 7.67 4.32 7.34 5 7 C5.65213292 4.97536745 5.65213292 4.97536745 6 3 C4.35 3 2.7 3 1 3 C0.67 2.01 0.34 1.02 0 0 Z " fill="#0F0E0C" transform="translate(139,273)"/>
<path d="M0 0 C0.66 0.33 1.32 0.66 2 1 C1.34 2.98 0.68 4.96 0 7 C-1.32 6.67 -2.64 6.34 -4 6 C-4.33 6.99 -4.66 7.98 -5 9 C-5.66 9 -6.32 9 -7 9 C-6.875 6.1875 -6.875 6.1875 -6 3 C-3.0625 1.0625 -3.0625 1.0625 0 0 Z " fill="#76563D" transform="translate(91,274)"/>
<path d="M0 0 C0.66 0.99 1.32 1.98 2 3 C1.34 3 0.68 3 0 3 C-0.33 4.32 -0.66 5.64 -1 7 C-2.65 7 -4.3 7 -6 7 C-6 5.35 -6 3.7 -6 2 C-4.02 1.34 -2.04 0.68 0 0 Z " fill="#261C19" transform="translate(62,236)"/>
<path d="M0 0 C0.33 2.97 0.66 5.94 1 9 C-4.28 9 -9.56 9 -15 9 C-14.34 8.34 -13.68 7.68 -13 7 C-10.6171875 7.0234375 -10.6171875 7.0234375 -7.875 7.375 C-6.96492187 7.48585938 -6.05484375 7.59671875 -5.1171875 7.7109375 C-4.41851562 7.80632812 -3.71984375 7.90171875 -3 8 C-3 5.69 -3 3.38 -3 1 C-1 0 -1 0 0 0 Z " fill="#484846" transform="translate(227,256)"/>
<path d="M0 0 C1.65 0 3.3 0 5 0 C2.57763975 5.57142857 2.57763975 5.57142857 0.0625 7.4375 C-2.34445404 8.09394201 -3.67454648 7.83051911 -6 7 C-4.6875 5.5 -4.6875 5.5 -3 4 C-2.01 4 -1.02 4 0 4 C0 2.68 0 1.36 0 0 Z " fill="#271F1F" transform="translate(70,250)"/>
<path d="M0 0 C0.99 0.33 1.98 0.66 3 1 C3.50537432 6.30643041 2.30655751 8.86680312 -1 13 C-3.25 14.875 -3.25 14.875 -5 16 C-5.66 15.67 -6.32 15.34 -7 15 C-6.57847656 14.57589844 -6.15695313 14.15179688 -5.72265625 13.71484375 C-1.62684235 9.32991358 0 6.20693716 0 0 Z " fill="#B2B2AF" transform="translate(116,228)"/>
<path d="M0 0 C2.97 0 5.94 0 9 0 C8.67 1.32 8.34 2.64 8 4 C7.34 4 6.68 4 6 4 C6 4.99 6 5.98 6 7 C4.02 7 2.04 7 0 7 C0.99 5.35 1.98 3.7 3 2 C2.01 1.34 1.02 0.68 0 0 Z " fill="#322215" transform="translate(77,267)"/>
<path d="M0 0 C0 0.66 0 1.32 0 2 C-13.6332574 5.62870159 -13.6332574 5.62870159 -20 4 C-20 3.67 -20 3.34 -20 3 C-18.41058594 2.80083984 -18.41058594 2.80083984 -16.7890625 2.59765625 C-15.40101721 2.41946125 -14.01299769 2.2410654 -12.625 2.0625 C-11.92632812 1.97548828 -11.22765625 1.88847656 -10.5078125 1.79882812 C-6.85513295 1.32468222 -3.59765413 0 0 0 Z " fill="#C8A16F" transform="translate(104,257)"/>
<path d="M0 0 C1.984375 1.26953125 1.984375 1.26953125 4 3 C4.25 6.6875 4.25 6.6875 4 10 C3.34 10 2.68 10 2 10 C1.67 10.66 1.34 11.32 1 12 C-0.26237731 9.47524538 -0.09856404 7.68799534 -0.0625 4.875 C-0.05347656 3.96492187 -0.04445313 3.05484375 -0.03515625 2.1171875 C-0.02355469 1.41851562 -0.01195312 0.71984375 0 0 Z " fill="#A7A7A7" transform="translate(266,229)"/>
<path d="M0 0 C2.64 0 5.28 0 8 0 C8 0.66 8 1.32 8 2 C7.01 2 6.02 2 5 2 C5 4.64 5 7.28 5 10 C4.34 10 3.68 10 3 10 C3 7.36 3 4.72 3 2 C2.01 2 1.02 2 0 2 C0 1.34 0 0.68 0 0 Z " fill="#2D2B27" transform="translate(298,273)"/>
<path d="M0 0 C2.64 0 5.28 0 8 0 C8 0.66 8 1.32 8 2 C7.01 2 6.02 2 5 2 C5 4.64 5 7.28 5 10 C4.34 10 3.68 10 3 10 C3 7.36 3 4.72 3 2 C2.01 2 1.02 2 0 2 C0 1.34 0 0.68 0 0 Z " fill="#2A2722" transform="translate(211,273)"/>
<path d="M0 0 C0.66 0 1.32 0 2 0 C2 3.3 2 6.6 2 10 C1.01 10 0.02 10 -1 10 C-1.02689216 8.52093108 -1.04634621 7.04172517 -1.0625 5.5625 C-1.07410156 4.73878906 -1.08570313 3.91507812 -1.09765625 3.06640625 C-1 1 -1 1 0 0 Z " fill="#161411" transform="translate(384,273)"/>
<path d="M0 0 C0.33 0.99 0.66 1.98 1 3 C4.00847418 4.22520264 4.00847418 4.22520264 7 5 C7 4.01 7 3.02 7 2 C6.34 1.67 5.68 1.34 5 1 C6.32 1 7.64 1 9 1 C9 2.65 9 4.3 9 6 C5.95205066 6.93131785 4.57949326 7.29757762 1.6875 5.8125 C0 4 0 4 0 0 Z " fill="#0B0A05" transform="translate(415,277)"/>
<path d="M0 0 C0.33 0.66 0.66 1.32 1 2 C1.33 1.34 1.66 0.68 2 0 C2.66 0 3.32 0 4 0 C4.33 1.65 4.66 3.3 5 5 C3.68 5 2.36 5 1 5 C1 7.97 1 10.94 1 14 C0.67 14 0.34 14 0 14 C0 11.03 0 8.06 0 5 C-0.66 4.67 -1.32 4.34 -2 4 C-1.34 4 -0.68 4 0 4 C0 2.68 0 1.36 0 0 Z " fill="#946A44" transform="translate(64,235)"/>
<path d="M0 0 C0.99 0.33 1.98 0.66 3 1 C3.66 0.67 4.32 0.34 5 0 C7 2 7 2 7.125 4.625 C7.08375 5.40875 7.0425 6.1925 7 7 C6.38125 6.2265625 6.38125 6.2265625 5.75 5.4375 C5.1725 4.963125 4.595 4.48875 4 4 C1.83700789 4.22757731 1.83700789 4.22757731 0 5 C0 3.35 0 1.7 0 0 Z " fill="#8C6A50" transform="translate(39,276)"/>
<path d="M0 0 C2 3 2 3 2 6 C3.65 6.33 5.3 6.66 7 7 C5.1875 8.0625 5.1875 8.0625 3 9 C2.01 8.67 1.02 8.34 0 8 C0 5.36 0 2.72 0 0 Z " fill="#161511" transform="translate(122,275)"/>
<path d="M0 0 C2.31 0 4.62 0 7 0 C3.375 5.875 3.375 5.875 0 7 C0 4.69 0 2.38 0 0 Z " fill="#836A53" transform="translate(22,256)"/>
<path d="M0 0 C1.65 0 3.3 0 5 0 C5 2.31 5 4.62 5 7 C3.35 6.67 1.7 6.34 0 6 C0.66 4.35 1.32 2.7 2 1 C1.34 0.67 0.68 0.34 0 0 Z " fill="#080805" transform="translate(319,277)"/>
<path d="M0 0 C0.66 0.33 1.32 0.66 2 1 C1.67 1.66 1.34 2.32 1 3 C1.39938767 5.09821215 1.39938767 5.09821215 2 7 C0.35 7.66 -1.3 8.32 -3 9 C-2.25 2.25 -2.25 2.25 0 0 Z " fill="#715946" transform="translate(96,269)"/>
<path d="M0 0 C0.33 0.66 0.66 1.32 1 2 C0.34 2 -0.32 2 -1 2 C-0.04134491 4.33075929 -0.04134491 4.33075929 3 6 C2.01 7.485 2.01 7.485 1 9 C0.01 9 -0.98 9 -2 9 C-2 6.36 -2 3.72 -2 1 C-1.34 0.67 -0.68 0.34 0 0 Z " fill="#522B10" transform="translate(69,239)"/>
<path d="M0 0 C1.98 0 3.96 0 6 0 C5.67 0.99 5.34 1.98 5 3 C4.34 3 3.68 3 3 3 C2.67 4.32 2.34 5.64 2 7 C0 5 0 5 -0.125 2.375 C-0.08375 1.59125 -0.0425 0.8075 0 0 Z " fill="#090906" transform="translate(241,276)"/>
<path d="M0 0 C-1.62339805 1.70884005 -3.29319053 3.37446717 -5 5 C-5.66 5 -6.32 5 -7 5 C-7.33 3.68 -7.66 2.36 -8 1 C-2.25 -1.125 -2.25 -1.125 0 0 Z " fill="#7F552F" transform="translate(84,279)"/>
<path d="M0 0 C3.68754757 0.49831724 5.60490662 1.10067643 8 4 C7.01 4 6.02 4 5 4 C3.32900023 4.31088368 1.66128463 4.64080332 0 5 C0 3.35 0 1.7 0 0 Z " fill="#60402B" transform="translate(35,273)"/>
<path d="M0 0 C0.66 0.33 1.32 0.66 2 1 C0.7934375 1.6496875 0.7934375 1.6496875 -0.4375 2.3125 C-3.27846354 3.80474002 -3.27846354 3.80474002 -4 7 C-6.5625 8.1875 -6.5625 8.1875 -9 9 C-7.27592413 4.61144323 -4.17026127 2.08513063 0 0 Z " fill="#4A4B47" transform="translate(195,229)"/>
<path d="M0 0 C4.41889613 1.35021826 6.34345343 3.26115668 9 7 C5.13066838 6.42676569 2.84777943 4.61046448 0 2 C0 1.34 0 0.68 0 0 Z " fill="#878782" transform="translate(109,221)"/>
<path d="M0 0 C0.66 0 1.32 0 2 0 C2 3.3 2 6.6 2 10 C1.34 10 0.68 10 0 10 C0 6.7 0 3.4 0 0 Z " fill="#27241D" transform="translate(229,273)"/>
<path d="M0 0 C0.99 0.495 0.99 0.495 2 1 C1.67 1.66 1.34 2.32 1 3 C1.66 3 2.32 3 3 3 C2.67 5.31 2.34 7.62 2 10 C1.34 10 0.68 10 0 10 C0 6.7 0 3.4 0 0 Z " fill="#25231F" transform="translate(396,273)"/>
<path d="M0 0 C0.66 0 1.32 0 2 0 C2 3.3 2 6.6 2 10 C1.34 10 0.68 10 0 10 C0 6.7 0 3.4 0 0 Z " fill="#272722" transform="translate(352,273)"/>
<path d="M0 0 C0.99 0.33 1.98 0.66 3 1 C2.67 1.99 2.34 2.98 2 4 C-1.0625 5.1875 -1.0625 5.1875 -4 6 C-4 5.01 -4 4.02 -4 3 C-3.34 3 -2.68 3 -2 3 C-1.67 2.34 -1.34 1.68 -1 1 C-0.67 0.67 -0.34 0.34 0 0 Z " fill="#362E27" transform="translate(76,283)"/>
<path d="M0 0 C0.33 0.99 0.66 1.98 1 3 C0.01 3.33 -0.98 3.66 -2 4 C-2.33 4.99 -2.66 5.98 -3 7 C-4.32 5.35 -5.64 3.7 -7 2 C-4.69 2 -2.38 2 0 2 C0 1.34 0 0.68 0 0 Z " fill="#34180C" transform="translate(58,278)"/>
<path d="M0 0 C2.97 0.495 2.97 0.495 6 1 C6 2.66666667 6 4.33333333 6 6 C3.37812506 4.95125002 2.20628639 4.35068687 0.75 1.875 C0.5025 1.25625 0.255 0.6375 0 0 Z " fill="#8E6647" transform="translate(47,278)"/>
<path d="M0 0 C2.31 0 4.62 0 7 0 C7.33 1.32 7.66 2.64 8 4 C5.03 3.505 5.03 3.505 2 3 C2 2.34 2 1.68 2 1 C1.34 0.67 0.68 0.34 0 0 Z " fill="#2D2B27" transform="translate(316,273)"/>
<path d="M0 0 C3.125 -0.1875 3.125 -0.1875 6 0 C6 0.99 6 1.98 6 3 C3.36 3 0.72 3 -2 3 C-1.34 2.01 -0.68 1.02 0 0 Z " fill="#181811" transform="translate(243,273)"/>
<path d="M0 0 C0.66 0 1.32 0 2 0 C0.375 5.75 0.375 5.75 -3 8 C-1.125 1.125 -1.125 1.125 0 0 Z " fill="#151410" transform="translate(337,273)"/>
<path d="M0 0 C0.66 0 1.32 0 2 0 C2 1.32 2 2.64 2 4 C0.02 4.99 0.02 4.99 -2 6 C-2.99 5.34 -3.98 4.68 -5 4 C-4.01 3.67 -3.02 3.34 -2 3 C-1.34 2.01 -0.68 1.02 0 0 Z " fill="#9C794E" transform="translate(72,244)"/>
<path d="M0 0 C0.66 0 1.32 0 2 0 C2.33 1.65 2.66 3.3 3 5 C1.02 5.33 -0.96 5.66 -3 6 C-1.125 1.125 -1.125 1.125 0 0 Z " fill="#363332" transform="translate(59,232)"/>
<path d="M0 0 C0 0.66 0 1.32 0 2 C-3.13498292 3.85776765 -5.37471432 4.20140476 -9 4 C-3.7826087 0 -3.7826087 0 0 0 Z " fill="#959690" transform="translate(29,217)"/>
<path d="M0 0 C0.4125 0.45375 0.825 0.9075 1.25 1.375 C3.06408095 3.05950374 4.75285627 3.99265971 7 5 C5.1875 5.625 5.1875 5.625 3 6 C2.01 5.34 1.02 4.68 0 4 C0 2.68 0 1.36 0 0 Z " fill="#050401" transform="translate(279,278)"/>
<path d="M0 0 C0.33 0.99 0.66 1.98 1 3 C-0.4375 5.6875 -0.4375 5.6875 -2 8 C-2.66 7.34 -3.32 6.68 -4 6 C-4 5.01 -4 4.02 -4 3 C-3.01 2.67 -2.02 2.34 -1 2 C-0.67 1.34 -0.34 0.68 0 0 Z " fill="#312824" transform="translate(103,270)"/>
<path d="M0 0 C0.33 0 0.66 0 1 0 C1 2.64 1 5.28 1 8 C0.01 7.67 -0.98 7.34 -2 7 C-2.6875 4.9375 -2.6875 4.9375 -3 3 C-2.34 3 -1.68 3 -1 3 C-0.67 2.01 -0.34 1.02 0 0 Z " fill="#3D1D03" transform="translate(63,241)"/>
<path d="" fill="#000000" transform="translate(0,0)"/>
<path d="" fill="#000000" transform="translate(0,0)"/>
</svg>
