<svg width="175" height="41" viewBox="0 0 175 41" fill="none" xmlns="http://www.w3.org/2000/svg">
<path fill-rule="evenodd" clip-rule="evenodd" d="M26.0118 12.1536C24.3673 11.0548 22.4339 10.4683 20.4561 10.4683V0.468262C24.4117 0.468262 28.2785 1.64124 31.5675 3.83887C34.8565 6.03649 37.4199 9.16007 38.9337 12.8146C40.4474 16.4691 40.8435 20.4905 40.0718 24.3701C39.3001 28.2497 37.3953 31.8134 34.5982 34.6104C31.8012 37.4075 28.2375 39.3123 24.3579 40.084C20.4783 40.8557 16.4569 40.4596 12.8024 38.9459C9.14785 37.4321 6.02428 34.8687 3.82666 31.5797C1.62903 28.2907 0.456055 24.4239 0.456055 20.4683H10.4561C10.4561 22.4461 11.0426 24.3795 12.1414 26.024C13.2402 27.6685 14.802 28.9502 16.6293 29.7071C18.4565 30.464 20.4672 30.662 22.407 30.2761C24.3468 29.8903 26.1286 28.9379 27.5272 27.5394C28.9257 26.1408 29.8781 24.359 30.2639 22.4192C30.6498 20.4794 30.4518 18.4687 29.6949 16.6415C28.938 14.8142 27.6563 13.2524 26.0118 12.1536Z" fill="white"/>
<path fill-rule="evenodd" clip-rule="evenodd" d="M10.456 0.468267C10.456 1.78149 10.1974 3.08185 9.69485 4.29511C9.1923 5.50836 8.45571 6.61075 7.52712 7.53934C6.59854 8.46793 5.49615 9.20452 4.28289 9.70707C3.06963 10.2096 1.76927 10.4683 0.456055 10.4683L0.456055 20.4683C3.08249 20.4683 5.68321 19.951 8.10973 18.9459C10.5362 17.9408 12.741 16.4676 14.5981 14.6104C16.4553 12.7533 17.9285 10.5485 18.9336 8.12194C19.9387 5.69542 20.456 3.0947 20.456 0.468262L10.456 0.468267Z" fill="white"/>
<path d="M56.4561 26.9242H68.4081V23.3242H60.7041V9.76416H56.4561V26.9242Z" fill="white"/>
<path d="M75.9602 24.5253C74.2562 24.5253 73.3682 23.0373 73.3682 20.8053C73.3682 18.5733 74.2562 17.0613 75.9602 17.0613C77.6642 17.0613 78.5762 18.5733 78.5762 20.8053C78.5762 23.0373 77.6642 24.5253 75.9602 24.5253ZM75.9842 27.3093C79.9442 27.3093 82.5362 24.5013 82.5362 20.8053C82.5362 17.1093 79.9442 14.3013 75.9842 14.3013C72.0482 14.3013 69.4082 17.1093 69.4082 20.8053C69.4082 24.5013 72.0482 27.3093 75.9842 27.3093Z" fill="white"/>
<path d="M89.8001 31.1719C91.6241 31.1719 93.2321 30.7639 94.3121 29.8039C95.2961 28.9159 95.9441 27.5719 95.9441 25.7239V14.6359H92.2001V15.9559H92.1521C91.4321 14.9239 90.3281 14.2759 88.6961 14.2759C85.6481 14.2759 83.5361 16.8199 83.5361 20.4199C83.5361 24.1879 86.1041 26.2519 88.8641 26.2519C90.3521 26.2519 91.2881 25.6519 92.0081 24.8359H92.1041V26.0599C92.1041 27.5479 91.4081 28.4119 89.7521 28.4119C88.4561 28.4119 87.8081 27.8599 87.5921 27.2119H83.8001C84.1841 29.7799 86.4161 31.1719 89.8001 31.1719ZM89.7761 23.3479C88.3121 23.3479 87.3521 22.1479 87.3521 20.2999C87.3521 18.4279 88.3121 17.2279 89.7761 17.2279C91.4081 17.2279 92.2721 18.6199 92.2721 20.2759C92.2721 22.0039 91.4801 23.3479 89.7761 23.3479Z" fill="white"/>
<path d="M103.496 24.5253C101.792 24.5253 100.904 23.0373 100.904 20.8053C100.904 18.5733 101.792 17.0613 103.496 17.0613C105.2 17.0613 106.112 18.5733 106.112 20.8053C106.112 23.0373 105.2 24.5253 103.496 24.5253ZM103.52 27.3093C107.48 27.3093 110.072 24.5013 110.072 20.8053C110.072 17.1093 107.48 14.3013 103.52 14.3013C99.5843 14.3013 96.9443 17.1093 96.9443 20.8053C96.9443 24.5013 99.5843 27.3093 103.52 27.3093Z" fill="white"/>
<path d="M111.072 26.9242H114.984V14.6362H111.072V26.9242ZM111.072 12.9322H114.984V9.76416H111.072V12.9322Z" fill="white"/>
<path d="M115.984 30.9799H119.896V25.6519H119.944C120.712 26.6839 121.84 27.3079 123.424 27.3079C126.64 27.3079 128.776 24.7639 128.776 20.7799C128.776 17.0839 126.784 14.2759 123.52 14.2759C121.84 14.2759 120.64 15.0199 119.8 16.1239H119.728V14.6359H115.984V30.9799ZM122.416 24.2839C120.736 24.2839 119.776 22.9159 119.776 20.9239C119.776 18.9319 120.64 17.4199 122.344 17.4199C124.024 17.4199 124.816 18.8119 124.816 20.9239C124.816 23.0119 123.904 24.2839 122.416 24.2839Z" fill="white"/>
<path d="M135.751 27.3079C138.967 27.3079 141.343 25.9159 141.343 23.2279C141.343 20.0839 138.799 19.5319 136.639 19.1719C135.079 18.8839 133.687 18.7639 133.687 17.8999C133.687 17.1319 134.431 16.7719 135.391 16.7719C136.471 16.7719 137.215 17.1079 137.359 18.2119H140.959C140.767 15.7879 138.895 14.2759 135.415 14.2759C132.511 14.2759 130.111 15.6199 130.111 18.2119C130.111 21.0919 132.391 21.6679 134.527 22.0279C136.159 22.3159 137.647 22.4359 137.647 23.5399C137.647 24.3319 136.903 24.7639 135.727 24.7639C134.431 24.7639 133.615 24.1639 133.471 22.9399H129.775C129.895 25.6519 132.151 27.3079 135.751 27.3079Z" fill="white"/>
<path d="M146.664 27.2852C148.368 27.2852 149.448 26.6132 150.336 25.4132H150.408V26.9252H154.152V14.6372H150.24V21.5012C150.24 22.9652 149.424 23.9732 148.08 23.9732C146.832 23.9732 146.232 23.2292 146.232 21.8852V14.6372H142.344V22.7012C142.344 25.4372 143.832 27.2852 146.664 27.2852Z" fill="white"/>
<path d="M155.152 26.9239H159.064V20.0359C159.064 18.5719 159.784 17.5399 161.008 17.5399C162.184 17.5399 162.736 18.3079 162.736 19.6279V26.9239H166.648V20.0359C166.648 18.5719 167.344 17.5399 168.592 17.5399C169.768 17.5399 170.32 18.3079 170.32 19.6279V26.9239H174.232V18.9319C174.232 16.1719 172.84 14.2759 170.056 14.2759C168.472 14.2759 167.152 14.9479 166.192 16.4359H166.144C165.52 15.1159 164.296 14.2759 162.688 14.2759C160.912 14.2759 159.736 15.1159 158.968 16.3879H158.896V14.6359H155.152V26.9239Z" fill="white"/>
</svg>
