<svg width="175" height="41" viewBox="0 0 175 41" fill="none" xmlns="http://www.w3.org/2000/svg">
<path d="M56.4561 26.4803H68.4081V22.8803H60.7041V9.32031H56.4561V26.4803Z" fill="white"/>
<path d="M75.9602 24.0814C74.2562 24.0814 73.3682 22.5934 73.3682 20.3614C73.3682 18.1294 74.2562 16.6174 75.9602 16.6174C77.6642 16.6174 78.5762 18.1294 78.5762 20.3614C78.5762 22.5934 77.6642 24.0814 75.9602 24.0814ZM75.9842 26.8654C79.9442 26.8654 82.5362 24.0574 82.5362 20.3614C82.5362 16.6654 79.9442 13.8574 75.9842 13.8574C72.0482 13.8574 69.4082 16.6654 69.4082 20.3614C69.4082 24.0574 72.0482 26.8654 75.9842 26.8654Z" fill="white"/>
<path d="M89.8001 30.728C91.6241 30.728 93.2321 30.32 94.3121 29.36C95.2961 28.472 95.9441 27.128 95.9441 25.28V14.192H92.2001V15.512H92.1521C91.4321 14.48 90.3281 13.832 88.6961 13.832C85.6481 13.832 83.5361 16.376 83.5361 19.976C83.5361 23.744 86.1041 25.808 88.8641 25.808C90.3521 25.808 91.2881 25.208 92.0081 24.392H92.1041V25.616C92.1041 27.104 91.4081 27.968 89.7521 27.968C88.4561 27.968 87.8081 27.416 87.5921 26.768H83.8001C84.1841 29.336 86.4161 30.728 89.8001 30.728ZM89.7761 22.904C88.3121 22.904 87.3521 21.704 87.3521 19.856C87.3521 17.984 88.3121 16.784 89.7761 16.784C91.4081 16.784 92.2721 18.176 92.2721 19.832C92.2721 21.56 91.4801 22.904 89.7761 22.904Z" fill="white"/>
<path d="M103.496 24.0814C101.792 24.0814 100.904 22.5934 100.904 20.3614C100.904 18.1294 101.792 16.6174 103.496 16.6174C105.2 16.6174 106.112 18.1294 106.112 20.3614C106.112 22.5934 105.2 24.0814 103.496 24.0814ZM103.52 26.8654C107.48 26.8654 110.072 24.0574 110.072 20.3614C110.072 16.6654 107.48 13.8574 103.52 13.8574C99.5843 13.8574 96.9443 16.6654 96.9443 20.3614C96.9443 24.0574 99.5843 26.8654 103.52 26.8654Z" fill="white"/>
<path d="M111.072 26.4803H114.984V14.1923H111.072V26.4803ZM111.072 12.4883H114.984V9.32031H111.072V12.4883Z" fill="white"/>
<path d="M115.984 30.536H119.896V25.208H119.944C120.712 26.24 121.84 26.864 123.424 26.864C126.64 26.864 128.776 24.32 128.776 20.336C128.776 16.64 126.784 13.832 123.52 13.832C121.84 13.832 120.64 14.576 119.8 15.68H119.728V14.192H115.984V30.536ZM122.416 23.84C120.736 23.84 119.776 22.472 119.776 20.48C119.776 18.488 120.64 16.976 122.344 16.976C124.024 16.976 124.816 18.368 124.816 20.48C124.816 22.568 123.904 23.84 122.416 23.84Z" fill="white"/>
<path d="M135.751 26.864C138.967 26.864 141.343 25.472 141.343 22.784C141.343 19.64 138.799 19.088 136.639 18.728C135.079 18.44 133.687 18.32 133.687 17.456C133.687 16.688 134.431 16.328 135.391 16.328C136.471 16.328 137.215 16.664 137.359 17.768H140.959C140.767 15.344 138.895 13.832 135.415 13.832C132.511 13.832 130.111 15.176 130.111 17.768C130.111 20.648 132.391 21.224 134.527 21.584C136.159 21.872 137.647 21.992 137.647 23.096C137.647 23.888 136.903 24.32 135.727 24.32C134.431 24.32 133.615 23.72 133.471 22.496H129.775C129.895 25.208 132.151 26.864 135.751 26.864Z" fill="white"/>
<path d="M146.664 26.8414C148.368 26.8414 149.448 26.1694 150.336 24.9694H150.408V26.4814H154.152V14.1934H150.24V21.0574C150.24 22.5214 149.424 23.5294 148.08 23.5294C146.832 23.5294 146.232 22.7854 146.232 21.4414V14.1934H142.344V22.2574C142.344 24.9934 143.832 26.8414 146.664 26.8414Z" fill="white"/>
<path d="M155.152 26.48H159.064V19.592C159.064 18.128 159.784 17.096 161.008 17.096C162.184 17.096 162.736 17.864 162.736 19.184V26.48H166.648V19.592C166.648 18.128 167.344 17.096 168.592 17.096C169.768 17.096 170.32 17.864 170.32 19.184V26.48H174.232V18.488C174.232 15.728 172.84 13.832 170.056 13.832C168.472 13.832 167.152 14.504 166.192 15.992H166.144C165.52 14.672 164.296 13.832 162.688 13.832C160.912 13.832 159.736 14.672 158.968 15.944H158.896V14.192H155.152V26.48Z" fill="white"/>
<path fill-rule="evenodd" clip-rule="evenodd" d="M20.4561 40.0244C31.5018 40.0244 40.4561 31.0701 40.4561 20.0244C40.4561 8.97872 31.5018 0.0244141 20.4561 0.0244141C9.41034 0.0244141 0.456055 8.97872 0.456055 20.0244C0.456055 31.0701 9.41034 40.0244 20.4561 40.0244ZM26.6954 9.34125C26.9991 8.26246 25.9522 7.62454 24.9961 8.30571L11.6492 17.814C10.6123 18.5527 10.7754 20.0244 11.8942 20.0244H15.4088V19.9972H22.2586L16.6773 21.9665L14.2168 30.7076C13.9131 31.7864 14.9599 32.4243 15.9161 31.7431L29.263 22.2349C30.2999 21.4962 30.1367 20.0244 29.018 20.0244H23.6882L26.6954 9.34125Z" fill="white"/>
</svg>
