<svg width="175" height="41" viewBox="0 0 175 41" fill="none" xmlns="http://www.w3.org/2000/svg">
<path d="M56.3203 26.9246H68.2723V23.3246H60.5683V9.76465H56.3203V26.9246Z" fill="white"/>
<path d="M75.8245 24.5258C74.1205 24.5258 73.2325 23.0378 73.2325 20.8058C73.2325 18.5738 74.1205 17.0618 75.8245 17.0618C77.5285 17.0618 78.4405 18.5738 78.4405 20.8058C78.4405 23.0378 77.5285 24.5258 75.8245 24.5258ZM75.8485 27.3098C79.8085 27.3098 82.4005 24.5018 82.4005 20.8058C82.4005 17.1098 79.8085 14.3018 75.8485 14.3018C71.9125 14.3018 69.2725 17.1098 69.2725 20.8058C69.2725 24.5018 71.9125 27.3098 75.8485 27.3098Z" fill="white"/>
<path d="M89.6644 31.1724C91.4884 31.1724 93.0964 30.7644 94.1764 29.8044C95.1604 28.9164 95.8084 27.5724 95.8084 25.7244V14.6364H92.0644V15.9564H92.0164C91.2964 14.9244 90.1924 14.2764 88.5604 14.2764C85.5124 14.2764 83.4004 16.8204 83.4004 20.4204C83.4004 24.1884 85.9684 26.2524 88.7284 26.2524C90.2164 26.2524 91.1524 25.6524 91.8724 24.8364H91.9684V26.0604C91.9684 27.5484 91.2724 28.4124 89.6164 28.4124C88.3204 28.4124 87.6724 27.8604 87.4564 27.2124H83.6644C84.0484 29.7804 86.2804 31.1724 89.6644 31.1724ZM89.6404 23.3484C88.1764 23.3484 87.2164 22.1484 87.2164 20.3004C87.2164 18.4284 88.1764 17.2284 89.6404 17.2284C91.2724 17.2284 92.1364 18.6204 92.1364 20.2764C92.1364 22.0044 91.3444 23.3484 89.6404 23.3484Z" fill="white"/>
<path d="M103.361 24.5258C101.657 24.5258 100.769 23.0378 100.769 20.8058C100.769 18.5738 101.657 17.0618 103.361 17.0618C105.065 17.0618 105.977 18.5738 105.977 20.8058C105.977 23.0378 105.065 24.5258 103.361 24.5258ZM103.385 27.3098C107.345 27.3098 109.936 24.5018 109.936 20.8058C109.936 17.1098 107.345 14.3018 103.385 14.3018C99.4486 14.3018 96.8086 17.1098 96.8086 20.8058C96.8086 24.5018 99.4486 27.3098 103.385 27.3098Z" fill="white"/>
<path d="M110.936 26.9246H114.848V14.6366H110.936V26.9246ZM110.936 12.9326H114.848V9.76465H110.936V12.9326Z" fill="white"/>
<path d="M115.848 30.9804H119.76V25.6524H119.808C120.576 26.6844 121.704 27.3084 123.288 27.3084C126.504 27.3084 128.64 24.7644 128.64 20.7804C128.64 17.0844 126.648 14.2764 123.384 14.2764C121.704 14.2764 120.504 15.0204 119.664 16.1244H119.592V14.6364H115.848V30.9804ZM122.28 24.2844C120.6 24.2844 119.64 22.9164 119.64 20.9244C119.64 18.9324 120.504 17.4204 122.208 17.4204C123.888 17.4204 124.68 18.8124 124.68 20.9244C124.68 23.0124 123.768 24.2844 122.28 24.2844Z" fill="white"/>
<path d="M135.617 27.3084C138.833 27.3084 141.209 25.9164 141.209 23.2284C141.209 20.0844 138.665 19.5324 136.505 19.1724C134.945 18.8844 133.553 18.7644 133.553 17.9004C133.553 17.1324 134.297 16.7724 135.257 16.7724C136.337 16.7724 137.081 17.1084 137.225 18.2124H140.825C140.633 15.7884 138.761 14.2764 135.281 14.2764C132.377 14.2764 129.977 15.6204 129.977 18.2124C129.977 21.0924 132.257 21.6684 134.393 22.0284C136.025 22.3164 137.513 22.4364 137.513 23.5404C137.513 24.3324 136.769 24.7644 135.593 24.7644C134.297 24.7644 133.481 24.1644 133.337 22.9404H129.641C129.761 25.6524 132.017 27.3084 135.617 27.3084Z" fill="white"/>
<path d="M146.528 27.2857C148.232 27.2857 149.312 26.6137 150.2 25.4137H150.272V26.9257H154.016V14.6377H150.104V21.5017C150.104 22.9657 149.288 23.9737 147.944 23.9737C146.696 23.9737 146.096 23.2297 146.096 21.8857V14.6377H142.208V22.7017C142.208 25.4377 143.696 27.2857 146.528 27.2857Z" fill="white"/>
<path d="M155.016 26.9244H158.928V20.0364C158.928 18.5724 159.648 17.5404 160.872 17.5404C162.048 17.5404 162.6 18.3084 162.6 19.6284V26.9244H166.512V20.0364C166.512 18.5724 167.208 17.5404 168.456 17.5404C169.632 17.5404 170.184 18.3084 170.184 19.6284V26.9244H174.096V18.9324C174.096 16.1724 172.704 14.2764 169.92 14.2764C168.336 14.2764 167.016 14.9484 166.056 16.4364H166.008C165.384 15.1164 164.16 14.2764 162.552 14.2764C160.776 14.2764 159.6 15.1164 158.832 16.3884H158.76V14.6364H155.016V26.9244Z" fill="white"/>
<path d="M25.5486 1.52212L21.6156 0.468262L18.3012 12.8378L15.3089 1.6705L11.3758 2.72436L14.6088 14.7898L6.55613 6.73724L3.67694 9.61643L12.5097 18.4492L1.50991 15.5018L0.456055 19.4348L12.4747 22.6552C12.3371 22.0617 12.2643 21.4433 12.2643 20.8079C12.2643 16.3103 15.9103 12.6643 20.4079 12.6643C24.9055 12.6643 28.5515 16.3103 28.5515 20.8079C28.5515 21.4392 28.4796 22.0538 28.3437 22.6438L39.2664 25.5705L40.3202 21.6375L28.2538 18.4043L39.2543 15.4567L38.2004 11.5237L26.1345 14.7567L34.1871 6.70418L31.3079 3.82499L22.5977 12.5352L25.5486 1.52212Z" fill="white"/>
<path d="M28.3325 22.6899C27.9953 24.1155 27.2834 25.3962 26.3066 26.4223L34.2196 34.3354L37.0988 31.4562L28.3325 22.6899Z" fill="white"/>
<path d="M26.2268 26.5054C25.2382 27.5151 23.9889 28.2686 22.5879 28.6569L25.4673 39.4029L29.4003 38.349L26.2268 26.5054Z" fill="white"/>
<path d="M22.441 28.6957C21.791 28.8628 21.1097 28.9516 20.4076 28.9516C19.6554 28.9516 18.927 28.8496 18.2355 28.6587L15.3535 39.4145L19.2865 40.4683L22.441 28.6957Z" fill="white"/>
<path d="M18.0964 28.6193C16.7168 28.2117 15.4897 27.4486 14.5213 26.436L6.58887 34.3685L9.46806 37.2477L18.0964 28.6193Z" fill="white"/>
<path d="M14.4559 26.3654C13.5041 25.3464 12.8108 24.0828 12.4808 22.6792L1.52246 25.6155L2.57631 29.5485L14.4559 26.3654Z" fill="white"/>
</svg>
